M48
;GenerationSoftware,Autodesk,EAGLE,9.2.2*%
;CreationDate,2019-02-06T11:45:32Z*%
FMAT,2
ICI,OFF
METRIC,TZ,000.000
T2C0.356
T1C1.500
%
G90
M71
T1
X14558Y25135
X19638Y25135
T2
X17200Y13857
X17200Y15000
X17200Y16143
X17200Y17286
X14914Y13832
X15930Y13832
X19461Y13832
X18445Y13832
X24058Y20842
X21569Y21426
X19257Y19801
X24515Y4688
X10647Y22010
X30306Y11317
X6862Y9920
X13644Y18810
X5770Y14238
X14406Y6110
X7040Y6872
X4500Y20080
X9072Y16016
X27360Y13603
X15447Y21629
X16438Y20486
X23804Y23001
X26750Y17591
X29773Y16524
X28884Y9666
X18470Y2554
X10825Y13730
X12730Y13755
X28351Y20639
X8361Y17540
X14076Y22493
X8107Y21096
X28833Y15711
X20629Y18429
M30