G04 EAGLE Gerber RS-274X export*
G75*
%MOMM*%
%FSLAX34Y34*%
%LPD*%
%INTop Copper*%
%IPPOS*%
%AMOC8*
5,1,8,0,0,1.08239X$1,22.5*%
G01*
%ADD10R,0.800000X0.800000*%
%ADD11R,1.000000X1.100000*%
%ADD12R,0.450000X1.000000*%
%ADD13R,2.500000X2.500000*%
%ADD14C,2.500000*%
%ADD15R,1.100000X1.000000*%
%ADD16C,0.499997*%
%ADD17C,0.999997*%
%ADD18C,0.100000*%
%ADD19C,0.609600*%
%ADD20C,0.812800*%
%ADD21C,0.635000*%
%ADD22C,0.381000*%
%ADD23C,0.762000*%
%ADD24C,1.270000*%
%ADD25C,0.457200*%
%ADD26C,0.406400*%
%ADD27C,0.889000*%
%ADD28C,0.254000*%
%ADD29C,0.508000*%

G36*
X106508Y-498D02*
X106508Y-498D01*
X106517Y-499D01*
X106605Y-478D01*
X106695Y-460D01*
X106702Y-455D01*
X106710Y-453D01*
X106783Y-399D01*
X106859Y-347D01*
X106863Y-340D01*
X106870Y-335D01*
X106917Y-257D01*
X106966Y-180D01*
X106967Y-171D01*
X106972Y-164D01*
X106999Y0D01*
X106999Y755D01*
X150206Y755D01*
X150324Y770D01*
X150443Y777D01*
X150481Y790D01*
X150522Y795D01*
X150632Y838D01*
X150745Y875D01*
X150780Y897D01*
X150817Y912D01*
X150913Y981D01*
X151014Y1045D01*
X151042Y1075D01*
X151075Y1098D01*
X151151Y1190D01*
X151232Y1277D01*
X151252Y1312D01*
X151277Y1343D01*
X151328Y1451D01*
X151386Y1555D01*
X151396Y1595D01*
X151413Y1631D01*
X151435Y1748D01*
X151465Y1863D01*
X151469Y1923D01*
X151473Y1943D01*
X151471Y1964D01*
X151475Y2024D01*
X151475Y4083D01*
X152521Y6607D01*
X152526Y6625D01*
X152535Y6642D01*
X152552Y6696D01*
X152557Y6708D01*
X152560Y6725D01*
X152582Y6796D01*
X152657Y7108D01*
X152682Y7141D01*
X152791Y7285D01*
X152791Y7286D01*
X152792Y7288D01*
X152862Y7430D01*
X153214Y8279D01*
X153255Y8431D01*
X153297Y8585D01*
X153297Y8586D01*
X153299Y8655D01*
X153464Y8925D01*
X153472Y8942D01*
X153484Y8958D01*
X153555Y9102D01*
X154600Y11626D01*
X156628Y13654D01*
X156658Y13693D01*
X156694Y13726D01*
X156755Y13818D01*
X156822Y13905D01*
X156842Y13951D01*
X156869Y13992D01*
X156870Y13995D01*
X157406Y14453D01*
X157419Y14467D01*
X157435Y14478D01*
X157547Y14594D01*
X158016Y15143D01*
X158046Y15160D01*
X158145Y15209D01*
X158183Y15241D01*
X158225Y15266D01*
X158346Y15372D01*
X160374Y17400D01*
X162898Y18445D01*
X162914Y18455D01*
X162933Y18461D01*
X163075Y18536D01*
X163348Y18703D01*
X163395Y18710D01*
X163569Y18734D01*
X163569Y18735D01*
X163570Y18735D01*
X163571Y18735D01*
X163721Y18786D01*
X164569Y19138D01*
X164570Y19138D01*
X164705Y19215D01*
X164845Y19295D01*
X164846Y19296D01*
X164847Y19296D01*
X164896Y19344D01*
X165204Y19418D01*
X165222Y19424D01*
X165241Y19427D01*
X165393Y19479D01*
X167917Y20525D01*
X170785Y20525D01*
X170834Y20531D01*
X170883Y20529D01*
X170991Y20551D01*
X171100Y20565D01*
X171146Y20583D01*
X171195Y20593D01*
X171198Y20594D01*
X171900Y20539D01*
X171920Y20540D01*
X171939Y20536D01*
X172100Y20539D01*
X172820Y20596D01*
X172853Y20587D01*
X172957Y20551D01*
X173007Y20547D01*
X173055Y20535D01*
X173215Y20525D01*
X173770Y20525D01*
X173868Y20537D01*
X173967Y20540D01*
X174025Y20557D01*
X174085Y20565D01*
X174177Y20601D01*
X174273Y20629D01*
X174325Y20659D01*
X174381Y20682D01*
X174461Y20740D01*
X174546Y20790D01*
X174622Y20856D01*
X174638Y20868D01*
X174646Y20878D01*
X174667Y20896D01*
X178740Y24969D01*
X178800Y25047D01*
X178868Y25119D01*
X178897Y25172D01*
X178934Y25220D01*
X178974Y25311D01*
X179022Y25398D01*
X179037Y25456D01*
X179061Y25512D01*
X179076Y25610D01*
X179101Y25706D01*
X179107Y25806D01*
X179111Y25826D01*
X179109Y25838D01*
X179111Y25866D01*
X179111Y26652D01*
X179962Y28706D01*
X181534Y30278D01*
X183588Y31129D01*
X185812Y31129D01*
X187866Y30278D01*
X189438Y28706D01*
X190289Y26652D01*
X190289Y24428D01*
X189438Y22374D01*
X187866Y20802D01*
X185812Y19951D01*
X185026Y19951D01*
X184928Y19939D01*
X184829Y19936D01*
X184771Y19919D01*
X184711Y19911D01*
X184619Y19875D01*
X184524Y19847D01*
X184471Y19817D01*
X184415Y19794D01*
X184335Y19736D01*
X184250Y19686D01*
X184174Y19620D01*
X184158Y19608D01*
X184150Y19598D01*
X184129Y19580D01*
X183685Y19136D01*
X183612Y19042D01*
X183533Y18953D01*
X183515Y18917D01*
X183490Y18885D01*
X183443Y18776D01*
X183389Y18670D01*
X183380Y18630D01*
X183364Y18593D01*
X183345Y18475D01*
X183319Y18359D01*
X183320Y18319D01*
X183314Y18279D01*
X183325Y18160D01*
X183329Y18041D01*
X183340Y18003D01*
X183344Y17962D01*
X183384Y17850D01*
X183417Y17736D01*
X183438Y17701D01*
X183451Y17663D01*
X183518Y17564D01*
X183579Y17462D01*
X183619Y17417D01*
X183630Y17400D01*
X183645Y17386D01*
X183685Y17341D01*
X185654Y15372D01*
X185693Y15342D01*
X185726Y15306D01*
X185818Y15245D01*
X185905Y15178D01*
X185951Y15158D01*
X185992Y15131D01*
X185995Y15130D01*
X186453Y14594D01*
X186467Y14581D01*
X186478Y14565D01*
X186594Y14453D01*
X187143Y13984D01*
X187160Y13954D01*
X187209Y13855D01*
X187241Y13817D01*
X187266Y13775D01*
X187372Y13654D01*
X189400Y11626D01*
X190445Y9102D01*
X190455Y9086D01*
X190461Y9067D01*
X190536Y8925D01*
X190703Y8652D01*
X190713Y8586D01*
X190734Y8431D01*
X190735Y8431D01*
X190735Y8430D01*
X190735Y8429D01*
X190786Y8279D01*
X191138Y7430D01*
X191220Y7286D01*
X191295Y7155D01*
X191296Y7154D01*
X191296Y7153D01*
X191344Y7104D01*
X191418Y6796D01*
X191424Y6778D01*
X191427Y6759D01*
X191479Y6607D01*
X192525Y4083D01*
X192525Y2024D01*
X192540Y1906D01*
X192547Y1787D01*
X192560Y1749D01*
X192565Y1708D01*
X192608Y1598D01*
X192645Y1485D01*
X192667Y1450D01*
X192682Y1413D01*
X192751Y1317D01*
X192815Y1216D01*
X192845Y1188D01*
X192868Y1155D01*
X192960Y1079D01*
X193047Y998D01*
X193082Y978D01*
X193113Y953D01*
X193221Y902D01*
X193325Y844D01*
X193365Y834D01*
X193401Y817D01*
X193518Y795D01*
X193633Y765D01*
X193693Y761D01*
X193713Y757D01*
X193734Y759D01*
X193794Y755D01*
X237120Y755D01*
X237008Y82D01*
X237009Y32D01*
X237001Y-17D01*
X237013Y-66D01*
X237015Y-117D01*
X237036Y-162D01*
X237047Y-210D01*
X237077Y-251D01*
X237099Y-297D01*
X237136Y-330D01*
X237165Y-370D01*
X237209Y-396D01*
X237246Y-430D01*
X237293Y-446D01*
X237336Y-472D01*
X237396Y-482D01*
X237434Y-495D01*
X237463Y-493D01*
X237500Y-499D01*
X258500Y-499D01*
X258578Y-483D01*
X258656Y-474D01*
X258674Y-464D01*
X258695Y-460D01*
X258760Y-415D01*
X258829Y-375D01*
X258844Y-357D01*
X258859Y-347D01*
X258883Y-309D01*
X258934Y-246D01*
X269434Y18254D01*
X269444Y18283D01*
X269450Y18293D01*
X269451Y18296D01*
X269465Y18319D01*
X269476Y18382D01*
X269496Y18443D01*
X269493Y18479D01*
X269499Y18515D01*
X269484Y18577D01*
X269479Y18641D01*
X269462Y18673D01*
X269454Y18708D01*
X269416Y18760D01*
X269386Y18817D01*
X269358Y18839D01*
X269337Y18869D01*
X269267Y18914D01*
X269232Y18942D01*
X269215Y18947D01*
X269197Y18959D01*
X268778Y19138D01*
X290665Y57050D01*
X290711Y57158D01*
X290764Y57263D01*
X290772Y57305D01*
X290789Y57343D01*
X290806Y57460D01*
X290831Y57574D01*
X290829Y57616D01*
X290835Y57658D01*
X290823Y57775D01*
X290818Y57892D01*
X290806Y57932D01*
X290802Y57974D01*
X290761Y58084D01*
X290728Y58197D01*
X290706Y58233D01*
X290691Y58272D01*
X290624Y58369D01*
X290564Y58470D01*
X290534Y58499D01*
X290510Y58534D01*
X290421Y58610D01*
X290337Y58693D01*
X290285Y58728D01*
X290269Y58742D01*
X290251Y58750D01*
X290204Y58782D01*
X288552Y59741D01*
X285065Y64310D01*
X285030Y64345D01*
X285002Y64385D01*
X284919Y64457D01*
X284841Y64536D01*
X284835Y64540D01*
X284785Y64658D01*
X284761Y64695D01*
X284754Y64710D01*
X284740Y64727D01*
X284696Y64792D01*
X283736Y66049D01*
X281701Y73720D01*
X282757Y81585D01*
X286741Y88448D01*
X287564Y89076D01*
X287659Y89170D01*
X287758Y89260D01*
X287772Y89281D01*
X287790Y89299D01*
X287860Y89414D01*
X287933Y89526D01*
X287941Y89550D01*
X287954Y89571D01*
X287993Y89700D01*
X288036Y89826D01*
X288038Y89852D01*
X288046Y89876D01*
X288051Y90010D01*
X288061Y90143D01*
X288057Y90168D01*
X288058Y90194D01*
X288030Y90325D01*
X288007Y90457D01*
X287997Y90480D01*
X287991Y90505D01*
X287931Y90625D01*
X287876Y90747D01*
X287861Y90767D01*
X287849Y90789D01*
X287761Y90891D01*
X287678Y90995D01*
X287658Y91010D01*
X287641Y91030D01*
X287531Y91106D01*
X287424Y91186D01*
X287392Y91202D01*
X287379Y91211D01*
X287359Y91218D01*
X287279Y91257D01*
X285674Y91922D01*
X284102Y93494D01*
X283251Y95548D01*
X283251Y97772D01*
X284102Y99826D01*
X285674Y101398D01*
X287728Y102249D01*
X289952Y102249D01*
X292006Y101398D01*
X293578Y99826D01*
X294429Y97772D01*
X294429Y96627D01*
X294441Y96529D01*
X294444Y96430D01*
X294461Y96371D01*
X294469Y96311D01*
X294505Y96220D01*
X294533Y96124D01*
X294563Y96072D01*
X294586Y96016D01*
X294644Y95936D01*
X294694Y95850D01*
X294760Y95775D01*
X294772Y95758D01*
X294782Y95751D01*
X294800Y95730D01*
X295865Y94665D01*
X295948Y94601D01*
X296024Y94530D01*
X296073Y94504D01*
X296117Y94470D01*
X296212Y94428D01*
X296304Y94379D01*
X296358Y94365D01*
X296409Y94343D01*
X296511Y94327D01*
X296612Y94302D01*
X296668Y94302D01*
X296723Y94293D01*
X296826Y94303D01*
X296930Y94304D01*
X297018Y94321D01*
X297039Y94323D01*
X297053Y94328D01*
X297088Y94335D01*
X297280Y94386D01*
X297367Y94421D01*
X297457Y94447D01*
X297514Y94481D01*
X297575Y94505D01*
X297601Y94525D01*
X297637Y94525D01*
X297721Y94535D01*
X297805Y94536D01*
X297944Y94563D01*
X297953Y94565D01*
X297956Y94566D01*
X297963Y94567D01*
X300720Y95299D01*
X308585Y94243D01*
X310146Y93337D01*
X310257Y93290D01*
X310365Y93236D01*
X310403Y93228D01*
X310439Y93213D01*
X310558Y93195D01*
X310676Y93170D01*
X310715Y93172D01*
X310753Y93166D01*
X310873Y93178D01*
X310994Y93183D01*
X311031Y93194D01*
X311070Y93198D01*
X311183Y93240D01*
X311298Y93275D01*
X311332Y93295D01*
X311368Y93308D01*
X311467Y93377D01*
X311571Y93439D01*
X311598Y93467D01*
X311630Y93489D01*
X311709Y93580D01*
X311793Y93666D01*
X311825Y93714D01*
X311838Y93729D01*
X311848Y93748D01*
X311883Y93800D01*
X334551Y133064D01*
X335210Y132594D01*
X335243Y132579D01*
X335271Y132556D01*
X335333Y132539D01*
X335391Y132513D01*
X335428Y132512D01*
X335462Y132502D01*
X335526Y132510D01*
X335590Y132509D01*
X335624Y132522D01*
X335660Y132527D01*
X335715Y132559D01*
X335775Y132583D01*
X335800Y132609D01*
X335832Y132627D01*
X335884Y132692D01*
X335916Y132723D01*
X335922Y132740D01*
X335936Y132756D01*
X345436Y149756D01*
X345445Y149784D01*
X345452Y149795D01*
X345456Y149818D01*
X345457Y149824D01*
X345487Y149888D01*
X345487Y149918D01*
X345496Y149946D01*
X345490Y150016D01*
X345492Y150087D01*
X345480Y150118D01*
X345478Y150144D01*
X345458Y150181D01*
X345436Y150244D01*
X335936Y167244D01*
X335918Y167265D01*
X335906Y167291D01*
X335853Y167340D01*
X335806Y167394D01*
X335781Y167407D01*
X335760Y167426D01*
X335693Y167451D01*
X335628Y167483D01*
X335600Y167484D01*
X335574Y167494D01*
X335501Y167490D01*
X335430Y167494D01*
X335403Y167485D01*
X335375Y167483D01*
X335281Y167442D01*
X335242Y167428D01*
X335235Y167421D01*
X335223Y167415D01*
X334538Y166959D01*
X311530Y206810D01*
X311461Y206901D01*
X311399Y206996D01*
X311366Y207027D01*
X311338Y207063D01*
X311249Y207134D01*
X311165Y207211D01*
X311125Y207232D01*
X311089Y207261D01*
X310985Y207307D01*
X310884Y207361D01*
X310840Y207371D01*
X310798Y207390D01*
X310686Y207409D01*
X310575Y207436D01*
X310530Y207435D01*
X310485Y207443D01*
X310371Y207434D01*
X310257Y207432D01*
X310213Y207420D01*
X310168Y207417D01*
X310060Y207379D01*
X309950Y207350D01*
X309888Y207319D01*
X309868Y207312D01*
X309852Y207302D01*
X309805Y207279D01*
X308164Y206349D01*
X305230Y205987D01*
X305210Y205982D01*
X305188Y205981D01*
X305155Y205971D01*
X305059Y205966D01*
X300558Y205410D01*
X298680Y205929D01*
X298590Y205942D01*
X298554Y205952D01*
X298547Y205955D01*
X298423Y205998D01*
X298412Y206003D01*
X298406Y206004D01*
X298395Y206008D01*
X293171Y207453D01*
X291949Y208406D01*
X291914Y208427D01*
X291883Y208454D01*
X291778Y208508D01*
X291676Y208569D01*
X291636Y208580D01*
X291600Y208599D01*
X291484Y208625D01*
X291371Y208658D01*
X291330Y208660D01*
X291289Y208669D01*
X291171Y208665D01*
X291053Y208669D01*
X291013Y208660D01*
X290971Y208659D01*
X290858Y208626D01*
X290743Y208601D01*
X290706Y208582D01*
X290666Y208571D01*
X290564Y208510D01*
X290459Y208457D01*
X290428Y208430D01*
X290392Y208409D01*
X290271Y208303D01*
X289466Y207498D01*
X289406Y207420D01*
X289338Y207348D01*
X289309Y207295D01*
X289272Y207247D01*
X289232Y207156D01*
X289184Y207069D01*
X289169Y207011D01*
X289145Y206955D01*
X289130Y206857D01*
X289105Y206761D01*
X289099Y206661D01*
X289095Y206641D01*
X289097Y206629D01*
X289095Y206601D01*
X289095Y205276D01*
X288244Y203222D01*
X286672Y201650D01*
X284618Y200799D01*
X282394Y200799D01*
X280340Y201650D01*
X278768Y203222D01*
X277917Y205276D01*
X277917Y207500D01*
X278768Y209554D01*
X280340Y211126D01*
X282394Y211977D01*
X283719Y211977D01*
X283817Y211989D01*
X283916Y211992D01*
X283974Y212009D01*
X284034Y212017D01*
X284126Y212053D01*
X284221Y212081D01*
X284274Y212111D01*
X284330Y212134D01*
X284410Y212192D01*
X284495Y212242D01*
X284570Y212308D01*
X284587Y212320D01*
X284595Y212330D01*
X284616Y212348D01*
X285471Y213203D01*
X285537Y213288D01*
X285609Y213367D01*
X285634Y213413D01*
X285666Y213455D01*
X285708Y213553D01*
X285759Y213648D01*
X285772Y213699D01*
X285792Y213746D01*
X285809Y213853D01*
X285835Y213957D01*
X285834Y214009D01*
X285842Y214061D01*
X285832Y214168D01*
X285831Y214275D01*
X285817Y214325D01*
X285812Y214377D01*
X285776Y214478D01*
X285748Y214582D01*
X285712Y214656D01*
X285705Y214676D01*
X285696Y214690D01*
X285678Y214727D01*
X283349Y218836D01*
X283057Y221200D01*
X283052Y221220D01*
X283051Y221241D01*
X283013Y221374D01*
X282979Y221508D01*
X282975Y221515D01*
X282975Y221786D01*
X282975Y221790D01*
X282966Y221941D01*
X282911Y222387D01*
X282906Y222404D01*
X282906Y222423D01*
X282871Y222580D01*
X282791Y222862D01*
X282795Y222894D01*
X282817Y223062D01*
X282817Y223063D01*
X282807Y223224D01*
X282410Y226442D01*
X282929Y228320D01*
X282942Y228410D01*
X282952Y228446D01*
X282955Y228453D01*
X282998Y228577D01*
X283003Y228588D01*
X283004Y228594D01*
X283008Y228605D01*
X283709Y231138D01*
X283715Y231182D01*
X283730Y231226D01*
X283737Y231241D01*
X283738Y231249D01*
X283744Y231265D01*
X284453Y233829D01*
X289168Y239872D01*
X290522Y240640D01*
X290621Y240714D01*
X290725Y240782D01*
X290748Y240809D01*
X290777Y240830D01*
X290855Y240926D01*
X290938Y241019D01*
X290954Y241050D01*
X290976Y241077D01*
X291028Y241190D01*
X291085Y241300D01*
X291093Y241335D01*
X291108Y241367D01*
X291130Y241489D01*
X291158Y241610D01*
X291158Y241645D01*
X291164Y241680D01*
X291154Y241804D01*
X291152Y241928D01*
X291143Y241962D01*
X291140Y241997D01*
X291100Y242114D01*
X291067Y242234D01*
X291044Y242281D01*
X291038Y242298D01*
X291026Y242316D01*
X290995Y242378D01*
X268216Y281835D01*
X268686Y282037D01*
X268697Y282041D01*
X268727Y282062D01*
X268762Y282075D01*
X268808Y282118D01*
X268860Y282154D01*
X268880Y282186D01*
X268907Y282211D01*
X268933Y282269D01*
X268967Y282322D01*
X268973Y282359D01*
X268988Y282393D01*
X268989Y282456D01*
X268999Y282518D01*
X268990Y282555D01*
X268991Y282592D01*
X268963Y282668D01*
X268952Y282712D01*
X268941Y282726D01*
X268933Y282748D01*
X258933Y300248D01*
X258882Y300307D01*
X258835Y300370D01*
X258817Y300381D01*
X258802Y300397D01*
X258731Y300432D01*
X258664Y300472D01*
X258641Y300476D01*
X258623Y300484D01*
X258578Y300486D01*
X258500Y300499D01*
X238500Y300499D01*
X238454Y300490D01*
X238408Y300491D01*
X238358Y300470D01*
X238305Y300460D01*
X238267Y300433D01*
X238224Y300416D01*
X238186Y300378D01*
X238141Y300347D01*
X238116Y300308D01*
X238083Y300275D01*
X238063Y300225D01*
X238034Y300180D01*
X238026Y300134D01*
X238009Y300090D01*
X238008Y300025D01*
X238001Y299983D01*
X238007Y299960D01*
X238006Y299953D01*
X238007Y299948D01*
X238007Y299924D01*
X238111Y299245D01*
X105896Y299245D01*
X105994Y299929D01*
X105992Y299970D01*
X105995Y299987D01*
X105994Y299988D01*
X105999Y300017D01*
X105986Y300071D01*
X105983Y300128D01*
X105963Y300167D01*
X105953Y300210D01*
X105919Y300255D01*
X105894Y300306D01*
X105861Y300335D01*
X105835Y300370D01*
X105787Y300399D01*
X105744Y300436D01*
X105702Y300449D01*
X105664Y300472D01*
X105596Y300483D01*
X105554Y300496D01*
X105530Y300494D01*
X105500Y300499D01*
X85500Y300499D01*
X85423Y300484D01*
X85345Y300475D01*
X85326Y300464D01*
X85305Y300460D01*
X85240Y300415D01*
X85172Y300376D01*
X85157Y300358D01*
X85141Y300347D01*
X85117Y300309D01*
X85067Y300248D01*
X75067Y282748D01*
X75053Y282707D01*
X75031Y282670D01*
X75022Y282613D01*
X75004Y282559D01*
X75008Y282516D01*
X75001Y282473D01*
X75016Y282418D01*
X75021Y282361D01*
X75041Y282323D01*
X75051Y282281D01*
X75086Y282235D01*
X75113Y282185D01*
X75146Y282157D01*
X75173Y282123D01*
X75233Y282086D01*
X75267Y282059D01*
X75289Y282052D01*
X75315Y282036D01*
X75791Y281846D01*
X53005Y242378D01*
X52956Y242264D01*
X52902Y242152D01*
X52895Y242118D01*
X52881Y242085D01*
X52863Y241962D01*
X52838Y241841D01*
X52840Y241806D01*
X52835Y241771D01*
X52848Y241647D01*
X52854Y241523D01*
X52864Y241490D01*
X52868Y241454D01*
X52911Y241338D01*
X52948Y241220D01*
X52966Y241189D01*
X52979Y241156D01*
X53050Y241054D01*
X53115Y240949D01*
X53140Y240924D01*
X53160Y240895D01*
X53254Y240814D01*
X53343Y240728D01*
X53386Y240699D01*
X53401Y240687D01*
X53420Y240678D01*
X53478Y240640D01*
X54832Y239872D01*
X57770Y236107D01*
X57773Y236104D01*
X57782Y236094D01*
X57793Y236077D01*
X58464Y235217D01*
X58511Y235171D01*
X58550Y235118D01*
X58586Y235089D01*
X58597Y235063D01*
X58639Y235003D01*
X58649Y234984D01*
X58661Y234970D01*
X58688Y234930D01*
X59547Y233829D01*
X61590Y226442D01*
X61252Y223705D01*
X61252Y223683D01*
X61247Y223661D01*
X61249Y223630D01*
X61232Y223539D01*
X61034Y221941D01*
X61034Y221936D01*
X61029Y221855D01*
X61013Y221770D01*
X60651Y218836D01*
X58190Y214493D01*
X58157Y214412D01*
X58114Y214336D01*
X58096Y214265D01*
X58069Y214198D01*
X58038Y214159D01*
X57975Y214094D01*
X57909Y213992D01*
X57899Y213979D01*
X57896Y213972D01*
X57887Y213959D01*
X56872Y212168D01*
X54086Y209994D01*
X54081Y209988D01*
X54074Y209984D01*
X53968Y209875D01*
X53862Y209769D01*
X53858Y209762D01*
X53852Y209756D01*
X53827Y209712D01*
X53524Y209539D01*
X53516Y209533D01*
X53506Y209528D01*
X53373Y209437D01*
X53111Y209233D01*
X53107Y209230D01*
X53104Y209227D01*
X52990Y209127D01*
X52732Y208868D01*
X52606Y208818D01*
X52589Y208806D01*
X52569Y208798D01*
X52436Y208707D01*
X50829Y207453D01*
X49742Y207152D01*
X49643Y207111D01*
X49541Y207078D01*
X49496Y207050D01*
X49448Y207030D01*
X49362Y206965D01*
X49272Y206908D01*
X49236Y206870D01*
X49194Y206838D01*
X49127Y206754D01*
X49054Y206676D01*
X49029Y206630D01*
X48996Y206589D01*
X48952Y206491D01*
X48900Y206398D01*
X48887Y206347D01*
X48866Y206299D01*
X48848Y206193D01*
X48821Y206090D01*
X48816Y206007D01*
X48812Y205986D01*
X48813Y205970D01*
X48811Y205929D01*
X48811Y205419D01*
X48823Y205320D01*
X48826Y205221D01*
X48843Y205163D01*
X48851Y205103D01*
X48887Y205011D01*
X48915Y204916D01*
X48945Y204864D01*
X48968Y204807D01*
X49026Y204727D01*
X49076Y204642D01*
X49142Y204567D01*
X49154Y204550D01*
X49164Y204542D01*
X49182Y204521D01*
X49738Y203966D01*
X50589Y201912D01*
X50589Y199688D01*
X49738Y197634D01*
X48166Y196062D01*
X46112Y195211D01*
X43888Y195211D01*
X41834Y196062D01*
X40262Y197634D01*
X39411Y199688D01*
X39411Y201912D01*
X40298Y204053D01*
X40307Y204084D01*
X40321Y204113D01*
X40349Y204237D01*
X40382Y204359D01*
X40383Y204392D01*
X40390Y204424D01*
X40385Y204551D01*
X40387Y204677D01*
X40379Y204709D01*
X40378Y204741D01*
X40343Y204863D01*
X40313Y204987D01*
X40298Y205015D01*
X40289Y205046D01*
X40224Y205155D01*
X40164Y205268D01*
X40142Y205292D01*
X40126Y205320D01*
X40036Y205409D01*
X39950Y205503D01*
X39923Y205521D01*
X39900Y205544D01*
X39791Y205608D01*
X39685Y205678D01*
X39654Y205688D01*
X39626Y205705D01*
X39474Y205759D01*
X38887Y205926D01*
X38792Y205941D01*
X38699Y205965D01*
X38592Y205972D01*
X38573Y205975D01*
X38562Y205974D01*
X38539Y205975D01*
X38092Y205975D01*
X38083Y205981D01*
X37955Y206032D01*
X37828Y206087D01*
X37807Y206090D01*
X37787Y206098D01*
X37629Y206128D01*
X35836Y206349D01*
X34369Y207180D01*
X34304Y207207D01*
X34243Y207243D01*
X34092Y207297D01*
X33893Y207353D01*
X33772Y207372D01*
X33652Y207398D01*
X33615Y207396D01*
X33579Y207402D01*
X33457Y207390D01*
X33334Y207385D01*
X33299Y207374D01*
X33262Y207370D01*
X33147Y207328D01*
X33029Y207293D01*
X32998Y207274D01*
X32964Y207261D01*
X32863Y207192D01*
X32757Y207129D01*
X32731Y207102D01*
X32701Y207082D01*
X32621Y206989D01*
X32534Y206902D01*
X32505Y206857D01*
X32492Y206842D01*
X32482Y206823D01*
X32445Y206768D01*
X9419Y166884D01*
X8820Y167384D01*
X8772Y167409D01*
X8729Y167444D01*
X8685Y167456D01*
X8645Y167478D01*
X8590Y167483D01*
X8538Y167498D01*
X8492Y167492D01*
X8447Y167496D01*
X8395Y167480D01*
X8340Y167473D01*
X8301Y167450D01*
X8257Y167436D01*
X8216Y167401D01*
X8168Y167373D01*
X8135Y167331D01*
X8106Y167307D01*
X8092Y167278D01*
X8064Y167244D01*
X-1436Y150244D01*
X-1457Y150176D01*
X-1487Y150112D01*
X-1487Y150082D01*
X-1496Y150054D01*
X-1490Y149984D01*
X-1492Y149913D01*
X-1480Y149882D01*
X-1478Y149856D01*
X-1458Y149819D01*
X-1436Y149756D01*
X8064Y132756D01*
X8094Y132721D01*
X8116Y132681D01*
X8158Y132647D01*
X8194Y132606D01*
X8235Y132585D01*
X8271Y132556D01*
X8323Y132542D01*
X8372Y132517D01*
X8418Y132515D01*
X8463Y132502D01*
X8516Y132509D01*
X8571Y132506D01*
X8614Y132521D01*
X8660Y132527D01*
X8718Y132558D01*
X8758Y132572D01*
X8777Y132590D01*
X8807Y132606D01*
X9433Y133093D01*
X32117Y93800D01*
X32190Y93704D01*
X32257Y93604D01*
X32286Y93578D01*
X32310Y93547D01*
X32404Y93472D01*
X32494Y93391D01*
X32528Y93373D01*
X32559Y93349D01*
X32669Y93300D01*
X32776Y93245D01*
X32814Y93236D01*
X32849Y93220D01*
X32969Y93200D01*
X33086Y93172D01*
X33125Y93173D01*
X33163Y93167D01*
X33284Y93177D01*
X33404Y93179D01*
X33441Y93190D01*
X33480Y93193D01*
X33594Y93233D01*
X33710Y93265D01*
X33761Y93291D01*
X33780Y93298D01*
X33798Y93309D01*
X33854Y93337D01*
X35415Y94243D01*
X43280Y95299D01*
X50951Y93264D01*
X52988Y91709D01*
X53101Y91643D01*
X53212Y91572D01*
X53238Y91563D01*
X53263Y91549D01*
X53389Y91513D01*
X53445Y91495D01*
X53555Y91369D01*
X53578Y91349D01*
X53596Y91325D01*
X53696Y91243D01*
X53793Y91157D01*
X53820Y91144D01*
X53843Y91125D01*
X53985Y91049D01*
X54124Y90986D01*
X54146Y90937D01*
X54173Y90902D01*
X54194Y90863D01*
X54271Y90778D01*
X54342Y90687D01*
X54393Y90643D01*
X54407Y90628D01*
X54423Y90617D01*
X54464Y90582D01*
X57259Y88448D01*
X61243Y81585D01*
X62311Y73631D01*
X62319Y73598D01*
X62322Y73563D01*
X62360Y73444D01*
X62392Y73324D01*
X62409Y73294D01*
X62420Y73261D01*
X62486Y73155D01*
X62547Y73046D01*
X62571Y73021D01*
X62590Y72992D01*
X62681Y72906D01*
X62767Y72816D01*
X62796Y72798D01*
X62821Y72774D01*
X62931Y72714D01*
X63036Y72648D01*
X63070Y72637D01*
X63100Y72620D01*
X63221Y72589D01*
X63340Y72552D01*
X63374Y72550D01*
X63408Y72541D01*
X63569Y72531D01*
X65781Y72531D01*
X65880Y72543D01*
X65979Y72546D01*
X66037Y72563D01*
X66097Y72571D01*
X66189Y72607D01*
X66284Y72635D01*
X66336Y72665D01*
X66393Y72688D01*
X66473Y72746D01*
X66558Y72796D01*
X66633Y72862D01*
X66650Y72874D01*
X66658Y72884D01*
X66679Y72902D01*
X67234Y73458D01*
X69288Y74309D01*
X71512Y74309D01*
X73566Y73458D01*
X75138Y71886D01*
X75989Y69832D01*
X75989Y67608D01*
X75138Y65554D01*
X73566Y63982D01*
X71512Y63131D01*
X69288Y63131D01*
X67234Y63982D01*
X66679Y64538D01*
X66601Y64598D01*
X66528Y64666D01*
X66475Y64695D01*
X66428Y64732D01*
X66337Y64772D01*
X66250Y64820D01*
X66191Y64835D01*
X66136Y64859D01*
X66038Y64874D01*
X65942Y64899D01*
X65842Y64905D01*
X65822Y64909D01*
X65809Y64907D01*
X65781Y64909D01*
X60021Y64909D01*
X59997Y64906D01*
X59973Y64908D01*
X59840Y64886D01*
X59706Y64869D01*
X59683Y64860D01*
X59659Y64856D01*
X59535Y64802D01*
X59410Y64752D01*
X59390Y64738D01*
X59368Y64728D01*
X59262Y64645D01*
X59153Y64566D01*
X59137Y64547D01*
X59118Y64532D01*
X59012Y64410D01*
X58785Y64113D01*
X58778Y64100D01*
X58768Y64090D01*
X58698Y63962D01*
X58625Y63838D01*
X58621Y63824D01*
X58614Y63811D01*
X58594Y63730D01*
X58310Y63446D01*
X58234Y63349D01*
X58153Y63256D01*
X58126Y63210D01*
X58115Y63195D01*
X58106Y63175D01*
X58072Y63116D01*
X57918Y62809D01*
X57895Y62799D01*
X57879Y62786D01*
X57860Y62777D01*
X57754Y62688D01*
X57645Y62602D01*
X57626Y62581D01*
X57617Y62573D01*
X57605Y62556D01*
X57539Y62481D01*
X55448Y59741D01*
X53796Y58782D01*
X53703Y58711D01*
X53605Y58646D01*
X53577Y58615D01*
X53544Y58590D01*
X53471Y58497D01*
X53392Y58410D01*
X53373Y58373D01*
X53347Y58340D01*
X53299Y58232D01*
X53245Y58128D01*
X53235Y58088D01*
X53218Y58049D01*
X53198Y57933D01*
X53172Y57819D01*
X53172Y57777D01*
X53165Y57735D01*
X53176Y57618D01*
X53178Y57501D01*
X53189Y57460D01*
X53193Y57419D01*
X53232Y57308D01*
X53263Y57194D01*
X53291Y57138D01*
X53298Y57118D01*
X53309Y57102D01*
X53335Y57050D01*
X75128Y19302D01*
X74308Y18961D01*
X74272Y18936D01*
X74231Y18920D01*
X74190Y18881D01*
X74143Y18849D01*
X74120Y18813D01*
X74088Y18782D01*
X74066Y18730D01*
X74035Y18682D01*
X74028Y18639D01*
X74011Y18599D01*
X74011Y18542D01*
X74001Y18487D01*
X74011Y18444D01*
X74011Y18400D01*
X74036Y18335D01*
X74046Y18293D01*
X74060Y18274D01*
X74063Y18266D01*
X74064Y18262D01*
X74065Y18261D01*
X74071Y18245D01*
X85071Y-255D01*
X85121Y-310D01*
X85165Y-370D01*
X85187Y-383D01*
X85205Y-402D01*
X85272Y-434D01*
X85336Y-472D01*
X85365Y-476D01*
X85385Y-486D01*
X85429Y-487D01*
X85500Y-499D01*
X106500Y-499D01*
X106508Y-498D01*
G37*
%LPC*%
G36*
X123344Y123837D02*
X123344Y123837D01*
X113913Y133269D01*
X113819Y133342D01*
X113730Y133420D01*
X113694Y133439D01*
X113662Y133463D01*
X113552Y133511D01*
X113447Y133565D01*
X113407Y133574D01*
X113370Y133590D01*
X113252Y133608D01*
X113136Y133635D01*
X113096Y133633D01*
X113056Y133640D01*
X112937Y133628D01*
X112818Y133625D01*
X112780Y133614D01*
X112739Y133610D01*
X112627Y133570D01*
X112513Y133536D01*
X112478Y133516D01*
X112440Y133502D01*
X112342Y133435D01*
X112239Y133375D01*
X112194Y133335D01*
X112177Y133324D01*
X112163Y133308D01*
X112118Y133268D01*
X111412Y132562D01*
X109358Y131711D01*
X107134Y131711D01*
X105080Y132562D01*
X103508Y134134D01*
X102657Y136188D01*
X102657Y138411D01*
X102645Y138509D01*
X102642Y138608D01*
X102625Y138666D01*
X102617Y138726D01*
X102581Y138818D01*
X102553Y138913D01*
X102523Y138966D01*
X102500Y139022D01*
X102442Y139102D01*
X102392Y139187D01*
X102326Y139263D01*
X102314Y139279D01*
X102304Y139287D01*
X102286Y139308D01*
X100019Y141574D01*
X100019Y145853D01*
X100007Y145951D01*
X100004Y146050D01*
X99987Y146108D01*
X99979Y146168D01*
X99943Y146260D01*
X99915Y146355D01*
X99885Y146408D01*
X99862Y146464D01*
X99804Y146544D01*
X99754Y146629D01*
X99688Y146705D01*
X99676Y146721D01*
X99666Y146729D01*
X99647Y146750D01*
X99039Y147358D01*
X99039Y158622D01*
X99932Y159515D01*
X105250Y159515D01*
X105368Y159530D01*
X105487Y159537D01*
X105525Y159550D01*
X105566Y159555D01*
X105676Y159598D01*
X105789Y159635D01*
X105824Y159657D01*
X105861Y159672D01*
X105957Y159741D01*
X106058Y159805D01*
X106086Y159835D01*
X106119Y159858D01*
X106195Y159950D01*
X106276Y160037D01*
X106296Y160072D01*
X106321Y160103D01*
X106372Y160211D01*
X106430Y160315D01*
X106440Y160355D01*
X106457Y160391D01*
X106479Y160508D01*
X106509Y160623D01*
X106513Y160683D01*
X106517Y160703D01*
X106515Y160724D01*
X106519Y160784D01*
X106519Y161116D01*
X108476Y163073D01*
X108561Y163182D01*
X108650Y163289D01*
X108659Y163308D01*
X108671Y163324D01*
X108727Y163452D01*
X108786Y163577D01*
X108789Y163597D01*
X108797Y163616D01*
X108819Y163754D01*
X108845Y163890D01*
X108844Y163910D01*
X108847Y163930D01*
X108834Y164069D01*
X108826Y164207D01*
X108819Y164226D01*
X108818Y164246D01*
X108770Y164378D01*
X108728Y164509D01*
X108717Y164527D01*
X108710Y164546D01*
X108632Y164661D01*
X108557Y164778D01*
X108543Y164792D01*
X108531Y164809D01*
X108427Y164901D01*
X108326Y164996D01*
X108308Y165006D01*
X108293Y165019D01*
X108169Y165083D01*
X108047Y165150D01*
X108028Y165155D01*
X108010Y165164D01*
X107874Y165194D01*
X107739Y165229D01*
X107711Y165231D01*
X107699Y165234D01*
X107679Y165233D01*
X107579Y165239D01*
X104294Y165239D01*
X100019Y169514D01*
X100019Y170353D01*
X100007Y170451D01*
X100004Y170550D01*
X99987Y170608D01*
X99979Y170668D01*
X99943Y170760D01*
X99915Y170855D01*
X99885Y170908D01*
X99862Y170964D01*
X99804Y171044D01*
X99754Y171129D01*
X99688Y171205D01*
X99676Y171221D01*
X99666Y171229D01*
X99647Y171250D01*
X99039Y171858D01*
X99039Y183122D01*
X99932Y184015D01*
X105696Y184015D01*
X106589Y183122D01*
X106589Y172098D01*
X106604Y171980D01*
X106611Y171861D01*
X106624Y171823D01*
X106629Y171782D01*
X106672Y171672D01*
X106709Y171559D01*
X106731Y171524D01*
X106746Y171487D01*
X106815Y171391D01*
X106879Y171290D01*
X106909Y171262D01*
X106932Y171229D01*
X107024Y171153D01*
X107111Y171072D01*
X107146Y171052D01*
X107177Y171027D01*
X107285Y170976D01*
X107389Y170918D01*
X107429Y170908D01*
X107465Y170891D01*
X107582Y170869D01*
X107697Y170839D01*
X107757Y170835D01*
X107777Y170831D01*
X107798Y170833D01*
X107858Y170829D01*
X110770Y170829D01*
X110888Y170844D01*
X111007Y170851D01*
X111045Y170864D01*
X111086Y170869D01*
X111196Y170912D01*
X111309Y170949D01*
X111344Y170971D01*
X111381Y170986D01*
X111477Y171055D01*
X111578Y171119D01*
X111606Y171149D01*
X111639Y171172D01*
X111715Y171264D01*
X111796Y171351D01*
X111816Y171386D01*
X111841Y171417D01*
X111892Y171525D01*
X111950Y171629D01*
X111960Y171669D01*
X111977Y171705D01*
X111999Y171822D01*
X112029Y171937D01*
X112033Y171997D01*
X112037Y172017D01*
X112036Y172022D01*
X112037Y172023D01*
X112036Y172041D01*
X112039Y172098D01*
X112039Y183129D01*
X112073Y183173D01*
X112141Y183245D01*
X112170Y183298D01*
X112207Y183346D01*
X112247Y183437D01*
X112295Y183524D01*
X112310Y183582D01*
X112334Y183638D01*
X112349Y183736D01*
X112374Y183832D01*
X112380Y183932D01*
X112384Y183952D01*
X112382Y183964D01*
X112384Y183992D01*
X112384Y192244D01*
X112369Y192362D01*
X112362Y192481D01*
X112349Y192519D01*
X112344Y192560D01*
X112301Y192670D01*
X112264Y192783D01*
X112242Y192818D01*
X112227Y192855D01*
X112158Y192951D01*
X112094Y193052D01*
X112064Y193080D01*
X112041Y193113D01*
X111949Y193189D01*
X111862Y193270D01*
X111827Y193290D01*
X111796Y193315D01*
X111688Y193366D01*
X111584Y193424D01*
X111544Y193434D01*
X111508Y193451D01*
X111391Y193473D01*
X111276Y193503D01*
X111216Y193507D01*
X111196Y193511D01*
X111175Y193509D01*
X111115Y193513D01*
X107058Y193513D01*
X106165Y194406D01*
X106165Y205670D01*
X107263Y206767D01*
X107293Y206789D01*
X107394Y206853D01*
X107422Y206883D01*
X107455Y206906D01*
X107531Y206998D01*
X107612Y207085D01*
X107632Y207120D01*
X107657Y207151D01*
X107708Y207259D01*
X107766Y207363D01*
X107776Y207403D01*
X107793Y207439D01*
X107815Y207556D01*
X107845Y207671D01*
X107849Y207731D01*
X107853Y207751D01*
X107851Y207772D01*
X107855Y207832D01*
X107855Y210647D01*
X107843Y210745D01*
X107840Y210844D01*
X107823Y210902D01*
X107815Y210962D01*
X107779Y211054D01*
X107751Y211149D01*
X107721Y211201D01*
X107698Y211258D01*
X107640Y211338D01*
X107590Y211423D01*
X107524Y211499D01*
X107512Y211515D01*
X107502Y211523D01*
X107484Y211544D01*
X104094Y214934D01*
X104087Y214939D01*
X104081Y214947D01*
X103994Y215012D01*
X103991Y215015D01*
X103988Y215016D01*
X103962Y215036D01*
X103843Y215129D01*
X103834Y215132D01*
X103827Y215138D01*
X103682Y215209D01*
X103302Y215366D01*
X101730Y216938D01*
X100879Y218992D01*
X100879Y221216D01*
X101730Y223270D01*
X103302Y224842D01*
X105356Y225693D01*
X107580Y225693D01*
X109634Y224842D01*
X111206Y223270D01*
X111363Y222890D01*
X111368Y222882D01*
X111370Y222873D01*
X111446Y222744D01*
X111521Y222614D01*
X111527Y222607D01*
X111532Y222599D01*
X111638Y222478D01*
X116033Y218083D01*
X117713Y216404D01*
X118525Y214443D01*
X118525Y207832D01*
X118540Y207714D01*
X118547Y207595D01*
X118560Y207557D01*
X118565Y207516D01*
X118608Y207406D01*
X118645Y207293D01*
X118667Y207258D01*
X118682Y207221D01*
X118751Y207125D01*
X118815Y207024D01*
X118845Y206996D01*
X118868Y206963D01*
X118960Y206887D01*
X119047Y206806D01*
X119082Y206786D01*
X119113Y206761D01*
X119133Y206751D01*
X120215Y205670D01*
X120215Y194406D01*
X119616Y193807D01*
X119555Y193729D01*
X119487Y193657D01*
X119458Y193604D01*
X119421Y193556D01*
X119381Y193465D01*
X119333Y193378D01*
X119318Y193320D01*
X119294Y193264D01*
X119279Y193166D01*
X119254Y193070D01*
X119248Y192970D01*
X119244Y192950D01*
X119246Y192938D01*
X119244Y192910D01*
X119244Y189858D01*
X119260Y189726D01*
X119266Y189636D01*
X119270Y189623D01*
X119274Y189582D01*
X119281Y189563D01*
X119284Y189543D01*
X119335Y189414D01*
X119382Y189283D01*
X119393Y189266D01*
X119401Y189247D01*
X119482Y189135D01*
X119560Y189020D01*
X119576Y189006D01*
X119587Y188990D01*
X119695Y188901D01*
X119799Y188809D01*
X119817Y188800D01*
X119832Y188787D01*
X119958Y188728D01*
X120082Y188664D01*
X120102Y188660D01*
X120120Y188651D01*
X120256Y188625D01*
X120392Y188595D01*
X120413Y188595D01*
X120432Y188592D01*
X120571Y188600D01*
X120710Y188604D01*
X120730Y188610D01*
X120750Y188611D01*
X120882Y188654D01*
X121016Y188693D01*
X121033Y188703D01*
X121052Y188709D01*
X121124Y188755D01*
X121139Y188761D01*
X121175Y188787D01*
X121290Y188854D01*
X121311Y188873D01*
X121321Y188880D01*
X121335Y188895D01*
X121391Y188944D01*
X121396Y188947D01*
X121399Y188950D01*
X121410Y188961D01*
X123876Y191426D01*
X123936Y191504D01*
X124004Y191576D01*
X124033Y191629D01*
X124070Y191677D01*
X124110Y191768D01*
X124158Y191855D01*
X124173Y191913D01*
X124197Y191969D01*
X124212Y192067D01*
X124237Y192163D01*
X124243Y192263D01*
X124247Y192283D01*
X124245Y192295D01*
X124247Y192323D01*
X124247Y197894D01*
X143888Y217534D01*
X143931Y217589D01*
X143981Y217638D01*
X144028Y217714D01*
X144083Y217785D01*
X144110Y217849D01*
X144147Y217909D01*
X144173Y217995D01*
X144209Y218077D01*
X144220Y218146D01*
X144241Y218213D01*
X144245Y218302D01*
X144259Y218391D01*
X144252Y218461D01*
X144256Y218531D01*
X144238Y218618D01*
X144229Y218708D01*
X144205Y218774D01*
X144191Y218842D01*
X144152Y218923D01*
X144122Y219007D01*
X144082Y219065D01*
X144052Y219128D01*
X143993Y219196D01*
X143943Y219270D01*
X143891Y219317D01*
X143845Y219370D01*
X143772Y219421D01*
X143704Y219481D01*
X143642Y219513D01*
X143585Y219553D01*
X143501Y219585D01*
X143421Y219625D01*
X143353Y219641D01*
X143288Y219666D01*
X143199Y219675D01*
X143111Y219695D01*
X143041Y219693D01*
X142972Y219701D01*
X142883Y219688D01*
X142793Y219685D01*
X142726Y219666D01*
X142657Y219656D01*
X142505Y219604D01*
X141870Y219341D01*
X139646Y219341D01*
X137592Y220192D01*
X136020Y221764D01*
X135169Y223818D01*
X135169Y224963D01*
X135157Y225061D01*
X135154Y225160D01*
X135137Y225218D01*
X135129Y225279D01*
X135093Y225371D01*
X135065Y225466D01*
X135035Y225518D01*
X135012Y225574D01*
X134954Y225654D01*
X134904Y225740D01*
X134838Y225815D01*
X134826Y225832D01*
X134816Y225839D01*
X134798Y225861D01*
X127465Y233194D01*
X127386Y233254D01*
X127314Y233322D01*
X127261Y233351D01*
X127213Y233388D01*
X127122Y233428D01*
X127036Y233476D01*
X126977Y233491D01*
X126921Y233515D01*
X126823Y233530D01*
X126728Y233555D01*
X126628Y233561D01*
X126607Y233565D01*
X126595Y233563D01*
X126567Y233565D01*
X102879Y233565D01*
X102781Y233553D01*
X102682Y233550D01*
X102624Y233533D01*
X102563Y233525D01*
X102471Y233489D01*
X102376Y233461D01*
X102324Y233431D01*
X102268Y233408D01*
X102188Y233350D01*
X102102Y233300D01*
X102027Y233234D01*
X102010Y233222D01*
X102003Y233212D01*
X101981Y233194D01*
X92362Y223575D01*
X92302Y223496D01*
X92234Y223424D01*
X92205Y223371D01*
X92168Y223323D01*
X92128Y223232D01*
X92080Y223146D01*
X92065Y223087D01*
X92041Y223031D01*
X92026Y222933D01*
X92001Y222838D01*
X91995Y222738D01*
X91991Y222717D01*
X91993Y222705D01*
X91991Y222677D01*
X91991Y216853D01*
X87028Y211891D01*
X86968Y211812D01*
X86900Y211740D01*
X86871Y211687D01*
X86834Y211639D01*
X86794Y211548D01*
X86746Y211462D01*
X86731Y211403D01*
X86707Y211347D01*
X86692Y211249D01*
X86667Y211154D01*
X86661Y211054D01*
X86657Y211033D01*
X86659Y211021D01*
X86657Y210993D01*
X86657Y209848D01*
X85806Y207794D01*
X84234Y206222D01*
X82180Y205371D01*
X81035Y205371D01*
X80937Y205359D01*
X80838Y205356D01*
X80780Y205339D01*
X80719Y205331D01*
X80627Y205295D01*
X80532Y205267D01*
X80480Y205237D01*
X80424Y205214D01*
X80344Y205156D01*
X80258Y205106D01*
X80183Y205040D01*
X80166Y205028D01*
X80159Y205018D01*
X80137Y205000D01*
X80042Y204904D01*
X79982Y204826D01*
X79914Y204754D01*
X79885Y204701D01*
X79848Y204653D01*
X79808Y204562D01*
X79760Y204476D01*
X79745Y204417D01*
X79721Y204361D01*
X79706Y204263D01*
X79681Y204168D01*
X79675Y204068D01*
X79671Y204047D01*
X79672Y204035D01*
X79671Y204007D01*
X79671Y196633D01*
X77313Y194275D01*
X62979Y194275D01*
X60621Y196633D01*
X60621Y204967D01*
X62979Y207325D01*
X71877Y207325D01*
X71975Y207337D01*
X72074Y207340D01*
X72132Y207357D01*
X72193Y207365D01*
X72285Y207401D01*
X72380Y207429D01*
X72432Y207459D01*
X72488Y207482D01*
X72568Y207540D01*
X72654Y207590D01*
X72729Y207656D01*
X72746Y207668D01*
X72753Y207678D01*
X72774Y207696D01*
X75108Y210029D01*
X75168Y210108D01*
X75236Y210180D01*
X75265Y210233D01*
X75302Y210281D01*
X75342Y210372D01*
X75390Y210458D01*
X75405Y210517D01*
X75429Y210573D01*
X75444Y210671D01*
X75469Y210766D01*
X75475Y210866D01*
X75479Y210887D01*
X75477Y210899D01*
X75479Y210927D01*
X75479Y212072D01*
X76330Y214126D01*
X77902Y215698D01*
X79956Y216549D01*
X81101Y216549D01*
X81199Y216561D01*
X81298Y216564D01*
X81356Y216581D01*
X81417Y216589D01*
X81509Y216625D01*
X81604Y216653D01*
X81656Y216683D01*
X81712Y216706D01*
X81792Y216764D01*
X81878Y216814D01*
X81953Y216880D01*
X81970Y216892D01*
X81977Y216902D01*
X81999Y216920D01*
X84506Y219427D01*
X84566Y219506D01*
X84634Y219578D01*
X84663Y219631D01*
X84700Y219679D01*
X84740Y219770D01*
X84788Y219856D01*
X84803Y219915D01*
X84809Y219930D01*
X84815Y219942D01*
X84815Y219944D01*
X84827Y219971D01*
X84842Y220069D01*
X84867Y220164D01*
X84872Y220239D01*
X84875Y220254D01*
X84874Y220267D01*
X84877Y220285D01*
X84875Y220297D01*
X84877Y220325D01*
X84877Y226149D01*
X99407Y240679D01*
X130039Y240679D01*
X139827Y230890D01*
X139906Y230830D01*
X139978Y230762D01*
X140031Y230733D01*
X140079Y230696D01*
X140170Y230656D01*
X140256Y230608D01*
X140315Y230593D01*
X140371Y230569D01*
X140469Y230554D01*
X140564Y230529D01*
X140664Y230523D01*
X140685Y230519D01*
X140697Y230521D01*
X140725Y230519D01*
X141870Y230519D01*
X143924Y229668D01*
X145496Y228096D01*
X146347Y226042D01*
X146347Y223818D01*
X145496Y221764D01*
X144987Y221256D01*
X144902Y221146D01*
X144813Y221039D01*
X144805Y221020D01*
X144792Y221004D01*
X144737Y220876D01*
X144678Y220751D01*
X144674Y220731D01*
X144666Y220712D01*
X144644Y220574D01*
X144618Y220438D01*
X144619Y220418D01*
X144616Y220398D01*
X144629Y220259D01*
X144638Y220121D01*
X144644Y220102D01*
X144646Y220082D01*
X144693Y219951D01*
X144736Y219819D01*
X144747Y219801D01*
X144753Y219782D01*
X144831Y219668D01*
X144906Y219550D01*
X144921Y219536D01*
X144932Y219519D01*
X145036Y219427D01*
X145137Y219332D01*
X145155Y219322D01*
X145170Y219309D01*
X145294Y219246D01*
X145416Y219178D01*
X145436Y219173D01*
X145454Y219164D01*
X145590Y219134D01*
X145724Y219099D01*
X145752Y219097D01*
X145764Y219094D01*
X145784Y219095D01*
X145885Y219089D01*
X148839Y219089D01*
X148938Y219101D01*
X149037Y219104D01*
X149095Y219121D01*
X149155Y219129D01*
X149247Y219165D01*
X149342Y219193D01*
X149394Y219223D01*
X149451Y219246D01*
X149531Y219304D01*
X149616Y219354D01*
X149691Y219420D01*
X149708Y219432D01*
X149716Y219442D01*
X149737Y219460D01*
X151308Y221032D01*
X153362Y221883D01*
X155586Y221883D01*
X157640Y221032D01*
X159212Y219460D01*
X160063Y217406D01*
X160063Y215182D01*
X159212Y213128D01*
X157640Y211556D01*
X155586Y210705D01*
X153362Y210705D01*
X151308Y211556D01*
X149737Y213128D01*
X149659Y213188D01*
X149586Y213256D01*
X149533Y213285D01*
X149486Y213322D01*
X149395Y213362D01*
X149308Y213410D01*
X149249Y213425D01*
X149194Y213449D01*
X149096Y213464D01*
X149000Y213489D01*
X148900Y213495D01*
X148880Y213499D01*
X148867Y213497D01*
X148839Y213499D01*
X148283Y213499D01*
X148185Y213487D01*
X148086Y213484D01*
X148028Y213467D01*
X147968Y213459D01*
X147876Y213423D01*
X147781Y213395D01*
X147728Y213365D01*
X147672Y213342D01*
X147592Y213284D01*
X147507Y213234D01*
X147431Y213168D01*
X147415Y213156D01*
X147407Y213146D01*
X147386Y213128D01*
X130208Y195950D01*
X130148Y195872D01*
X130080Y195800D01*
X130051Y195747D01*
X130014Y195699D01*
X129974Y195608D01*
X129926Y195521D01*
X129911Y195463D01*
X129887Y195407D01*
X129872Y195309D01*
X129847Y195213D01*
X129841Y195113D01*
X129837Y195093D01*
X129839Y195081D01*
X129837Y195053D01*
X129837Y189482D01*
X127828Y187474D01*
X125680Y185325D01*
X125607Y185231D01*
X125528Y185142D01*
X125510Y185106D01*
X125485Y185074D01*
X125437Y184965D01*
X125383Y184859D01*
X125375Y184820D01*
X125359Y184782D01*
X125340Y184665D01*
X125314Y184549D01*
X125315Y184508D01*
X125309Y184468D01*
X125320Y184350D01*
X125323Y184231D01*
X125335Y184192D01*
X125338Y184152D01*
X125379Y184040D01*
X125412Y183925D01*
X125432Y183890D01*
X125446Y183852D01*
X125513Y183754D01*
X125573Y183651D01*
X125613Y183606D01*
X125625Y183589D01*
X125640Y183576D01*
X125680Y183530D01*
X126089Y183122D01*
X126089Y172098D01*
X126104Y171980D01*
X126111Y171861D01*
X126124Y171823D01*
X126129Y171782D01*
X126172Y171672D01*
X126209Y171559D01*
X126231Y171524D01*
X126246Y171487D01*
X126315Y171391D01*
X126379Y171290D01*
X126409Y171262D01*
X126432Y171229D01*
X126524Y171153D01*
X126611Y171072D01*
X126646Y171052D01*
X126677Y171027D01*
X126785Y170976D01*
X126889Y170918D01*
X126929Y170908D01*
X126965Y170891D01*
X127082Y170869D01*
X127197Y170839D01*
X127257Y170835D01*
X127277Y170831D01*
X127298Y170833D01*
X127358Y170829D01*
X129423Y170829D01*
X129521Y170841D01*
X129620Y170844D01*
X129678Y170861D01*
X129738Y170869D01*
X129830Y170905D01*
X129925Y170933D01*
X129978Y170963D01*
X130034Y170986D01*
X130114Y171044D01*
X130199Y171094D01*
X130275Y171160D01*
X130291Y171172D01*
X130294Y171176D01*
X130297Y171178D01*
X130303Y171185D01*
X130320Y171200D01*
X145212Y186092D01*
X145272Y186170D01*
X145340Y186242D01*
X145369Y186295D01*
X145406Y186343D01*
X145446Y186434D01*
X145494Y186521D01*
X145509Y186579D01*
X145533Y186635D01*
X145548Y186733D01*
X145573Y186829D01*
X145579Y186929D01*
X145583Y186949D01*
X145581Y186961D01*
X145583Y186989D01*
X145583Y190020D01*
X158420Y202856D01*
X158480Y202934D01*
X158548Y203006D01*
X158577Y203059D01*
X158614Y203107D01*
X158654Y203198D01*
X158702Y203285D01*
X158717Y203343D01*
X158741Y203399D01*
X158756Y203497D01*
X158781Y203593D01*
X158787Y203693D01*
X158791Y203713D01*
X158789Y203725D01*
X158791Y203753D01*
X158791Y205976D01*
X159642Y208030D01*
X161214Y209602D01*
X163268Y210453D01*
X165492Y210453D01*
X167546Y209602D01*
X169118Y208030D01*
X169969Y205976D01*
X169969Y203752D01*
X169118Y201698D01*
X167546Y200126D01*
X165492Y199275D01*
X163269Y199275D01*
X163171Y199263D01*
X163072Y199260D01*
X163014Y199243D01*
X162954Y199235D01*
X162862Y199199D01*
X162767Y199171D01*
X162714Y199141D01*
X162658Y199118D01*
X162578Y199060D01*
X162493Y199010D01*
X162417Y198944D01*
X162401Y198932D01*
X162393Y198922D01*
X162372Y198904D01*
X151544Y188076D01*
X151484Y187998D01*
X151416Y187926D01*
X151387Y187873D01*
X151350Y187825D01*
X151310Y187734D01*
X151262Y187647D01*
X151247Y187589D01*
X151223Y187533D01*
X151208Y187435D01*
X151183Y187339D01*
X151177Y187239D01*
X151173Y187219D01*
X151175Y187207D01*
X151173Y187179D01*
X151173Y184148D01*
X149164Y182140D01*
X134432Y167407D01*
X134347Y167298D01*
X134258Y167191D01*
X134249Y167172D01*
X134237Y167156D01*
X134181Y167028D01*
X134122Y166903D01*
X134119Y166883D01*
X134111Y166864D01*
X134089Y166726D01*
X134063Y166590D01*
X134064Y166570D01*
X134061Y166550D01*
X134074Y166411D01*
X134082Y166273D01*
X134089Y166254D01*
X134090Y166234D01*
X134138Y166102D01*
X134180Y165971D01*
X134191Y165953D01*
X134198Y165934D01*
X134276Y165819D01*
X134351Y165702D01*
X134365Y165688D01*
X134377Y165671D01*
X134481Y165579D01*
X134582Y165484D01*
X134600Y165474D01*
X134615Y165461D01*
X134739Y165397D01*
X134861Y165330D01*
X134880Y165325D01*
X134898Y165316D01*
X135034Y165286D01*
X135169Y165251D01*
X135197Y165249D01*
X135209Y165246D01*
X135229Y165247D01*
X135329Y165241D01*
X146187Y165241D01*
X146285Y165253D01*
X146384Y165256D01*
X146442Y165273D01*
X146502Y165281D01*
X146594Y165317D01*
X146689Y165345D01*
X146742Y165375D01*
X146798Y165398D01*
X146878Y165456D01*
X146963Y165506D01*
X147039Y165572D01*
X147055Y165584D01*
X147063Y165594D01*
X147084Y165612D01*
X151054Y169582D01*
X151114Y169660D01*
X151182Y169732D01*
X151211Y169785D01*
X151248Y169833D01*
X151288Y169924D01*
X151336Y170011D01*
X151351Y170069D01*
X151375Y170125D01*
X151390Y170223D01*
X151415Y170319D01*
X151421Y170419D01*
X151425Y170439D01*
X151423Y170451D01*
X151425Y170479D01*
X151425Y178082D01*
X172136Y198792D01*
X172196Y198870D01*
X172264Y198942D01*
X172293Y198995D01*
X172330Y199043D01*
X172370Y199134D01*
X172418Y199221D01*
X172433Y199279D01*
X172457Y199335D01*
X172472Y199433D01*
X172497Y199529D01*
X172503Y199629D01*
X172507Y199649D01*
X172505Y199661D01*
X172507Y199689D01*
X172507Y213713D01*
X172495Y213811D01*
X172492Y213910D01*
X172475Y213968D01*
X172467Y214028D01*
X172431Y214120D01*
X172403Y214215D01*
X172373Y214268D01*
X172350Y214324D01*
X172292Y214404D01*
X172242Y214489D01*
X172176Y214565D01*
X172164Y214581D01*
X172154Y214589D01*
X172136Y214610D01*
X171872Y214873D01*
X171872Y224803D01*
X171857Y224921D01*
X171850Y225040D01*
X171837Y225078D01*
X171832Y225119D01*
X171789Y225229D01*
X171752Y225342D01*
X171730Y225377D01*
X171715Y225414D01*
X171646Y225510D01*
X171582Y225611D01*
X171552Y225639D01*
X171529Y225672D01*
X171437Y225748D01*
X171350Y225829D01*
X171315Y225849D01*
X171284Y225874D01*
X171176Y225925D01*
X171072Y225983D01*
X171032Y225993D01*
X170996Y226010D01*
X170879Y226032D01*
X170764Y226062D01*
X170704Y226066D01*
X170684Y226070D01*
X170663Y226068D01*
X170603Y226072D01*
X170307Y226072D01*
X156123Y240256D01*
X156029Y240329D01*
X155940Y240408D01*
X155904Y240426D01*
X155872Y240451D01*
X155763Y240499D01*
X155657Y240553D01*
X155617Y240562D01*
X155580Y240578D01*
X155462Y240596D01*
X155346Y240622D01*
X155306Y240621D01*
X155266Y240627D01*
X155147Y240616D01*
X155029Y240613D01*
X154990Y240601D01*
X154949Y240598D01*
X154837Y240557D01*
X154723Y240524D01*
X154688Y240504D01*
X154650Y240490D01*
X154552Y240423D01*
X154449Y240363D01*
X154404Y240323D01*
X154387Y240311D01*
X154373Y240296D01*
X154328Y240256D01*
X153528Y239456D01*
X148374Y237321D01*
X142794Y237321D01*
X137640Y239456D01*
X133694Y243402D01*
X131559Y248556D01*
X131559Y254136D01*
X133694Y259290D01*
X137640Y263236D01*
X142794Y265371D01*
X148374Y265371D01*
X153528Y263236D01*
X157474Y259290D01*
X159609Y254136D01*
X159609Y250589D01*
X159621Y250491D01*
X159624Y250392D01*
X159641Y250334D01*
X159649Y250274D01*
X159685Y250182D01*
X159713Y250087D01*
X159743Y250035D01*
X159766Y249978D01*
X159824Y249898D01*
X159874Y249813D01*
X159940Y249737D01*
X159952Y249721D01*
X159962Y249713D01*
X159980Y249692D01*
X176954Y232719D01*
X176954Y231448D01*
X176966Y231350D01*
X176969Y231251D01*
X176986Y231193D01*
X176994Y231133D01*
X177030Y231041D01*
X177058Y230946D01*
X177088Y230893D01*
X177111Y230837D01*
X177169Y230757D01*
X177219Y230672D01*
X177285Y230596D01*
X177297Y230580D01*
X177307Y230572D01*
X177325Y230551D01*
X178732Y229145D01*
X178732Y214802D01*
X178749Y214665D01*
X178762Y214526D01*
X178769Y214507D01*
X178772Y214487D01*
X178823Y214358D01*
X178870Y214227D01*
X178881Y214210D01*
X178889Y214191D01*
X178970Y214078D01*
X179048Y213964D01*
X179064Y213950D01*
X179075Y213934D01*
X179183Y213845D01*
X179287Y213753D01*
X179305Y213744D01*
X179320Y213731D01*
X179446Y213672D01*
X179570Y213608D01*
X179590Y213604D01*
X179608Y213595D01*
X179744Y213569D01*
X179880Y213539D01*
X179901Y213539D01*
X179920Y213536D01*
X180059Y213544D01*
X180198Y213548D01*
X180218Y213554D01*
X180238Y213555D01*
X180370Y213598D01*
X180504Y213637D01*
X180521Y213647D01*
X180540Y213653D01*
X180658Y213728D01*
X180778Y213798D01*
X180799Y213817D01*
X180809Y213824D01*
X180823Y213838D01*
X180898Y213905D01*
X186741Y219747D01*
X186801Y219825D01*
X186869Y219897D01*
X186898Y219950D01*
X186935Y219998D01*
X186975Y220089D01*
X187023Y220176D01*
X187038Y220234D01*
X187062Y220290D01*
X187077Y220388D01*
X187102Y220484D01*
X187108Y220584D01*
X187112Y220604D01*
X187110Y220616D01*
X187112Y220644D01*
X187112Y222813D01*
X191313Y227013D01*
X191373Y227091D01*
X191441Y227163D01*
X191470Y227216D01*
X191507Y227264D01*
X191547Y227355D01*
X191595Y227442D01*
X191610Y227500D01*
X191634Y227556D01*
X191649Y227654D01*
X191674Y227750D01*
X191680Y227850D01*
X191684Y227870D01*
X191682Y227882D01*
X191684Y227910D01*
X191684Y236052D01*
X191669Y236170D01*
X191662Y236289D01*
X191649Y236327D01*
X191644Y236368D01*
X191601Y236478D01*
X191564Y236591D01*
X191542Y236626D01*
X191527Y236663D01*
X191458Y236759D01*
X191394Y236860D01*
X191364Y236888D01*
X191341Y236921D01*
X191249Y236997D01*
X191162Y237078D01*
X191127Y237098D01*
X191096Y237123D01*
X190988Y237174D01*
X190884Y237232D01*
X190844Y237242D01*
X190808Y237259D01*
X190691Y237281D01*
X190576Y237311D01*
X190516Y237315D01*
X190496Y237319D01*
X190475Y237317D01*
X190415Y237321D01*
X183252Y237321D01*
X182359Y238214D01*
X182359Y264478D01*
X183252Y265371D01*
X209516Y265371D01*
X210409Y264478D01*
X210409Y238214D01*
X209516Y237321D01*
X202353Y237321D01*
X202235Y237306D01*
X202116Y237299D01*
X202078Y237286D01*
X202037Y237281D01*
X201927Y237238D01*
X201814Y237201D01*
X201779Y237179D01*
X201742Y237164D01*
X201646Y237095D01*
X201545Y237031D01*
X201517Y237001D01*
X201484Y236978D01*
X201408Y236886D01*
X201327Y236799D01*
X201307Y236764D01*
X201282Y236733D01*
X201231Y236625D01*
X201173Y236521D01*
X201163Y236481D01*
X201146Y236445D01*
X201124Y236328D01*
X201094Y236213D01*
X201090Y236153D01*
X201086Y236133D01*
X201088Y236112D01*
X201084Y236052D01*
X201084Y223491D01*
X193759Y216166D01*
X191590Y216166D01*
X191492Y216154D01*
X191393Y216151D01*
X191335Y216134D01*
X191275Y216126D01*
X191183Y216090D01*
X191088Y216062D01*
X191035Y216032D01*
X190979Y216009D01*
X190899Y215951D01*
X190814Y215901D01*
X190738Y215835D01*
X190722Y215823D01*
X190714Y215813D01*
X190693Y215795D01*
X184818Y209920D01*
X184758Y209842D01*
X184690Y209770D01*
X184661Y209717D01*
X184624Y209669D01*
X184584Y209578D01*
X184536Y209491D01*
X184521Y209433D01*
X184497Y209377D01*
X184482Y209279D01*
X184457Y209183D01*
X184451Y209083D01*
X184447Y209063D01*
X184449Y209051D01*
X184447Y209023D01*
X184447Y194816D01*
X170246Y180615D01*
X170161Y180506D01*
X170072Y180399D01*
X170063Y180380D01*
X170051Y180364D01*
X169995Y180236D01*
X169936Y180111D01*
X169933Y180091D01*
X169925Y180072D01*
X169903Y179934D01*
X169877Y179798D01*
X169878Y179778D01*
X169875Y179758D01*
X169888Y179619D01*
X169896Y179481D01*
X169903Y179462D01*
X169904Y179442D01*
X169952Y179310D01*
X169994Y179179D01*
X170005Y179161D01*
X170012Y179142D01*
X170090Y179027D01*
X170165Y178910D01*
X170179Y178896D01*
X170191Y178879D01*
X170295Y178787D01*
X170396Y178692D01*
X170414Y178682D01*
X170429Y178669D01*
X170553Y178605D01*
X170675Y178538D01*
X170694Y178533D01*
X170712Y178524D01*
X170848Y178494D01*
X170983Y178459D01*
X171011Y178457D01*
X171023Y178454D01*
X171043Y178455D01*
X171143Y178449D01*
X173112Y178449D01*
X175166Y177598D01*
X176738Y176026D01*
X177589Y173972D01*
X177589Y171748D01*
X176669Y169529D01*
X176667Y169520D01*
X176662Y169512D01*
X176625Y169366D01*
X176585Y169222D01*
X176585Y169213D01*
X176583Y169204D01*
X176573Y169043D01*
X176573Y165247D01*
X176574Y165238D01*
X176573Y165229D01*
X176594Y165080D01*
X176613Y164931D01*
X176616Y164923D01*
X176617Y164914D01*
X176669Y164761D01*
X177589Y162542D01*
X177589Y160318D01*
X176738Y158264D01*
X175086Y156612D01*
X175013Y156518D01*
X174934Y156429D01*
X174916Y156393D01*
X174891Y156361D01*
X174844Y156252D01*
X174790Y156146D01*
X174781Y156107D01*
X174765Y156069D01*
X174746Y155952D01*
X174720Y155836D01*
X174721Y155795D01*
X174715Y155755D01*
X174726Y155637D01*
X174730Y155518D01*
X174741Y155479D01*
X174745Y155439D01*
X174785Y155327D01*
X174818Y155212D01*
X174839Y155177D01*
X174852Y155139D01*
X174919Y155041D01*
X174980Y154938D01*
X175020Y154893D01*
X175031Y154876D01*
X175046Y154863D01*
X175086Y154817D01*
X176738Y153166D01*
X177589Y151112D01*
X177589Y148888D01*
X176669Y146669D01*
X176667Y146660D01*
X176662Y146652D01*
X176625Y146506D01*
X176585Y146362D01*
X176585Y146353D01*
X176583Y146344D01*
X176573Y146183D01*
X176573Y142387D01*
X176574Y142378D01*
X176573Y142369D01*
X176594Y142220D01*
X176613Y142071D01*
X176616Y142063D01*
X176617Y142054D01*
X176669Y141901D01*
X177103Y140854D01*
X177172Y140733D01*
X177237Y140611D01*
X177250Y140596D01*
X177261Y140578D01*
X177357Y140478D01*
X177451Y140375D01*
X177468Y140364D01*
X177482Y140350D01*
X177600Y140277D01*
X177717Y140201D01*
X177736Y140194D01*
X177753Y140183D01*
X177886Y140142D01*
X178017Y140097D01*
X178037Y140096D01*
X178057Y140090D01*
X178196Y140083D01*
X178334Y140072D01*
X178354Y140076D01*
X178375Y140075D01*
X178511Y140103D01*
X178648Y140127D01*
X178666Y140135D01*
X178686Y140139D01*
X178811Y140200D01*
X178938Y140257D01*
X178954Y140270D01*
X178972Y140279D01*
X179077Y140369D01*
X179186Y140456D01*
X179198Y140472D01*
X179214Y140485D01*
X179294Y140599D01*
X179377Y140710D01*
X179390Y140735D01*
X179397Y140745D01*
X179404Y140764D01*
X179448Y140854D01*
X179708Y141482D01*
X181280Y143054D01*
X183334Y143905D01*
X185558Y143905D01*
X187777Y142985D01*
X187786Y142983D01*
X187794Y142978D01*
X187940Y142941D01*
X188084Y142901D01*
X188093Y142901D01*
X188102Y142899D01*
X188263Y142889D01*
X190789Y142889D01*
X190798Y142890D01*
X190807Y142889D01*
X190956Y142910D01*
X191105Y142929D01*
X191113Y142932D01*
X191122Y142933D01*
X191275Y142985D01*
X193494Y143905D01*
X195718Y143905D01*
X197772Y143054D01*
X199344Y141482D01*
X200195Y139428D01*
X200195Y137204D01*
X199344Y135150D01*
X197772Y133578D01*
X195718Y132727D01*
X193494Y132727D01*
X191275Y133647D01*
X191266Y133649D01*
X191258Y133654D01*
X191112Y133691D01*
X190968Y133731D01*
X190959Y133731D01*
X190950Y133733D01*
X190789Y133743D01*
X188263Y133743D01*
X188254Y133742D01*
X188245Y133743D01*
X188096Y133722D01*
X187947Y133703D01*
X187939Y133700D01*
X187930Y133699D01*
X187777Y133647D01*
X185558Y132727D01*
X183334Y132727D01*
X181280Y133578D01*
X179708Y135150D01*
X179343Y136032D01*
X179274Y136153D01*
X179209Y136275D01*
X179196Y136290D01*
X179185Y136308D01*
X179089Y136408D01*
X178995Y136511D01*
X178978Y136522D01*
X178964Y136536D01*
X178846Y136609D01*
X178729Y136685D01*
X178710Y136692D01*
X178693Y136703D01*
X178560Y136744D01*
X178429Y136789D01*
X178409Y136790D01*
X178389Y136796D01*
X178250Y136803D01*
X178112Y136814D01*
X178092Y136810D01*
X178071Y136811D01*
X177935Y136783D01*
X177798Y136759D01*
X177780Y136751D01*
X177760Y136747D01*
X177635Y136686D01*
X177508Y136629D01*
X177492Y136616D01*
X177474Y136607D01*
X177369Y136517D01*
X177260Y136430D01*
X177248Y136414D01*
X177232Y136401D01*
X177152Y136287D01*
X177069Y136176D01*
X177056Y136151D01*
X177049Y136141D01*
X177042Y136122D01*
X176998Y136032D01*
X176738Y135404D01*
X175166Y133832D01*
X173112Y132981D01*
X170888Y132981D01*
X168834Y133832D01*
X167262Y135404D01*
X166875Y136338D01*
X166806Y136459D01*
X166741Y136582D01*
X166728Y136597D01*
X166718Y136614D01*
X166621Y136714D01*
X166527Y136817D01*
X166510Y136828D01*
X166496Y136843D01*
X166378Y136916D01*
X166262Y136992D01*
X166243Y136999D01*
X166225Y137009D01*
X166092Y137050D01*
X165961Y137095D01*
X165941Y137097D01*
X165921Y137103D01*
X165783Y137109D01*
X165644Y137120D01*
X165624Y137117D01*
X165604Y137118D01*
X165467Y137090D01*
X165331Y137066D01*
X165312Y137058D01*
X165292Y137054D01*
X165167Y136992D01*
X165041Y136935D01*
X165025Y136923D01*
X165007Y136914D01*
X164901Y136824D01*
X164792Y136737D01*
X164780Y136721D01*
X164765Y136708D01*
X164685Y136594D01*
X164601Y136483D01*
X164589Y136458D01*
X164581Y136448D01*
X164574Y136428D01*
X164530Y136338D01*
X164038Y135150D01*
X162466Y133578D01*
X160412Y132727D01*
X158188Y132727D01*
X155969Y133647D01*
X155960Y133649D01*
X155952Y133654D01*
X155806Y133691D01*
X155662Y133731D01*
X155653Y133731D01*
X155644Y133733D01*
X155483Y133743D01*
X152957Y133743D01*
X152948Y133742D01*
X152939Y133743D01*
X152790Y133722D01*
X152641Y133703D01*
X152633Y133700D01*
X152624Y133699D01*
X152471Y133647D01*
X150252Y132727D01*
X148028Y132727D01*
X145974Y133578D01*
X144402Y135150D01*
X143551Y137204D01*
X143551Y139428D01*
X144402Y141482D01*
X145974Y143054D01*
X148028Y143905D01*
X150252Y143905D01*
X152471Y142985D01*
X152480Y142983D01*
X152488Y142978D01*
X152634Y142941D01*
X152778Y142901D01*
X152787Y142901D01*
X152796Y142899D01*
X152957Y142889D01*
X155483Y142889D01*
X155492Y142890D01*
X155501Y142889D01*
X155650Y142910D01*
X155799Y142929D01*
X155807Y142932D01*
X155816Y142933D01*
X155969Y142985D01*
X158188Y143905D01*
X160412Y143905D01*
X162466Y143054D01*
X164038Y141482D01*
X164425Y140548D01*
X164494Y140427D01*
X164559Y140304D01*
X164572Y140289D01*
X164582Y140272D01*
X164679Y140172D01*
X164773Y140069D01*
X164790Y140058D01*
X164804Y140043D01*
X164922Y139970D01*
X165038Y139894D01*
X165057Y139887D01*
X165075Y139877D01*
X165208Y139836D01*
X165339Y139791D01*
X165359Y139789D01*
X165379Y139783D01*
X165517Y139777D01*
X165656Y139766D01*
X165676Y139769D01*
X165696Y139768D01*
X165833Y139796D01*
X165969Y139820D01*
X165988Y139828D01*
X166008Y139832D01*
X166133Y139894D01*
X166259Y139951D01*
X166275Y139963D01*
X166293Y139972D01*
X166399Y140062D01*
X166508Y140149D01*
X166520Y140165D01*
X166535Y140178D01*
X166615Y140292D01*
X166699Y140403D01*
X166711Y140428D01*
X166719Y140438D01*
X166726Y140458D01*
X166770Y140548D01*
X167331Y141901D01*
X167333Y141910D01*
X167338Y141918D01*
X167375Y142064D01*
X167415Y142208D01*
X167415Y142217D01*
X167417Y142226D01*
X167427Y142387D01*
X167427Y146183D01*
X167426Y146192D01*
X167427Y146201D01*
X167406Y146350D01*
X167387Y146499D01*
X167384Y146507D01*
X167383Y146516D01*
X167331Y146669D01*
X166411Y148888D01*
X166411Y151112D01*
X167262Y153166D01*
X168914Y154817D01*
X168987Y154912D01*
X169066Y155001D01*
X169084Y155037D01*
X169109Y155069D01*
X169156Y155178D01*
X169210Y155284D01*
X169219Y155323D01*
X169235Y155361D01*
X169254Y155478D01*
X169280Y155594D01*
X169279Y155635D01*
X169285Y155675D01*
X169274Y155793D01*
X169270Y155912D01*
X169259Y155951D01*
X169255Y155991D01*
X169215Y156104D01*
X169182Y156218D01*
X169161Y156252D01*
X169148Y156291D01*
X169081Y156389D01*
X169020Y156492D01*
X168980Y156537D01*
X168969Y156554D01*
X168954Y156567D01*
X168914Y156612D01*
X167262Y158264D01*
X166411Y160318D01*
X166411Y162542D01*
X167331Y164761D01*
X167333Y164770D01*
X167338Y164778D01*
X167375Y164924D01*
X167415Y165068D01*
X167415Y165077D01*
X167417Y165086D01*
X167427Y165247D01*
X167427Y169043D01*
X167426Y169052D01*
X167427Y169061D01*
X167406Y169210D01*
X167387Y169359D01*
X167384Y169367D01*
X167383Y169376D01*
X167331Y169529D01*
X166411Y171748D01*
X166411Y173717D01*
X166394Y173855D01*
X166381Y173993D01*
X166374Y174012D01*
X166371Y174032D01*
X166320Y174161D01*
X166273Y174292D01*
X166262Y174309D01*
X166254Y174328D01*
X166173Y174440D01*
X166095Y174556D01*
X166079Y174569D01*
X166068Y174585D01*
X165960Y174674D01*
X165856Y174766D01*
X165838Y174775D01*
X165823Y174788D01*
X165697Y174847D01*
X165573Y174911D01*
X165553Y174915D01*
X165535Y174924D01*
X165398Y174950D01*
X165263Y174980D01*
X165242Y174980D01*
X165223Y174983D01*
X165084Y174975D01*
X164945Y174971D01*
X164925Y174965D01*
X164905Y174964D01*
X164773Y174921D01*
X164639Y174882D01*
X164622Y174872D01*
X164603Y174866D01*
X164485Y174791D01*
X164365Y174721D01*
X164344Y174702D01*
X164334Y174695D01*
X164320Y174681D01*
X164244Y174614D01*
X163990Y174360D01*
X163930Y174282D01*
X163862Y174210D01*
X163833Y174157D01*
X163796Y174109D01*
X163756Y174018D01*
X163708Y173931D01*
X163693Y173873D01*
X163669Y173817D01*
X163654Y173719D01*
X163629Y173623D01*
X163623Y173523D01*
X163619Y173503D01*
X163621Y173491D01*
X163619Y173463D01*
X163619Y156970D01*
X155124Y148475D01*
X144727Y148475D01*
X144629Y148463D01*
X144530Y148460D01*
X144472Y148443D01*
X144412Y148435D01*
X144320Y148399D01*
X144225Y148371D01*
X144172Y148341D01*
X144116Y148318D01*
X144036Y148260D01*
X143951Y148210D01*
X143875Y148144D01*
X143859Y148132D01*
X143851Y148122D01*
X143830Y148104D01*
X140622Y144896D01*
X140562Y144818D01*
X140494Y144746D01*
X140465Y144693D01*
X140428Y144645D01*
X140388Y144554D01*
X140340Y144467D01*
X140325Y144409D01*
X140301Y144353D01*
X140286Y144255D01*
X140261Y144159D01*
X140255Y144059D01*
X140251Y144039D01*
X140253Y144027D01*
X140251Y143999D01*
X140251Y128522D01*
X135566Y123837D01*
X123344Y123837D01*
G37*
%LPD*%
%LPC*%
G36*
X244040Y41287D02*
X244040Y41287D01*
X241986Y42138D01*
X240414Y43710D01*
X240257Y44090D01*
X240252Y44098D01*
X240250Y44107D01*
X240173Y44236D01*
X240099Y44366D01*
X240093Y44373D01*
X240088Y44381D01*
X239982Y44502D01*
X229090Y55394D01*
X229012Y55454D01*
X228940Y55522D01*
X228887Y55551D01*
X228839Y55588D01*
X228748Y55628D01*
X228661Y55676D01*
X228603Y55691D01*
X228547Y55715D01*
X228449Y55730D01*
X228353Y55755D01*
X228253Y55761D01*
X228233Y55765D01*
X228221Y55763D01*
X228193Y55765D01*
X146037Y55765D01*
X146028Y55764D01*
X146019Y55765D01*
X145870Y55744D01*
X145722Y55725D01*
X145713Y55722D01*
X145704Y55721D01*
X145552Y55669D01*
X145172Y55511D01*
X142948Y55511D01*
X140729Y56431D01*
X140720Y56433D01*
X140712Y56438D01*
X140566Y56475D01*
X140422Y56515D01*
X140413Y56515D01*
X140404Y56517D01*
X140243Y56527D01*
X129466Y56527D01*
X114725Y71269D01*
X114646Y71329D01*
X114574Y71397D01*
X114521Y71426D01*
X114473Y71463D01*
X114382Y71503D01*
X114296Y71551D01*
X114237Y71566D01*
X114182Y71590D01*
X114084Y71605D01*
X113988Y71630D01*
X113888Y71636D01*
X113867Y71640D01*
X113855Y71638D01*
X113827Y71640D01*
X90043Y71640D01*
X86919Y74765D01*
X68444Y93240D01*
X68366Y93300D01*
X68294Y93368D01*
X68241Y93397D01*
X68193Y93434D01*
X68102Y93474D01*
X68015Y93522D01*
X67957Y93537D01*
X67901Y93561D01*
X67803Y93576D01*
X67707Y93601D01*
X67607Y93607D01*
X67587Y93611D01*
X67575Y93609D01*
X67547Y93611D01*
X67510Y93611D01*
X65456Y94462D01*
X63884Y96034D01*
X63033Y98088D01*
X63033Y98125D01*
X63021Y98223D01*
X63018Y98322D01*
X63001Y98380D01*
X62993Y98440D01*
X62957Y98532D01*
X62929Y98627D01*
X62899Y98679D01*
X62876Y98736D01*
X62818Y98816D01*
X62768Y98901D01*
X62702Y98977D01*
X62690Y98993D01*
X62680Y99001D01*
X62662Y99022D01*
X54601Y107083D01*
X54523Y107143D01*
X54451Y107211D01*
X54398Y107240D01*
X54350Y107277D01*
X54259Y107317D01*
X54172Y107365D01*
X54114Y107380D01*
X54058Y107404D01*
X53960Y107419D01*
X53864Y107444D01*
X53764Y107450D01*
X53744Y107454D01*
X53732Y107452D01*
X53704Y107454D01*
X51116Y107454D01*
X51018Y107442D01*
X50919Y107439D01*
X50861Y107422D01*
X50801Y107414D01*
X50709Y107378D01*
X50614Y107350D01*
X50561Y107320D01*
X50505Y107297D01*
X50425Y107239D01*
X50340Y107189D01*
X50264Y107123D01*
X50248Y107111D01*
X50240Y107101D01*
X50219Y107082D01*
X49632Y106495D01*
X40368Y106495D01*
X39475Y107388D01*
X39475Y116652D01*
X40368Y117545D01*
X49632Y117545D01*
X49951Y117226D01*
X50029Y117165D01*
X50101Y117097D01*
X50154Y117068D01*
X50202Y117031D01*
X50293Y116991D01*
X50380Y116943D01*
X50438Y116928D01*
X50494Y116904D01*
X50592Y116889D01*
X50688Y116864D01*
X50788Y116858D01*
X50808Y116854D01*
X50820Y116856D01*
X50848Y116854D01*
X58123Y116854D01*
X61247Y113729D01*
X70330Y104646D01*
X70338Y104640D01*
X70343Y104633D01*
X70463Y104543D01*
X70582Y104451D01*
X70590Y104448D01*
X70597Y104442D01*
X70742Y104371D01*
X71788Y103938D01*
X73360Y102366D01*
X73793Y101320D01*
X73798Y101312D01*
X73800Y101303D01*
X73876Y101174D01*
X73951Y101044D01*
X73957Y101037D01*
X73962Y101029D01*
X74068Y100908D01*
X74201Y100775D01*
X93565Y81411D01*
X93643Y81351D01*
X93715Y81283D01*
X93768Y81254D01*
X93816Y81217D01*
X93907Y81177D01*
X93994Y81129D01*
X94052Y81114D01*
X94108Y81090D01*
X94206Y81075D01*
X94302Y81050D01*
X94402Y81044D01*
X94422Y81040D01*
X94434Y81042D01*
X94462Y81040D01*
X118067Y81040D01*
X120902Y78204D01*
X120924Y78130D01*
X120954Y78078D01*
X120977Y78022D01*
X121035Y77942D01*
X121085Y77856D01*
X121151Y77781D01*
X121163Y77764D01*
X121173Y77756D01*
X121191Y77735D01*
X132882Y66044D01*
X132961Y65984D01*
X133033Y65916D01*
X133086Y65887D01*
X133134Y65850D01*
X133225Y65810D01*
X133311Y65762D01*
X133370Y65747D01*
X133425Y65723D01*
X133523Y65708D01*
X133619Y65683D01*
X133719Y65677D01*
X133740Y65673D01*
X133752Y65675D01*
X133780Y65673D01*
X140243Y65673D01*
X140252Y65674D01*
X140261Y65673D01*
X140410Y65694D01*
X140559Y65713D01*
X140567Y65716D01*
X140576Y65717D01*
X140729Y65769D01*
X142948Y66689D01*
X145172Y66689D01*
X145552Y66531D01*
X145561Y66529D01*
X145569Y66524D01*
X145714Y66487D01*
X145858Y66447D01*
X145868Y66447D01*
X145877Y66445D01*
X146037Y66435D01*
X231989Y66435D01*
X233950Y65623D01*
X247526Y52046D01*
X247533Y52041D01*
X247539Y52033D01*
X247659Y51943D01*
X247777Y51851D01*
X247786Y51848D01*
X247793Y51842D01*
X247938Y51771D01*
X248318Y51614D01*
X249890Y50042D01*
X250741Y47988D01*
X250741Y45764D01*
X249890Y43710D01*
X248318Y42138D01*
X246264Y41287D01*
X244040Y41287D01*
G37*
%LPD*%
%LPC*%
G36*
X301952Y107581D02*
X301952Y107581D01*
X299865Y108446D01*
X299827Y108481D01*
X299774Y108510D01*
X299727Y108547D01*
X299636Y108587D01*
X299549Y108635D01*
X299490Y108650D01*
X299435Y108674D01*
X299337Y108689D01*
X299241Y108714D01*
X299141Y108720D01*
X299121Y108724D01*
X299108Y108722D01*
X299080Y108724D01*
X274193Y108724D01*
X250866Y132051D01*
X250866Y153116D01*
X250854Y153214D01*
X250851Y153313D01*
X250834Y153371D01*
X250826Y153431D01*
X250790Y153523D01*
X250762Y153618D01*
X250732Y153670D01*
X250709Y153727D01*
X250651Y153807D01*
X250601Y153892D01*
X250535Y153968D01*
X250523Y153984D01*
X250513Y153992D01*
X250495Y154013D01*
X235880Y168627D01*
X235880Y204910D01*
X235879Y204919D01*
X235880Y204928D01*
X235859Y205077D01*
X235840Y205225D01*
X235837Y205234D01*
X235836Y205243D01*
X235784Y205395D01*
X234991Y207308D01*
X234991Y209532D01*
X235842Y211586D01*
X237414Y213158D01*
X239468Y214009D01*
X241692Y214009D01*
X243746Y213158D01*
X245318Y211586D01*
X246169Y209532D01*
X246169Y207308D01*
X245376Y205395D01*
X245374Y205386D01*
X245369Y205378D01*
X245332Y205232D01*
X245292Y205089D01*
X245292Y205079D01*
X245290Y205070D01*
X245280Y204910D01*
X245280Y173046D01*
X245292Y172948D01*
X245295Y172849D01*
X245312Y172791D01*
X245320Y172731D01*
X245356Y172639D01*
X245384Y172544D01*
X245414Y172492D01*
X245437Y172435D01*
X245495Y172355D01*
X245545Y172270D01*
X245611Y172194D01*
X245623Y172178D01*
X245633Y172170D01*
X245651Y172149D01*
X255617Y162183D01*
X255695Y162123D01*
X255767Y162055D01*
X255820Y162026D01*
X255868Y161989D01*
X255959Y161949D01*
X256046Y161901D01*
X256104Y161886D01*
X256160Y161862D01*
X256258Y161847D01*
X256354Y161822D01*
X256454Y161816D01*
X256474Y161812D01*
X256486Y161814D01*
X256514Y161812D01*
X284822Y161812D01*
X284831Y161813D01*
X284840Y161812D01*
X284989Y161833D01*
X285137Y161852D01*
X285146Y161855D01*
X285155Y161856D01*
X285307Y161908D01*
X287220Y162701D01*
X289444Y162701D01*
X290583Y162229D01*
X290717Y162192D01*
X290850Y162151D01*
X290870Y162150D01*
X290890Y162145D01*
X291029Y162143D01*
X291167Y162136D01*
X291187Y162140D01*
X291208Y162140D01*
X291343Y162172D01*
X291479Y162200D01*
X291497Y162209D01*
X291517Y162214D01*
X291640Y162279D01*
X291765Y162340D01*
X291780Y162353D01*
X291798Y162363D01*
X291901Y162456D01*
X292007Y162547D01*
X292018Y162563D01*
X292033Y162577D01*
X292110Y162693D01*
X292190Y162807D01*
X292197Y162825D01*
X292208Y162842D01*
X292253Y162974D01*
X292302Y163104D01*
X292305Y163124D01*
X292311Y163143D01*
X292322Y163282D01*
X292338Y163420D01*
X292335Y163440D01*
X292336Y163460D01*
X292313Y163597D01*
X292293Y163735D01*
X292284Y163762D01*
X292282Y163774D01*
X292274Y163792D01*
X292241Y163887D01*
X292141Y164128D01*
X292141Y166336D01*
X292126Y166454D01*
X292119Y166573D01*
X292106Y166611D01*
X292101Y166652D01*
X292058Y166762D01*
X292021Y166875D01*
X291999Y166910D01*
X291984Y166947D01*
X291915Y167044D01*
X291851Y167144D01*
X291821Y167172D01*
X291798Y167205D01*
X291706Y167281D01*
X291619Y167362D01*
X291584Y167382D01*
X291553Y167407D01*
X291445Y167458D01*
X291341Y167516D01*
X291301Y167526D01*
X291265Y167543D01*
X291148Y167565D01*
X291033Y167595D01*
X290973Y167599D01*
X290953Y167603D01*
X290932Y167601D01*
X290872Y167605D01*
X285483Y167605D01*
X284665Y168424D01*
X284586Y168484D01*
X284514Y168552D01*
X284461Y168581D01*
X284413Y168618D01*
X284322Y168658D01*
X284236Y168706D01*
X284177Y168721D01*
X284122Y168745D01*
X284024Y168760D01*
X283928Y168785D01*
X283828Y168791D01*
X283807Y168795D01*
X283795Y168793D01*
X283767Y168795D01*
X268868Y168795D01*
X267716Y169948D01*
X267638Y170008D01*
X267566Y170076D01*
X267513Y170105D01*
X267465Y170142D01*
X267374Y170182D01*
X267287Y170230D01*
X267229Y170245D01*
X267173Y170269D01*
X267075Y170284D01*
X266979Y170309D01*
X266879Y170315D01*
X266859Y170319D01*
X266847Y170317D01*
X266819Y170319D01*
X266392Y170319D01*
X264338Y171170D01*
X262766Y172742D01*
X261915Y174796D01*
X261915Y177020D01*
X262766Y179074D01*
X264338Y180646D01*
X266392Y181497D01*
X268616Y181497D01*
X270670Y180646D01*
X272242Y179074D01*
X272808Y177708D01*
X272822Y177683D01*
X272831Y177655D01*
X272901Y177545D01*
X272965Y177432D01*
X272986Y177411D01*
X273001Y177386D01*
X273096Y177297D01*
X273186Y177204D01*
X273212Y177188D01*
X273233Y177168D01*
X273347Y177105D01*
X273457Y177037D01*
X273486Y177029D01*
X273512Y177014D01*
X273637Y176982D01*
X273761Y176944D01*
X273791Y176942D01*
X273819Y176935D01*
X273980Y176925D01*
X281856Y176925D01*
X281974Y176940D01*
X282093Y176947D01*
X282131Y176960D01*
X282172Y176965D01*
X282282Y177008D01*
X282395Y177045D01*
X282430Y177067D01*
X282467Y177082D01*
X282564Y177151D01*
X282664Y177215D01*
X282692Y177245D01*
X282725Y177268D01*
X282801Y177360D01*
X282882Y177447D01*
X282902Y177482D01*
X282927Y177513D01*
X282978Y177621D01*
X283036Y177725D01*
X283046Y177765D01*
X283063Y177801D01*
X283085Y177918D01*
X283115Y178033D01*
X283119Y178093D01*
X283123Y178113D01*
X283121Y178134D01*
X283125Y178194D01*
X283125Y178297D01*
X285483Y180655D01*
X299817Y180655D01*
X302175Y178297D01*
X302175Y169822D01*
X302144Y169762D01*
X302135Y169722D01*
X302119Y169685D01*
X302100Y169567D01*
X302074Y169451D01*
X302075Y169411D01*
X302069Y169371D01*
X302080Y169252D01*
X302084Y169134D01*
X302095Y169095D01*
X302099Y169055D01*
X302139Y168942D01*
X302172Y168828D01*
X302193Y168793D01*
X302206Y168755D01*
X302273Y168657D01*
X302334Y168554D01*
X302374Y168509D01*
X302385Y168492D01*
X302400Y168479D01*
X302440Y168433D01*
X302468Y168406D01*
X303319Y166352D01*
X303319Y164128D01*
X302468Y162074D01*
X300896Y160502D01*
X298842Y159651D01*
X296618Y159651D01*
X295479Y160123D01*
X295345Y160160D01*
X295212Y160201D01*
X295192Y160202D01*
X295172Y160207D01*
X295033Y160209D01*
X294895Y160216D01*
X294875Y160212D01*
X294854Y160212D01*
X294719Y160180D01*
X294583Y160152D01*
X294565Y160143D01*
X294545Y160138D01*
X294422Y160073D01*
X294297Y160012D01*
X294282Y159999D01*
X294264Y159989D01*
X294161Y159896D01*
X294055Y159805D01*
X294044Y159789D01*
X294029Y159775D01*
X293952Y159659D01*
X293872Y159545D01*
X293865Y159527D01*
X293854Y159510D01*
X293809Y159378D01*
X293760Y159248D01*
X293757Y159228D01*
X293751Y159209D01*
X293740Y159070D01*
X293724Y158932D01*
X293727Y158912D01*
X293726Y158892D01*
X293749Y158755D01*
X293769Y158617D01*
X293778Y158590D01*
X293780Y158578D01*
X293788Y158560D01*
X293821Y158465D01*
X293921Y158224D01*
X293921Y156000D01*
X293070Y153946D01*
X291498Y152374D01*
X289444Y151523D01*
X287220Y151523D01*
X285307Y152316D01*
X285298Y152318D01*
X285290Y152323D01*
X285145Y152360D01*
X285001Y152400D01*
X284991Y152400D01*
X284982Y152402D01*
X284822Y152412D01*
X261535Y152412D01*
X261417Y152397D01*
X261298Y152390D01*
X261260Y152377D01*
X261219Y152372D01*
X261109Y152329D01*
X260996Y152292D01*
X260961Y152270D01*
X260924Y152255D01*
X260828Y152186D01*
X260727Y152122D01*
X260699Y152092D01*
X260666Y152069D01*
X260590Y151977D01*
X260509Y151890D01*
X260489Y151855D01*
X260464Y151824D01*
X260413Y151716D01*
X260355Y151612D01*
X260345Y151572D01*
X260328Y151536D01*
X260306Y151419D01*
X260276Y151304D01*
X260272Y151244D01*
X260268Y151224D01*
X260270Y151203D01*
X260266Y151143D01*
X260266Y136470D01*
X260278Y136372D01*
X260281Y136273D01*
X260298Y136215D01*
X260306Y136155D01*
X260342Y136063D01*
X260370Y135968D01*
X260400Y135916D01*
X260423Y135859D01*
X260481Y135779D01*
X260531Y135694D01*
X260597Y135618D01*
X260609Y135602D01*
X260619Y135594D01*
X260637Y135573D01*
X277715Y118495D01*
X277793Y118435D01*
X277865Y118367D01*
X277918Y118338D01*
X277966Y118301D01*
X278057Y118261D01*
X278144Y118213D01*
X278202Y118198D01*
X278258Y118174D01*
X278356Y118159D01*
X278452Y118134D01*
X278552Y118128D01*
X278572Y118124D01*
X278584Y118126D01*
X278612Y118124D01*
X300167Y118124D01*
X300176Y118125D01*
X300185Y118124D01*
X300334Y118145D01*
X300482Y118164D01*
X300491Y118167D01*
X300500Y118168D01*
X300653Y118220D01*
X301952Y118759D01*
X304176Y118759D01*
X306230Y117908D01*
X307802Y116336D01*
X308653Y114282D01*
X308653Y112058D01*
X307802Y110004D01*
X306230Y108432D01*
X304176Y107581D01*
X301952Y107581D01*
G37*
%LPD*%
G36*
X190528Y-494D02*
X190528Y-494D01*
X190556Y-496D01*
X190624Y-474D01*
X190695Y-460D01*
X190718Y-444D01*
X190745Y-435D01*
X190799Y-388D01*
X190859Y-347D01*
X190874Y-323D01*
X190895Y-305D01*
X190927Y-240D01*
X190966Y-180D01*
X190971Y-152D01*
X190983Y-127D01*
X190992Y-25D01*
X190999Y17D01*
X190997Y27D01*
X190998Y39D01*
X190770Y2933D01*
X190761Y2965D01*
X190758Y3011D01*
X190080Y5833D01*
X190066Y5864D01*
X190056Y5908D01*
X188945Y8590D01*
X188926Y8617D01*
X188909Y8660D01*
X187393Y11135D01*
X187370Y11159D01*
X187346Y11198D01*
X185461Y13406D01*
X185435Y13426D01*
X185406Y13461D01*
X183198Y15346D01*
X183169Y15363D01*
X183135Y15393D01*
X180660Y16909D01*
X180629Y16921D01*
X180590Y16945D01*
X177908Y18056D01*
X177875Y18062D01*
X177833Y18080D01*
X175011Y18758D01*
X174977Y18759D01*
X174933Y18770D01*
X172039Y18998D01*
X172006Y18994D01*
X171961Y18998D01*
X169067Y18770D01*
X169035Y18761D01*
X168989Y18758D01*
X166167Y18080D01*
X166136Y18066D01*
X166092Y18056D01*
X163410Y16945D01*
X163397Y16936D01*
X163393Y16935D01*
X163377Y16924D01*
X163340Y16909D01*
X160865Y15393D01*
X160841Y15370D01*
X160802Y15346D01*
X158594Y13461D01*
X158574Y13435D01*
X158539Y13406D01*
X156654Y11198D01*
X156637Y11169D01*
X156608Y11135D01*
X155091Y8660D01*
X155079Y8629D01*
X155055Y8590D01*
X153944Y5908D01*
X153938Y5875D01*
X153920Y5833D01*
X153242Y3011D01*
X153241Y2977D01*
X153230Y2933D01*
X153002Y39D01*
X153006Y11D01*
X153001Y-17D01*
X153018Y-87D01*
X153026Y-158D01*
X153041Y-183D01*
X153047Y-210D01*
X153090Y-268D01*
X153126Y-330D01*
X153148Y-347D01*
X153165Y-370D01*
X153227Y-407D01*
X153284Y-450D01*
X153312Y-457D01*
X153336Y-472D01*
X153437Y-489D01*
X153477Y-499D01*
X153487Y-497D01*
X153500Y-499D01*
X190500Y-499D01*
X190528Y-494D01*
G37*
G36*
X293000Y59008D02*
X293000Y59008D01*
X293047Y59003D01*
X293098Y59019D01*
X293152Y59024D01*
X293192Y59047D01*
X293237Y59061D01*
X293278Y59095D01*
X293325Y59121D01*
X293360Y59164D01*
X293390Y59188D01*
X293404Y59216D01*
X293432Y59249D01*
X311432Y90249D01*
X311444Y90286D01*
X311465Y90319D01*
X311476Y90379D01*
X311495Y90438D01*
X311492Y90476D01*
X311499Y90515D01*
X311485Y90575D01*
X311480Y90636D01*
X311463Y90670D01*
X311454Y90708D01*
X311417Y90758D01*
X311389Y90813D01*
X311359Y90837D01*
X311337Y90869D01*
X311271Y90911D01*
X311236Y90940D01*
X311217Y90945D01*
X311197Y90959D01*
X307697Y92459D01*
X307654Y92468D01*
X307562Y92495D01*
X303562Y92995D01*
X303535Y92993D01*
X303500Y92999D01*
X298500Y92999D01*
X298478Y92995D01*
X298342Y92974D01*
X295342Y91974D01*
X295316Y91958D01*
X295277Y91947D01*
X293277Y90947D01*
X293251Y90926D01*
X293210Y90906D01*
X289710Y88406D01*
X289681Y88376D01*
X289606Y88307D01*
X286106Y83807D01*
X286086Y83766D01*
X286041Y83697D01*
X284541Y80197D01*
X284534Y80164D01*
X284531Y80155D01*
X284526Y80149D01*
X284526Y80144D01*
X284516Y80121D01*
X284016Y78121D01*
X284014Y78076D01*
X284001Y78000D01*
X284001Y75000D01*
X284006Y74976D01*
X284005Y74970D01*
X284004Y74960D01*
X284004Y74957D01*
X284004Y74945D01*
X284504Y70445D01*
X284517Y70405D01*
X284526Y70342D01*
X286026Y65842D01*
X286033Y65831D01*
X286035Y65818D01*
X286054Y65787D01*
X286055Y65780D01*
X286068Y65763D01*
X286121Y65675D01*
X289121Y62175D01*
X289147Y62155D01*
X289161Y62138D01*
X289170Y62125D01*
X289173Y62124D01*
X289175Y62121D01*
X292675Y59121D01*
X292722Y59095D01*
X292764Y59060D01*
X292808Y59047D01*
X292849Y59024D01*
X292902Y59018D01*
X292954Y59003D01*
X293000Y59008D01*
G37*
G36*
X51029Y59009D02*
X51029Y59009D01*
X51079Y59007D01*
X51126Y59025D01*
X51176Y59033D01*
X51227Y59063D01*
X51265Y59077D01*
X51286Y59097D01*
X51320Y59116D01*
X54320Y61616D01*
X54332Y61632D01*
X54353Y61647D01*
X56853Y64147D01*
X56866Y64166D01*
X56947Y64277D01*
X58447Y67277D01*
X58452Y67296D01*
X58460Y67308D01*
X58462Y67320D01*
X58474Y67342D01*
X59974Y71842D01*
X59976Y71865D01*
X59999Y72000D01*
X59999Y77500D01*
X59991Y77540D01*
X59978Y77643D01*
X58478Y82643D01*
X58465Y82668D01*
X58463Y82675D01*
X58457Y82684D01*
X58415Y82777D01*
X56415Y85777D01*
X56395Y85797D01*
X56376Y85829D01*
X52876Y89829D01*
X52858Y89843D01*
X52844Y89861D01*
X52744Y89929D01*
X52718Y89949D01*
X52712Y89951D01*
X52707Y89955D01*
X47207Y92455D01*
X47164Y92464D01*
X47098Y92490D01*
X44598Y92990D01*
X44558Y92989D01*
X44500Y92999D01*
X39500Y92999D01*
X39461Y92991D01*
X39402Y92990D01*
X36902Y92490D01*
X36871Y92476D01*
X36825Y92467D01*
X32825Y90967D01*
X32782Y90941D01*
X32735Y90923D01*
X32699Y90889D01*
X32656Y90862D01*
X32627Y90821D01*
X32591Y90786D01*
X32571Y90740D01*
X32542Y90699D01*
X32532Y90650D01*
X32512Y90604D01*
X32511Y90554D01*
X32501Y90505D01*
X32510Y90455D01*
X32510Y90405D01*
X32531Y90349D01*
X32539Y90309D01*
X32555Y90285D01*
X32568Y90249D01*
X50568Y59249D01*
X50602Y59212D01*
X50627Y59168D01*
X50667Y59138D01*
X50700Y59101D01*
X50746Y59079D01*
X50786Y59049D01*
X50835Y59037D01*
X50880Y59015D01*
X50930Y59013D01*
X50980Y59001D01*
X51029Y59009D01*
G37*
G36*
X44544Y207510D02*
X44544Y207510D01*
X44621Y207516D01*
X48621Y208516D01*
X48655Y208532D01*
X48689Y208539D01*
X48708Y208552D01*
X48748Y208567D01*
X52248Y210567D01*
X52281Y210596D01*
X52353Y210647D01*
X56353Y214647D01*
X56366Y214666D01*
X56447Y214777D01*
X58447Y218777D01*
X58451Y218794D01*
X58458Y218804D01*
X58461Y218826D01*
X58484Y218879D01*
X59484Y222879D01*
X59486Y222924D01*
X59499Y223000D01*
X59499Y227000D01*
X59491Y227039D01*
X59490Y227098D01*
X58990Y229598D01*
X58976Y229629D01*
X58967Y229675D01*
X57467Y233675D01*
X57445Y233712D01*
X57399Y233800D01*
X55899Y235800D01*
X55877Y235820D01*
X55853Y235853D01*
X53353Y238353D01*
X53333Y238366D01*
X53312Y238390D01*
X50812Y240390D01*
X50769Y240412D01*
X50732Y240442D01*
X50681Y240457D01*
X50635Y240481D01*
X50587Y240484D01*
X50541Y240498D01*
X50489Y240491D01*
X50437Y240495D01*
X50391Y240480D01*
X50343Y240474D01*
X50298Y240448D01*
X50248Y240431D01*
X50212Y240399D01*
X50171Y240375D01*
X50131Y240326D01*
X50100Y240299D01*
X50088Y240274D01*
X50066Y240246D01*
X33066Y210246D01*
X33059Y210226D01*
X33046Y210208D01*
X33028Y210132D01*
X33004Y210057D01*
X33006Y210036D01*
X33001Y210015D01*
X33014Y209937D01*
X33021Y209859D01*
X33031Y209840D01*
X33035Y209819D01*
X33052Y209792D01*
X33053Y209787D01*
X33070Y209763D01*
X33077Y209753D01*
X33114Y209683D01*
X33131Y209670D01*
X33142Y209652D01*
X33165Y209635D01*
X33171Y209627D01*
X33199Y209610D01*
X33246Y209576D01*
X33268Y209558D01*
X33273Y209557D01*
X33277Y209553D01*
X35277Y208553D01*
X35313Y208544D01*
X35341Y208527D01*
X35352Y208525D01*
X35363Y208520D01*
X38863Y207520D01*
X38906Y207517D01*
X39000Y207501D01*
X44500Y207501D01*
X44544Y207510D01*
G37*
G36*
X304039Y207509D02*
X304039Y207509D01*
X304098Y207510D01*
X306598Y208010D01*
X306629Y208024D01*
X306675Y208033D01*
X310675Y209533D01*
X310681Y209536D01*
X310687Y209537D01*
X310718Y209559D01*
X310760Y209574D01*
X310799Y209610D01*
X310844Y209638D01*
X310871Y209677D01*
X310906Y209709D01*
X310928Y209758D01*
X310958Y209801D01*
X310968Y209847D01*
X310987Y209891D01*
X310988Y209944D01*
X310999Y209995D01*
X310990Y210042D01*
X310991Y210090D01*
X310969Y210150D01*
X310961Y210191D01*
X310946Y210213D01*
X310934Y210246D01*
X293934Y240246D01*
X293908Y240277D01*
X293889Y240313D01*
X293843Y240351D01*
X293804Y240396D01*
X293767Y240414D01*
X293736Y240440D01*
X293679Y240457D01*
X293625Y240483D01*
X293585Y240485D01*
X293546Y240497D01*
X293486Y240491D01*
X293427Y240494D01*
X293389Y240480D01*
X293348Y240476D01*
X293281Y240441D01*
X293240Y240426D01*
X293224Y240412D01*
X293200Y240399D01*
X291200Y238899D01*
X291180Y238877D01*
X291147Y238853D01*
X288647Y236353D01*
X288622Y236316D01*
X288572Y236257D01*
X285572Y231257D01*
X285557Y231215D01*
X285520Y231137D01*
X284520Y227637D01*
X284517Y227594D01*
X284501Y227500D01*
X284501Y222500D01*
X284508Y222465D01*
X284507Y222462D01*
X284510Y222448D01*
X284520Y222363D01*
X285520Y218863D01*
X285537Y218829D01*
X285553Y218777D01*
X287553Y214777D01*
X287567Y214759D01*
X287647Y214647D01*
X291147Y211147D01*
X291167Y211134D01*
X291174Y211125D01*
X291199Y211110D01*
X291243Y211072D01*
X293743Y209572D01*
X293759Y209566D01*
X293777Y209553D01*
X295777Y208553D01*
X295813Y208544D01*
X295841Y208527D01*
X295852Y208525D01*
X295863Y208520D01*
X299363Y207520D01*
X299406Y207517D01*
X299500Y207501D01*
X304000Y207501D01*
X304039Y207509D01*
G37*
%LPC*%
G36*
X74538Y120495D02*
X74538Y120495D01*
X73645Y121388D01*
X73645Y133652D01*
X74538Y134545D01*
X75090Y134545D01*
X75208Y134560D01*
X75327Y134567D01*
X75365Y134579D01*
X75406Y134585D01*
X75516Y134628D01*
X75629Y134665D01*
X75664Y134687D01*
X75701Y134702D01*
X75797Y134771D01*
X75898Y134835D01*
X75926Y134865D01*
X75959Y134888D01*
X76035Y134980D01*
X76116Y135067D01*
X76136Y135102D01*
X76161Y135133D01*
X76212Y135241D01*
X76270Y135345D01*
X76280Y135385D01*
X76297Y135421D01*
X76319Y135538D01*
X76349Y135653D01*
X76353Y135713D01*
X76357Y135733D01*
X76355Y135754D01*
X76359Y135814D01*
X76359Y151188D01*
X84760Y159589D01*
X84820Y159667D01*
X84888Y159739D01*
X84917Y159792D01*
X84954Y159840D01*
X84994Y159931D01*
X85042Y160018D01*
X85057Y160076D01*
X85081Y160132D01*
X85096Y160230D01*
X85121Y160326D01*
X85127Y160426D01*
X85131Y160446D01*
X85129Y160458D01*
X85131Y160486D01*
X85131Y161272D01*
X85982Y163326D01*
X87554Y164898D01*
X89608Y165749D01*
X91832Y165749D01*
X93886Y164898D01*
X95458Y163326D01*
X96309Y161272D01*
X96309Y159048D01*
X95458Y156994D01*
X93886Y155422D01*
X91832Y154571D01*
X91046Y154571D01*
X90948Y154559D01*
X90849Y154556D01*
X90791Y154539D01*
X90731Y154531D01*
X90639Y154495D01*
X90543Y154467D01*
X90491Y154437D01*
X90435Y154414D01*
X90355Y154356D01*
X90270Y154306D01*
X90194Y154240D01*
X90178Y154228D01*
X90170Y154218D01*
X90149Y154200D01*
X84352Y148403D01*
X84292Y148325D01*
X84224Y148253D01*
X84195Y148200D01*
X84158Y148152D01*
X84118Y148061D01*
X84070Y147974D01*
X84055Y147916D01*
X84031Y147860D01*
X84016Y147762D01*
X83991Y147666D01*
X83985Y147566D01*
X83981Y147546D01*
X83983Y147534D01*
X83981Y147506D01*
X83981Y135814D01*
X83996Y135696D01*
X84003Y135577D01*
X84016Y135539D01*
X84021Y135498D01*
X84064Y135388D01*
X84101Y135275D01*
X84123Y135240D01*
X84138Y135203D01*
X84207Y135106D01*
X84271Y135006D01*
X84301Y134978D01*
X84324Y134945D01*
X84416Y134869D01*
X84503Y134788D01*
X84538Y134768D01*
X84569Y134743D01*
X84677Y134692D01*
X84781Y134634D01*
X84821Y134624D01*
X84857Y134607D01*
X84974Y134585D01*
X85089Y134555D01*
X85149Y134551D01*
X85169Y134547D01*
X85190Y134549D01*
X85250Y134545D01*
X85802Y134545D01*
X86695Y133652D01*
X86695Y121388D01*
X85802Y120495D01*
X74538Y120495D01*
G37*
%LPD*%
%LPC*%
G36*
X236928Y224421D02*
X236928Y224421D01*
X234874Y225272D01*
X233302Y226844D01*
X232451Y228898D01*
X232451Y231122D01*
X233302Y233176D01*
X234874Y234748D01*
X236928Y235599D01*
X239152Y235599D01*
X240163Y235180D01*
X240192Y235172D01*
X240218Y235158D01*
X240345Y235130D01*
X240470Y235096D01*
X240499Y235095D01*
X240528Y235089D01*
X240658Y235093D01*
X240788Y235091D01*
X240817Y235098D01*
X240846Y235098D01*
X240971Y235135D01*
X241097Y235165D01*
X241123Y235179D01*
X241152Y235187D01*
X241264Y235253D01*
X241378Y235314D01*
X241400Y235333D01*
X241426Y235348D01*
X241546Y235455D01*
X245924Y239832D01*
X245984Y239910D01*
X246052Y239982D01*
X246081Y240035D01*
X246118Y240083D01*
X246158Y240174D01*
X246206Y240261D01*
X246221Y240319D01*
X246245Y240375D01*
X246260Y240473D01*
X246285Y240569D01*
X246291Y240669D01*
X246295Y240689D01*
X246294Y240701D01*
X246295Y240729D01*
X246295Y248147D01*
X248653Y250505D01*
X262987Y250505D01*
X265345Y248147D01*
X265345Y239813D01*
X262987Y237455D01*
X255569Y237455D01*
X255471Y237443D01*
X255372Y237440D01*
X255314Y237423D01*
X255254Y237415D01*
X255162Y237379D01*
X255067Y237351D01*
X255015Y237321D01*
X254958Y237298D01*
X254878Y237240D01*
X254793Y237190D01*
X254717Y237124D01*
X254701Y237112D01*
X254693Y237102D01*
X254672Y237084D01*
X246286Y228698D01*
X243534Y225945D01*
X242405Y225945D01*
X242306Y225933D01*
X242207Y225930D01*
X242149Y225913D01*
X242089Y225905D01*
X241997Y225869D01*
X241902Y225841D01*
X241850Y225811D01*
X241793Y225788D01*
X241713Y225730D01*
X241628Y225680D01*
X241553Y225614D01*
X241536Y225602D01*
X241528Y225592D01*
X241507Y225574D01*
X241206Y225272D01*
X239152Y224421D01*
X236928Y224421D01*
G37*
%LPD*%
%LPC*%
G36*
X57538Y120495D02*
X57538Y120495D01*
X56645Y121388D01*
X56645Y122440D01*
X56630Y122558D01*
X56623Y122677D01*
X56610Y122715D01*
X56605Y122756D01*
X56562Y122866D01*
X56525Y122979D01*
X56503Y123014D01*
X56488Y123051D01*
X56419Y123147D01*
X56355Y123248D01*
X56325Y123276D01*
X56302Y123309D01*
X56210Y123384D01*
X56123Y123466D01*
X56088Y123486D01*
X56057Y123511D01*
X55949Y123562D01*
X55845Y123620D01*
X55805Y123630D01*
X55769Y123647D01*
X55652Y123669D01*
X55537Y123699D01*
X55477Y123703D01*
X55457Y123707D01*
X55436Y123705D01*
X55376Y123709D01*
X51794Y123709D01*
X51676Y123694D01*
X51557Y123687D01*
X51519Y123674D01*
X51478Y123669D01*
X51368Y123626D01*
X51255Y123589D01*
X51220Y123567D01*
X51183Y123552D01*
X51087Y123482D01*
X50986Y123419D01*
X50958Y123389D01*
X50925Y123366D01*
X50849Y123274D01*
X50768Y123187D01*
X50748Y123152D01*
X50723Y123121D01*
X50672Y123013D01*
X50614Y122909D01*
X50604Y122869D01*
X50587Y122833D01*
X50565Y122716D01*
X50535Y122601D01*
X50531Y122540D01*
X50527Y122520D01*
X50529Y122500D01*
X50525Y122440D01*
X50525Y122388D01*
X49632Y121495D01*
X40368Y121495D01*
X39475Y122388D01*
X39475Y131652D01*
X40368Y132545D01*
X49632Y132545D01*
X50474Y131702D01*
X50552Y131642D01*
X50624Y131574D01*
X50677Y131545D01*
X50725Y131508D01*
X50816Y131468D01*
X50903Y131420D01*
X50961Y131405D01*
X51017Y131381D01*
X51115Y131366D01*
X51211Y131341D01*
X51311Y131335D01*
X51331Y131331D01*
X51343Y131332D01*
X51371Y131331D01*
X55376Y131331D01*
X55494Y131346D01*
X55613Y131353D01*
X55651Y131365D01*
X55692Y131371D01*
X55802Y131414D01*
X55915Y131451D01*
X55950Y131473D01*
X55987Y131488D01*
X56083Y131557D01*
X56184Y131621D01*
X56212Y131651D01*
X56245Y131674D01*
X56321Y131766D01*
X56402Y131853D01*
X56422Y131888D01*
X56447Y131919D01*
X56498Y132027D01*
X56556Y132131D01*
X56566Y132171D01*
X56583Y132207D01*
X56605Y132324D01*
X56635Y132439D01*
X56639Y132499D01*
X56643Y132519D01*
X56641Y132540D01*
X56645Y132600D01*
X56645Y133652D01*
X57538Y134545D01*
X68802Y134545D01*
X69695Y133652D01*
X69695Y121388D01*
X68802Y120495D01*
X57538Y120495D01*
G37*
%LPD*%
%LPC*%
G36*
X62979Y168875D02*
X62979Y168875D01*
X60621Y171233D01*
X60621Y179567D01*
X62979Y181925D01*
X77313Y181925D01*
X78893Y180344D01*
X78917Y180326D01*
X78936Y180304D01*
X79042Y180229D01*
X79145Y180149D01*
X79172Y180138D01*
X79196Y180121D01*
X79317Y180075D01*
X79436Y180023D01*
X79466Y180018D01*
X79493Y180008D01*
X79622Y179994D01*
X79751Y179973D01*
X79780Y179976D01*
X79809Y179973D01*
X79938Y179991D01*
X80067Y180003D01*
X80095Y180013D01*
X80124Y180017D01*
X80277Y180069D01*
X82496Y180989D01*
X84720Y180989D01*
X86774Y180138D01*
X88346Y178566D01*
X89197Y176512D01*
X89197Y174288D01*
X88346Y172234D01*
X86774Y170662D01*
X84720Y169811D01*
X82496Y169811D01*
X80277Y170731D01*
X80248Y170739D01*
X80222Y170752D01*
X80095Y170780D01*
X79970Y170815D01*
X79940Y170815D01*
X79911Y170822D01*
X79782Y170818D01*
X79652Y170820D01*
X79623Y170813D01*
X79594Y170812D01*
X79469Y170776D01*
X79343Y170746D01*
X79316Y170732D01*
X79288Y170724D01*
X79177Y170658D01*
X79061Y170597D01*
X79040Y170577D01*
X79014Y170562D01*
X78893Y170456D01*
X77313Y168875D01*
X62979Y168875D01*
G37*
%LPD*%
%LPC*%
G36*
X272488Y130441D02*
X272488Y130441D01*
X270434Y131292D01*
X268862Y132864D01*
X268011Y134918D01*
X268011Y137142D01*
X268862Y139196D01*
X270434Y140768D01*
X272654Y141687D01*
X272662Y141692D01*
X272671Y141694D01*
X272800Y141771D01*
X272930Y141845D01*
X272937Y141851D01*
X272945Y141856D01*
X273066Y141962D01*
X274246Y143143D01*
X276819Y143143D01*
X276937Y143158D01*
X277056Y143165D01*
X277094Y143178D01*
X277135Y143183D01*
X277245Y143226D01*
X277358Y143263D01*
X277393Y143285D01*
X277430Y143300D01*
X277527Y143369D01*
X277627Y143433D01*
X277655Y143463D01*
X277688Y143486D01*
X277764Y143578D01*
X277845Y143665D01*
X277865Y143700D01*
X277890Y143731D01*
X277941Y143839D01*
X277999Y143943D01*
X278009Y143983D01*
X278026Y144019D01*
X278048Y144136D01*
X278078Y144251D01*
X278082Y144311D01*
X278086Y144331D01*
X278084Y144352D01*
X278088Y144412D01*
X278088Y144702D01*
X278981Y145595D01*
X290245Y145595D01*
X291138Y144702D01*
X291138Y132438D01*
X290245Y131545D01*
X278981Y131545D01*
X278898Y131629D01*
X278804Y131702D01*
X278714Y131781D01*
X278678Y131799D01*
X278646Y131824D01*
X278537Y131871D01*
X278431Y131925D01*
X278392Y131934D01*
X278355Y131950D01*
X278237Y131969D01*
X278121Y131995D01*
X278081Y131994D01*
X278041Y132000D01*
X277922Y131989D01*
X277803Y131985D01*
X277764Y131974D01*
X277724Y131970D01*
X277612Y131930D01*
X277497Y131897D01*
X277463Y131877D01*
X277425Y131863D01*
X277326Y131796D01*
X277224Y131735D01*
X277178Y131696D01*
X277161Y131684D01*
X277148Y131669D01*
X277103Y131629D01*
X276766Y131292D01*
X274712Y130441D01*
X272488Y130441D01*
G37*
%LPD*%
%LPC*%
G36*
X214576Y208673D02*
X214576Y208673D01*
X212522Y209524D01*
X210950Y211096D01*
X210099Y213150D01*
X210099Y215374D01*
X210950Y217428D01*
X212522Y219000D01*
X214576Y219851D01*
X216800Y219851D01*
X218854Y219000D01*
X220426Y217428D01*
X221277Y215374D01*
X221277Y213150D01*
X220426Y211096D01*
X218854Y209524D01*
X216800Y208673D01*
X214576Y208673D01*
G37*
%LPD*%
%LPC*%
G36*
X191462Y192417D02*
X191462Y192417D01*
X189408Y193268D01*
X187836Y194840D01*
X186985Y196894D01*
X186985Y199118D01*
X187836Y201172D01*
X189408Y202744D01*
X191462Y203595D01*
X193686Y203595D01*
X195740Y202744D01*
X197312Y201172D01*
X198163Y199118D01*
X198163Y196894D01*
X197312Y194840D01*
X195740Y193268D01*
X193686Y192417D01*
X191462Y192417D01*
G37*
%LPD*%
D10*
X45000Y127020D03*
X45000Y112020D03*
D11*
X284613Y138570D03*
X301613Y138570D03*
X63170Y127520D03*
X80170Y127520D03*
D12*
X122314Y177490D03*
X115814Y177490D03*
X109314Y177490D03*
X102814Y177490D03*
X102814Y152990D03*
X109314Y152990D03*
X115814Y152990D03*
X122314Y152990D03*
D13*
X196384Y251346D03*
D14*
X145584Y251346D03*
D15*
X96190Y200038D03*
X113190Y200038D03*
D16*
X75646Y172900D02*
X64646Y172900D01*
X64646Y177900D01*
X75646Y177900D01*
X75646Y172900D01*
X75646Y177650D02*
X64646Y177650D01*
X64646Y198300D02*
X75646Y198300D01*
X64646Y198300D02*
X64646Y203300D01*
X75646Y203300D01*
X75646Y198300D01*
X75646Y203050D02*
X64646Y203050D01*
X250320Y241480D02*
X261320Y241480D01*
X250320Y241480D02*
X250320Y246480D01*
X261320Y246480D01*
X261320Y241480D01*
X261320Y246230D02*
X250320Y246230D01*
X287150Y171630D02*
X298150Y171630D01*
X287150Y171630D02*
X287150Y176630D01*
X298150Y176630D01*
X298150Y171630D01*
X298150Y176380D02*
X287150Y176380D01*
D17*
X295300Y220800D03*
X295300Y78800D03*
D18*
X310500Y210000D02*
X310132Y209797D01*
X309760Y209604D01*
X309382Y209420D01*
X309001Y209244D01*
X308615Y209079D01*
X308225Y208922D01*
X307832Y208775D01*
X307435Y208638D01*
X307035Y208511D01*
X306632Y208393D01*
X306226Y208285D01*
X305818Y208187D01*
X305408Y208099D01*
X304995Y208021D01*
X304581Y207953D01*
X304165Y207895D01*
X303748Y207848D01*
X303329Y207810D01*
X302910Y207783D01*
X302491Y207766D01*
X302071Y207759D01*
X301651Y207763D01*
X301232Y207776D01*
X300812Y207800D01*
X300394Y207834D01*
X299976Y207878D01*
X299560Y207933D01*
X299145Y207997D01*
X298732Y208072D01*
X298321Y208156D01*
X297912Y208251D01*
X297505Y208355D01*
X297101Y208470D01*
X296700Y208594D01*
X296302Y208728D01*
X295907Y208871D01*
X295517Y209024D01*
X295129Y209187D01*
X294746Y209359D01*
X294368Y209540D01*
X293994Y209731D01*
X293624Y209930D01*
X293260Y210139D01*
X292900Y210356D01*
X292546Y210582D01*
X292198Y210816D01*
X291856Y211059D01*
X291519Y211310D01*
X291189Y211570D01*
X290865Y211837D01*
X290548Y212112D01*
X290237Y212395D01*
X289934Y212685D01*
X289638Y212982D01*
X289349Y213287D01*
X289067Y213598D01*
X288793Y213917D01*
X288527Y214242D01*
X288269Y214573D01*
X288020Y214910D01*
X287778Y215254D01*
X287545Y215603D01*
X287320Y215958D01*
X287105Y216318D01*
X286898Y216683D01*
X286700Y217053D01*
X286511Y217428D01*
X286331Y217808D01*
X286160Y218192D01*
X285999Y218579D01*
X285848Y218971D01*
X285706Y219366D01*
X285573Y219764D01*
X285451Y220166D01*
X285338Y220570D01*
X285235Y220977D01*
X285142Y221387D01*
X285059Y221798D01*
X284986Y222212D01*
X284923Y222627D01*
X284870Y223044D01*
X284828Y223461D01*
X284795Y223880D01*
X284773Y224299D01*
X284761Y224719D01*
X284760Y225139D01*
X284768Y225559D01*
X284787Y225978D01*
X284816Y226397D01*
X284855Y226815D01*
X284904Y227232D01*
X284963Y227648D01*
X285033Y228062D01*
X285113Y228474D01*
X285202Y228884D01*
X285302Y229292D01*
X285411Y229697D01*
X285531Y230100D01*
X285660Y230499D01*
X285798Y230896D01*
X285947Y231288D01*
X286105Y231677D01*
X286272Y232063D01*
X286449Y232443D01*
X286634Y232820D01*
X286829Y233192D01*
X287033Y233559D01*
X287246Y233921D01*
X287468Y234277D01*
X287698Y234628D01*
X287937Y234974D01*
X288184Y235313D01*
X288439Y235647D01*
X288702Y235974D01*
X288974Y236294D01*
X289252Y236608D01*
X289539Y236915D01*
X289833Y237215D01*
X290134Y237508D01*
X290442Y237793D01*
X290757Y238071D01*
X291078Y238341D01*
X291407Y238603D01*
X291741Y238857D01*
X292081Y239102D01*
X292428Y239340D01*
X292780Y239568D01*
X293137Y239789D01*
X293500Y240000D01*
X50500Y240000D02*
X50863Y239789D01*
X51220Y239568D01*
X51572Y239340D01*
X51919Y239102D01*
X52259Y238857D01*
X52593Y238603D01*
X52922Y238341D01*
X53243Y238071D01*
X53558Y237793D01*
X53866Y237508D01*
X54167Y237215D01*
X54461Y236915D01*
X54748Y236608D01*
X55026Y236294D01*
X55298Y235974D01*
X55561Y235647D01*
X55816Y235313D01*
X56063Y234974D01*
X56302Y234628D01*
X56532Y234277D01*
X56754Y233921D01*
X56967Y233559D01*
X57171Y233192D01*
X57366Y232820D01*
X57551Y232443D01*
X57728Y232063D01*
X57895Y231677D01*
X58053Y231288D01*
X58202Y230896D01*
X58340Y230499D01*
X58469Y230100D01*
X58589Y229697D01*
X58698Y229292D01*
X58798Y228884D01*
X58887Y228474D01*
X58967Y228062D01*
X59037Y227648D01*
X59096Y227232D01*
X59145Y226815D01*
X59184Y226397D01*
X59213Y225978D01*
X59232Y225559D01*
X59240Y225139D01*
X59239Y224719D01*
X59227Y224299D01*
X59205Y223880D01*
X59172Y223461D01*
X59130Y223044D01*
X59077Y222627D01*
X59014Y222212D01*
X58941Y221798D01*
X58858Y221387D01*
X58765Y220977D01*
X58662Y220570D01*
X58549Y220166D01*
X58427Y219764D01*
X58294Y219366D01*
X58152Y218971D01*
X58001Y218579D01*
X57840Y218192D01*
X57669Y217808D01*
X57489Y217428D01*
X57300Y217053D01*
X57102Y216683D01*
X56895Y216318D01*
X56680Y215958D01*
X56455Y215603D01*
X56222Y215254D01*
X55980Y214910D01*
X55731Y214573D01*
X55473Y214242D01*
X55207Y213917D01*
X54933Y213598D01*
X54651Y213287D01*
X54362Y212982D01*
X54066Y212685D01*
X53763Y212395D01*
X53452Y212112D01*
X53135Y211837D01*
X52811Y211570D01*
X52481Y211310D01*
X52144Y211059D01*
X51802Y210816D01*
X51454Y210582D01*
X51100Y210356D01*
X50740Y210139D01*
X50376Y209930D01*
X50006Y209731D01*
X49632Y209540D01*
X49254Y209359D01*
X48871Y209187D01*
X48483Y209024D01*
X48093Y208871D01*
X47698Y208728D01*
X47300Y208594D01*
X46899Y208470D01*
X46495Y208355D01*
X46088Y208251D01*
X45679Y208156D01*
X45268Y208072D01*
X44855Y207997D01*
X44440Y207933D01*
X44024Y207878D01*
X43606Y207834D01*
X43188Y207800D01*
X42768Y207776D01*
X42349Y207763D01*
X41929Y207759D01*
X41509Y207766D01*
X41090Y207783D01*
X40671Y207810D01*
X40252Y207848D01*
X39835Y207895D01*
X39419Y207953D01*
X39005Y208021D01*
X38592Y208099D01*
X38182Y208187D01*
X37774Y208285D01*
X37368Y208393D01*
X36965Y208511D01*
X36565Y208638D01*
X36168Y208775D01*
X35775Y208922D01*
X35385Y209079D01*
X34999Y209244D01*
X34618Y209420D01*
X34240Y209604D01*
X33868Y209797D01*
X33500Y210000D01*
X33000Y90500D02*
X33380Y90714D01*
X33766Y90919D01*
X34156Y91115D01*
X34550Y91301D01*
X34950Y91478D01*
X35353Y91645D01*
X35760Y91802D01*
X36171Y91949D01*
X36586Y92086D01*
X37003Y92212D01*
X37424Y92329D01*
X37847Y92435D01*
X38273Y92531D01*
X38701Y92617D01*
X39131Y92692D01*
X39563Y92757D01*
X39996Y92811D01*
X40430Y92854D01*
X40865Y92887D01*
X41301Y92909D01*
X41738Y92921D01*
X42174Y92922D01*
X42610Y92913D01*
X43046Y92892D01*
X43482Y92862D01*
X43916Y92820D01*
X44350Y92768D01*
X44782Y92706D01*
X45212Y92633D01*
X45640Y92549D01*
X46067Y92456D01*
X46491Y92351D01*
X46912Y92237D01*
X47330Y92112D01*
X47745Y91977D01*
X48157Y91832D01*
X48565Y91677D01*
X48969Y91513D01*
X49369Y91338D01*
X49765Y91154D01*
X50156Y90960D01*
X50542Y90757D01*
X50923Y90544D01*
X51299Y90322D01*
X51669Y90091D01*
X52034Y89851D01*
X52393Y89602D01*
X52745Y89345D01*
X53091Y89079D01*
X53431Y88805D01*
X53764Y88522D01*
X54089Y88232D01*
X54408Y87933D01*
X54719Y87628D01*
X55023Y87314D01*
X55319Y86993D01*
X55607Y86665D01*
X55887Y86331D01*
X56159Y85989D01*
X56422Y85641D01*
X56677Y85287D01*
X56923Y84926D01*
X57161Y84560D01*
X57389Y84188D01*
X57608Y83810D01*
X57818Y83428D01*
X58018Y83040D01*
X58210Y82648D01*
X58391Y82251D01*
X58563Y81849D01*
X58725Y81444D01*
X58876Y81035D01*
X59018Y80622D01*
X59150Y80206D01*
X59272Y79787D01*
X59383Y79365D01*
X59485Y78940D01*
X59575Y78513D01*
X59656Y78084D01*
X59726Y77653D01*
X59785Y77221D01*
X59834Y76787D01*
X59872Y76352D01*
X59900Y75917D01*
X59917Y75481D01*
X59923Y75044D01*
X59919Y74608D01*
X59904Y74172D01*
X59878Y73736D01*
X59842Y73301D01*
X59796Y72867D01*
X59738Y72434D01*
X59671Y72003D01*
X59592Y71574D01*
X59504Y71146D01*
X59405Y70721D01*
X59295Y70299D01*
X59176Y69879D01*
X59046Y69462D01*
X58906Y69049D01*
X58756Y68639D01*
X58596Y68233D01*
X58427Y67830D01*
X58247Y67433D01*
X58058Y67039D01*
X57859Y66650D01*
X57651Y66267D01*
X57434Y65888D01*
X57208Y65515D01*
X56972Y65148D01*
X56728Y64786D01*
X56475Y64430D01*
X56213Y64081D01*
X55943Y63738D01*
X55665Y63402D01*
X55378Y63073D01*
X55084Y62750D01*
X54781Y62435D01*
X54472Y62128D01*
X54155Y61828D01*
X53830Y61536D01*
X53499Y61252D01*
X53161Y60976D01*
X52816Y60708D01*
X52465Y60449D01*
X52107Y60199D01*
X51744Y59957D01*
X51375Y59724D01*
X51000Y59500D01*
X293000Y59500D02*
X292625Y59724D01*
X292256Y59957D01*
X291893Y60199D01*
X291535Y60449D01*
X291184Y60708D01*
X290839Y60976D01*
X290501Y61252D01*
X290170Y61536D01*
X289845Y61828D01*
X289528Y62128D01*
X289219Y62435D01*
X288916Y62750D01*
X288622Y63073D01*
X288335Y63402D01*
X288057Y63738D01*
X287787Y64081D01*
X287525Y64430D01*
X287272Y64786D01*
X287028Y65148D01*
X286792Y65515D01*
X286566Y65888D01*
X286349Y66267D01*
X286141Y66650D01*
X285942Y67039D01*
X285753Y67433D01*
X285573Y67830D01*
X285404Y68233D01*
X285244Y68639D01*
X285094Y69049D01*
X284954Y69462D01*
X284824Y69879D01*
X284705Y70299D01*
X284595Y70721D01*
X284496Y71146D01*
X284408Y71574D01*
X284329Y72003D01*
X284262Y72434D01*
X284204Y72867D01*
X284158Y73301D01*
X284122Y73736D01*
X284096Y74172D01*
X284081Y74608D01*
X284077Y75044D01*
X284083Y75481D01*
X284100Y75917D01*
X284128Y76352D01*
X284166Y76787D01*
X284215Y77221D01*
X284274Y77653D01*
X284344Y78084D01*
X284425Y78513D01*
X284515Y78940D01*
X284617Y79365D01*
X284728Y79787D01*
X284850Y80206D01*
X284982Y80622D01*
X285124Y81035D01*
X285275Y81444D01*
X285437Y81849D01*
X285609Y82251D01*
X285790Y82648D01*
X285982Y83040D01*
X286182Y83428D01*
X286392Y83810D01*
X286611Y84188D01*
X286839Y84560D01*
X287077Y84926D01*
X287323Y85287D01*
X287578Y85641D01*
X287841Y85989D01*
X288113Y86331D01*
X288393Y86665D01*
X288681Y86993D01*
X288977Y87314D01*
X289281Y87628D01*
X289592Y87933D01*
X289911Y88232D01*
X290236Y88522D01*
X290569Y88805D01*
X290909Y89079D01*
X291255Y89345D01*
X291607Y89602D01*
X291966Y89851D01*
X292331Y90091D01*
X292701Y90322D01*
X293077Y90544D01*
X293458Y90757D01*
X293844Y90960D01*
X294235Y91154D01*
X294631Y91338D01*
X295031Y91513D01*
X295435Y91677D01*
X295843Y91832D01*
X296255Y91977D01*
X296670Y92112D01*
X297088Y92237D01*
X297509Y92351D01*
X297933Y92456D01*
X298360Y92549D01*
X298788Y92633D01*
X299218Y92706D01*
X299650Y92768D01*
X300084Y92820D01*
X300518Y92862D01*
X300954Y92892D01*
X301390Y92913D01*
X301826Y92922D01*
X302262Y92921D01*
X302699Y92909D01*
X303135Y92887D01*
X303570Y92854D01*
X304004Y92811D01*
X304437Y92757D01*
X304869Y92692D01*
X305299Y92617D01*
X305727Y92531D01*
X306153Y92435D01*
X306576Y92329D01*
X306997Y92212D01*
X307414Y92086D01*
X307829Y91949D01*
X308240Y91802D01*
X308647Y91645D01*
X309050Y91478D01*
X309450Y91301D01*
X309844Y91115D01*
X310234Y90919D01*
X310620Y90714D01*
X311000Y90500D01*
X190500Y0D02*
X190495Y450D01*
X190478Y901D01*
X190451Y1350D01*
X190412Y1799D01*
X190363Y2247D01*
X190303Y2694D01*
X190232Y3139D01*
X190150Y3582D01*
X190057Y4022D01*
X189954Y4461D01*
X189840Y4897D01*
X189716Y5330D01*
X189581Y5760D01*
X189435Y6186D01*
X189279Y6609D01*
X189113Y7028D01*
X188937Y7442D01*
X188751Y7852D01*
X188555Y8258D01*
X188349Y8659D01*
X188133Y9054D01*
X187908Y9444D01*
X187673Y9829D01*
X187429Y10208D01*
X187176Y10580D01*
X186914Y10947D01*
X186643Y11307D01*
X186363Y11660D01*
X186075Y12006D01*
X185778Y12345D01*
X185474Y12677D01*
X185161Y13002D01*
X184840Y13318D01*
X184512Y13627D01*
X184177Y13928D01*
X183834Y14220D01*
X183484Y14504D01*
X183128Y14779D01*
X182764Y15046D01*
X182395Y15304D01*
X182019Y15552D01*
X181637Y15791D01*
X181250Y16021D01*
X180857Y16242D01*
X180459Y16453D01*
X180056Y16654D01*
X179648Y16845D01*
X179235Y17026D01*
X178819Y17198D01*
X178398Y17358D01*
X177973Y17509D01*
X177545Y17649D01*
X177114Y17779D01*
X176679Y17898D01*
X176242Y18007D01*
X175802Y18105D01*
X175360Y18192D01*
X174916Y18269D01*
X174471Y18334D01*
X174023Y18389D01*
X173575Y18433D01*
X173126Y18466D01*
X172676Y18488D01*
X172225Y18499D01*
X171775Y18499D01*
X171324Y18488D01*
X170874Y18466D01*
X170425Y18433D01*
X169977Y18389D01*
X169529Y18334D01*
X169084Y18269D01*
X168640Y18192D01*
X168198Y18105D01*
X167758Y18007D01*
X167321Y17898D01*
X166886Y17779D01*
X166455Y17649D01*
X166027Y17509D01*
X165602Y17358D01*
X165181Y17198D01*
X164765Y17026D01*
X164352Y16845D01*
X163944Y16654D01*
X163541Y16453D01*
X163143Y16242D01*
X162750Y16021D01*
X162363Y15791D01*
X161981Y15552D01*
X161605Y15304D01*
X161236Y15046D01*
X160872Y14779D01*
X160516Y14504D01*
X160166Y14220D01*
X159823Y13928D01*
X159488Y13627D01*
X159160Y13318D01*
X158839Y13002D01*
X158526Y12677D01*
X158222Y12345D01*
X157925Y12006D01*
X157637Y11660D01*
X157357Y11307D01*
X157086Y10947D01*
X156824Y10580D01*
X156571Y10208D01*
X156327Y9829D01*
X156092Y9444D01*
X155867Y9054D01*
X155651Y8659D01*
X155445Y8258D01*
X155249Y7852D01*
X155063Y7442D01*
X154887Y7028D01*
X154721Y6609D01*
X154565Y6186D01*
X154419Y5760D01*
X154284Y5330D01*
X154160Y4897D01*
X154046Y4461D01*
X153943Y4022D01*
X153850Y3582D01*
X153768Y3139D01*
X153697Y2694D01*
X153637Y2247D01*
X153588Y1799D01*
X153549Y1350D01*
X153522Y901D01*
X153505Y450D01*
X153500Y0D01*
X33500Y210000D02*
X33868Y209797D01*
X34240Y209604D01*
X34618Y209420D01*
X34999Y209244D01*
X35385Y209079D01*
X35775Y208922D01*
X36168Y208775D01*
X36565Y208638D01*
X36965Y208511D01*
X37368Y208393D01*
X37774Y208285D01*
X38182Y208187D01*
X38592Y208099D01*
X39005Y208021D01*
X39419Y207953D01*
X39835Y207895D01*
X40252Y207848D01*
X40671Y207810D01*
X41090Y207783D01*
X41509Y207766D01*
X41929Y207759D01*
X42349Y207763D01*
X42768Y207776D01*
X43188Y207800D01*
X43606Y207834D01*
X44024Y207878D01*
X44440Y207933D01*
X44855Y207997D01*
X45268Y208072D01*
X45679Y208156D01*
X46088Y208251D01*
X46495Y208355D01*
X46899Y208470D01*
X47300Y208594D01*
X47698Y208728D01*
X48093Y208871D01*
X48483Y209024D01*
X48871Y209187D01*
X49254Y209359D01*
X49632Y209540D01*
X50006Y209731D01*
X50376Y209930D01*
X50740Y210139D01*
X51100Y210356D01*
X51454Y210582D01*
X51802Y210816D01*
X52144Y211059D01*
X52481Y211310D01*
X52811Y211570D01*
X53135Y211837D01*
X53452Y212112D01*
X53763Y212395D01*
X54066Y212685D01*
X54362Y212982D01*
X54651Y213287D01*
X54933Y213598D01*
X55207Y213917D01*
X55473Y214242D01*
X55731Y214573D01*
X55980Y214910D01*
X56222Y215254D01*
X56455Y215603D01*
X56680Y215958D01*
X56895Y216318D01*
X57102Y216683D01*
X57300Y217053D01*
X57489Y217428D01*
X57669Y217808D01*
X57840Y218192D01*
X58001Y218579D01*
X58152Y218971D01*
X58294Y219366D01*
X58427Y219764D01*
X58549Y220166D01*
X58662Y220570D01*
X58765Y220977D01*
X58858Y221387D01*
X58941Y221798D01*
X59014Y222212D01*
X59077Y222627D01*
X59130Y223044D01*
X59172Y223461D01*
X59205Y223880D01*
X59227Y224299D01*
X59239Y224719D01*
X59240Y225139D01*
X59232Y225559D01*
X59213Y225978D01*
X59184Y226397D01*
X59145Y226815D01*
X59096Y227232D01*
X59037Y227648D01*
X58967Y228062D01*
X58887Y228474D01*
X58798Y228884D01*
X58698Y229292D01*
X58589Y229697D01*
X58469Y230100D01*
X58340Y230499D01*
X58202Y230896D01*
X58053Y231288D01*
X57895Y231677D01*
X57728Y232063D01*
X57551Y232443D01*
X57366Y232820D01*
X57171Y233192D01*
X56967Y233559D01*
X56754Y233921D01*
X56532Y234277D01*
X56302Y234628D01*
X56063Y234974D01*
X55816Y235313D01*
X55561Y235647D01*
X55298Y235974D01*
X55026Y236294D01*
X54748Y236608D01*
X54461Y236915D01*
X54167Y237215D01*
X53866Y237508D01*
X53558Y237793D01*
X53243Y238071D01*
X52922Y238341D01*
X52593Y238603D01*
X52259Y238857D01*
X51919Y239102D01*
X51572Y239340D01*
X51220Y239568D01*
X50863Y239789D01*
X50500Y240000D01*
D17*
X335300Y149800D03*
X254300Y7800D03*
X172300Y7800D03*
X90300Y7800D03*
X48300Y78800D03*
X8300Y149800D03*
X49300Y220800D03*
X90300Y291800D03*
X254300Y292800D03*
D19*
X47660Y112020D02*
X45000Y112020D01*
X116120Y76340D02*
X131360Y61100D01*
X144060Y61100D01*
D20*
X144060Y61100D03*
X288332Y157112D03*
X172000Y138570D03*
D19*
X172000Y150000D01*
D20*
X172000Y150000D03*
X172000Y161430D03*
D19*
X172000Y172860D01*
D20*
X172000Y172860D03*
X149140Y138316D03*
D19*
X159300Y138316D01*
D20*
X159300Y138316D03*
X194606Y138316D03*
D19*
X184446Y138316D01*
D20*
X184446Y138316D03*
X240580Y208420D03*
X215688Y214262D03*
X192574Y198006D03*
D21*
X116120Y76340D02*
X91990Y76340D01*
X56176Y112154D02*
X45134Y112154D01*
X45000Y112020D01*
D22*
X115814Y177490D02*
X115814Y197414D01*
X113190Y200038D01*
D20*
X245152Y46876D03*
X106468Y220104D03*
D23*
X113190Y213382D01*
X113190Y200038D01*
X144060Y61100D02*
X230928Y61100D01*
X245152Y46876D01*
D21*
X254042Y157112D02*
X288332Y157112D01*
X254042Y157112D02*
X240580Y170574D01*
X240580Y208420D01*
X255566Y157112D02*
X288332Y157112D01*
X255566Y157112D02*
X255566Y133998D01*
X276140Y113424D01*
X303064Y113424D01*
D20*
X303064Y113170D03*
D21*
X303064Y113424D01*
X68876Y99454D02*
X56176Y112154D01*
D20*
X68622Y99200D03*
D21*
X69130Y99200D02*
X91990Y76340D01*
X69130Y99200D02*
X68622Y99200D01*
X68876Y99454D01*
D19*
X315510Y150000D02*
X335100Y150000D01*
D20*
X136440Y188100D03*
D24*
X57700Y142380D03*
D20*
X206290Y184290D03*
D25*
X211370Y189370D01*
D26*
X57700Y142380D02*
X50280Y149800D01*
D23*
X50226Y149746D01*
D22*
X96190Y191520D02*
X96190Y200038D01*
D26*
X93768Y200038D01*
X82338Y188608D01*
X57954Y188608D01*
X50842Y181496D01*
D21*
X19146Y149800D01*
X14266Y149800D01*
D27*
X50280Y149800D01*
D22*
X96190Y191520D02*
X98848Y188862D01*
X105797Y188862D01*
X109314Y185345D01*
X109314Y177490D01*
D21*
X304080Y138570D02*
X315510Y150000D01*
X304080Y138570D02*
X301613Y138570D01*
D20*
X70400Y68720D03*
D25*
X58380Y68720D01*
D26*
X51096Y75070D02*
X48300Y77866D01*
X51096Y75832D02*
X51096Y75070D01*
X51096Y75832D02*
X48556Y78372D01*
X48728Y78372D01*
X58380Y68720D01*
X48556Y78372D02*
X48300Y78372D01*
X48300Y78800D01*
D25*
X42460Y216040D02*
X45000Y218580D01*
X47220Y220800D01*
X45000Y218580D02*
X45000Y200800D01*
D20*
X45000Y200800D03*
D26*
X47220Y220800D02*
X49300Y220800D01*
D25*
X80170Y149610D02*
X80170Y127520D01*
X80170Y149610D02*
X90720Y160160D01*
D20*
X90720Y160160D03*
D25*
X63170Y127520D02*
X45500Y127520D01*
X45000Y127020D01*
D20*
X273600Y136030D03*
D19*
X276140Y138570D01*
X284613Y138570D01*
D20*
X154474Y216294D03*
D28*
X122314Y185912D02*
X122314Y177490D01*
X122314Y185912D02*
X127042Y190640D01*
X127042Y196736D01*
X146600Y216294D01*
X154474Y216294D01*
X102814Y177490D02*
X102814Y170672D01*
X105452Y168034D01*
X131106Y168034D01*
X148378Y185306D01*
X148378Y188862D01*
X164380Y204864D01*
D20*
X164380Y204864D03*
X238040Y230010D03*
D29*
X241850Y230010D02*
X255820Y243980D01*
X241850Y230010D02*
X238040Y230010D01*
D20*
X267504Y175908D03*
D26*
X291380Y172860D02*
X292650Y174130D01*
D20*
X297730Y165240D03*
D25*
X297730Y172860D01*
X293920Y172860D01*
X292650Y174130D01*
D29*
X291380Y172860D02*
X270552Y172860D01*
X267504Y175908D01*
D20*
X288840Y96660D03*
D29*
X296460Y79960D02*
X296460Y78800D01*
D26*
X295300Y78800D01*
X295300Y90200D02*
X288840Y96660D01*
X295300Y90200D02*
X295300Y78800D01*
D25*
X184700Y25540D02*
X172300Y13140D01*
D20*
X184700Y25540D03*
D26*
X172300Y13140D02*
X172300Y7800D01*
D28*
X181652Y195974D02*
X181652Y210706D01*
X191812Y220866D01*
X115814Y152990D02*
X115814Y135320D01*
X124502Y126632D01*
X134408Y126632D01*
X137456Y129680D01*
X137456Y145682D01*
X143044Y151270D01*
X153966Y151270D01*
X160824Y158128D01*
X160824Y175146D01*
X181652Y195974D01*
D21*
X191812Y220866D02*
X196384Y225438D01*
X196384Y251346D01*
D28*
X109314Y159958D02*
X109314Y152990D01*
X109314Y159958D02*
X111802Y162446D01*
X147870Y162446D01*
X154220Y168796D01*
X154220Y176924D01*
X175302Y198006D01*
X175302Y216294D01*
D22*
X175302Y227724D01*
X172254Y230772D01*
D21*
X151680Y251346D01*
X145584Y251346D01*
D28*
X102814Y152990D02*
X102814Y142732D01*
X108246Y137300D01*
D20*
X108246Y137300D03*
X127296Y137554D03*
D28*
X122314Y142536D02*
X122314Y152990D01*
X122314Y142536D02*
X127296Y137554D01*
D20*
X283506Y206388D03*
D22*
X295300Y218182D01*
D26*
X295300Y220800D01*
D20*
X83608Y175400D03*
D26*
X70146Y175400D01*
D20*
X140758Y224930D03*
D26*
X128566Y237122D01*
X100880Y237122D01*
X88434Y224676D01*
X88434Y218326D01*
X81068Y210960D01*
D20*
X81068Y210960D03*
D26*
X70908Y200800D02*
X70146Y200800D01*
X70908Y200800D02*
X81068Y210960D01*
M02*
