G04 EAGLE Gerber RS-274X export*
G75*
%MOMM*%
%FSLAX34Y34*%
%LPD*%
%INSilkscreen Bottom*%
%IPPOS*%
%AMOC8*
5,1,8,0,0,1.08239X$1,22.5*%
G01*
%ADD10C,0.152400*%
%ADD11C,0.101600*%
%ADD12C,0.127000*%
%ADD13C,0.076200*%
%ADD14C,0.254000*%


D10*
X220260Y65164D02*
X220260Y81434D01*
X220260Y73299D02*
X209413Y73299D01*
X209413Y81434D02*
X209413Y65164D01*
X203888Y76011D02*
X198465Y81434D01*
X198465Y65164D01*
X203888Y65164D02*
X193042Y65164D01*
X187517Y65164D02*
X187517Y81434D01*
X187517Y65164D02*
X179382Y65164D01*
X176670Y67876D01*
X176670Y78722D01*
X179382Y81434D01*
X187517Y81434D01*
X171145Y81434D02*
X171145Y65164D01*
X171145Y81434D02*
X163010Y81434D01*
X160299Y78722D01*
X160299Y73299D01*
X163010Y70587D01*
X171145Y70587D01*
X165722Y70587D02*
X160299Y65164D01*
X154774Y65164D02*
X143927Y65164D01*
X154774Y65164D02*
X143927Y76011D01*
X143927Y78722D01*
X146639Y81434D01*
X152062Y81434D01*
X154774Y78722D01*
X138402Y78722D02*
X138402Y67876D01*
X138402Y78722D02*
X135691Y81434D01*
X130267Y81434D01*
X127556Y78722D01*
X127556Y67876D01*
X130267Y65164D01*
X135691Y65164D01*
X138402Y67876D01*
X127556Y78722D01*
D11*
X245902Y39002D02*
X245423Y36288D01*
X245902Y39002D02*
X249095Y41238D01*
X251809Y40759D01*
X256281Y34373D01*
X255802Y31659D01*
X252609Y29423D01*
X249895Y29902D01*
X247659Y33095D01*
X250852Y35330D01*
X247819Y26069D02*
X241112Y35648D01*
X241433Y21598D01*
X234726Y31177D01*
X231533Y28941D02*
X238240Y19362D01*
X233451Y16008D01*
X230736Y16487D01*
X226265Y22873D01*
X226743Y25587D01*
X231533Y28941D01*
X321616Y139815D02*
X319667Y141764D01*
X321616Y139815D02*
X321616Y135917D01*
X319667Y133968D01*
X311871Y133968D01*
X309922Y135917D01*
X309922Y139815D01*
X311871Y141764D01*
X315769Y141764D01*
X315769Y137866D01*
X309922Y145662D02*
X321616Y145662D01*
X309922Y153458D01*
X321616Y153458D01*
X321616Y157356D02*
X309922Y157356D01*
X309922Y163203D01*
X311871Y165152D01*
X319667Y165152D01*
X321616Y163203D01*
X321616Y157356D01*
X257359Y271336D02*
X254645Y270858D01*
X257359Y271336D02*
X260552Y269101D01*
X261031Y266386D01*
X256559Y260000D01*
X253845Y259521D01*
X250652Y261757D01*
X250173Y264472D01*
X252409Y267665D01*
X255602Y265429D01*
X252570Y274690D02*
X245862Y265111D01*
X239476Y269582D02*
X252570Y274690D01*
X246183Y279162D02*
X239476Y269582D01*
X236283Y271818D02*
X242990Y281397D01*
X236283Y271818D02*
X231494Y275172D01*
X231015Y277886D01*
X235486Y284272D01*
X238201Y284751D01*
X242990Y281397D01*
X104424Y284112D02*
X103945Y281398D01*
X104424Y284112D02*
X107617Y286348D01*
X110331Y285869D01*
X114803Y279483D01*
X114324Y276769D01*
X111131Y274533D01*
X108417Y275012D01*
X106181Y278205D01*
X109374Y280440D01*
X106341Y271179D02*
X99634Y280758D01*
X99955Y266708D01*
X93248Y276287D01*
X90055Y274051D02*
X96762Y264472D01*
X91973Y261118D01*
X89258Y261597D01*
X84787Y267983D01*
X85265Y270697D01*
X90055Y274051D01*
X33155Y142018D02*
X35104Y140069D01*
X35104Y136171D01*
X33155Y134222D01*
X25359Y134222D01*
X23410Y136171D01*
X23410Y140069D01*
X25359Y142018D01*
X29257Y142018D01*
X29257Y138120D01*
X23410Y145916D02*
X35104Y145916D01*
X23410Y153712D01*
X35104Y153712D01*
X35104Y157610D02*
X23410Y157610D01*
X23410Y163457D01*
X25359Y165406D01*
X33155Y165406D01*
X35104Y163457D01*
X35104Y157610D01*
X114691Y25748D02*
X117405Y26226D01*
X120598Y23991D01*
X121077Y21276D01*
X116605Y14890D01*
X113891Y14411D01*
X110698Y16647D01*
X110219Y19362D01*
X112455Y22555D01*
X115648Y20319D01*
X112616Y29580D02*
X105908Y20001D01*
X99522Y24472D02*
X112616Y29580D01*
X106229Y34052D02*
X99522Y24472D01*
X96329Y26708D02*
X103036Y36287D01*
X96329Y26708D02*
X91540Y30062D01*
X91061Y32776D01*
X95532Y39162D01*
X98247Y39641D01*
X103036Y36287D01*
D10*
X280448Y212738D02*
X280448Y230533D01*
X271550Y230533D01*
X268584Y227567D01*
X268584Y221636D01*
X271550Y218670D01*
X280448Y218670D01*
X262673Y224601D02*
X256741Y230533D01*
X256741Y212738D01*
X262673Y212738D02*
X250809Y212738D01*
X278665Y92357D02*
X278665Y74562D01*
X278665Y92357D02*
X269767Y92357D01*
X266801Y89391D01*
X266801Y83460D01*
X269767Y80494D01*
X278665Y80494D01*
X260890Y74562D02*
X249026Y74562D01*
X249026Y86425D02*
X260890Y74562D01*
X249026Y86425D02*
X249026Y89391D01*
X251992Y92357D01*
X257924Y92357D01*
X260890Y89391D01*
X243115Y89391D02*
X231251Y77528D01*
X231251Y89391D02*
X243115Y77528D01*
X243115Y83460D02*
X231251Y83460D01*
X237183Y89391D02*
X237183Y77528D01*
X189008Y42573D02*
X189008Y24778D01*
X189008Y42573D02*
X180110Y42573D01*
X177144Y39607D01*
X177144Y33676D01*
X180110Y30710D01*
X189008Y30710D01*
X171233Y39607D02*
X168267Y42573D01*
X162335Y42573D01*
X159369Y39607D01*
X159369Y36641D01*
X162335Y33676D01*
X165301Y33676D01*
X162335Y33676D02*
X159369Y30710D01*
X159369Y27744D01*
X162335Y24778D01*
X168267Y24778D01*
X171233Y27744D01*
X83344Y91580D02*
X83344Y109375D01*
X74446Y109375D01*
X71480Y106409D01*
X71480Y100478D01*
X74446Y97512D01*
X83344Y97512D01*
X56671Y91580D02*
X56671Y109375D01*
X65569Y100478D01*
X53705Y100478D01*
X94012Y214516D02*
X94012Y232311D01*
X85114Y232311D01*
X82148Y229345D01*
X82148Y223414D01*
X85114Y220448D01*
X94012Y220448D01*
X76237Y232311D02*
X64373Y232311D01*
X76237Y232311D02*
X76237Y223414D01*
X70305Y226379D01*
X67339Y226379D01*
X64373Y223414D01*
X64373Y217482D01*
X67339Y214516D01*
X73271Y214516D01*
X76237Y217482D01*
D12*
X222005Y234720D02*
X224547Y237262D01*
X229632Y237262D01*
X232174Y234720D01*
X232174Y224551D01*
X229632Y222009D01*
X224547Y222009D01*
X222005Y224551D01*
X216972Y222009D02*
X216972Y232178D01*
X211887Y237262D01*
X206803Y232178D01*
X206803Y222009D01*
X206803Y229636D02*
X216972Y229636D01*
X201769Y222009D02*
X201769Y237262D01*
X191601Y222009D01*
X191601Y237262D01*
X186567Y237262D02*
X186567Y222009D01*
X186567Y229636D02*
X176399Y229636D01*
X176399Y237262D02*
X176399Y222009D01*
X160031Y237262D02*
X157489Y234720D01*
X160031Y237262D02*
X165116Y237262D01*
X167658Y234720D01*
X167658Y224551D01*
X165116Y222009D01*
X160031Y222009D01*
X157489Y224551D01*
X152456Y222009D02*
X152456Y232178D01*
X147371Y237262D01*
X142287Y232178D01*
X142287Y222009D01*
X142287Y229636D02*
X152456Y229636D01*
X137253Y222009D02*
X137253Y237262D01*
X127085Y222009D01*
X127085Y237262D01*
X122051Y237262D02*
X122051Y222009D01*
X111883Y222009D01*
D10*
X280707Y237630D02*
X280707Y255425D01*
X271809Y255425D01*
X268843Y252459D01*
X268843Y249493D01*
X271809Y246528D01*
X268843Y243562D01*
X268843Y240596D01*
X271809Y237630D01*
X280707Y237630D01*
X280707Y246528D02*
X271809Y246528D01*
X316267Y190655D02*
X316267Y172860D01*
X316267Y190655D02*
X307369Y190655D01*
X304403Y187689D01*
X304403Y181758D01*
X307369Y178792D01*
X316267Y178792D01*
X310335Y178792D02*
X304403Y172860D01*
X94525Y169319D02*
X94525Y151524D01*
X85627Y151524D01*
X82661Y154490D01*
X82661Y166353D01*
X85627Y169319D01*
X94525Y169319D01*
X80629Y200389D02*
X83595Y203355D01*
X89527Y203355D01*
X92493Y200389D01*
X92493Y188526D01*
X89527Y185560D01*
X83595Y185560D01*
X80629Y188526D01*
D13*
X254756Y205118D02*
X256324Y206686D01*
X259459Y206686D01*
X261027Y205118D01*
X261027Y198848D01*
X259459Y197280D01*
X256324Y197280D01*
X254756Y198848D01*
X251672Y203551D02*
X248536Y206686D01*
X248536Y197280D01*
X245401Y197280D02*
X251672Y197280D01*
D10*
X244963Y108383D02*
X265093Y108383D01*
D13*
X259498Y109065D02*
X257930Y107497D01*
X259498Y109065D02*
X262633Y109065D01*
X264201Y107497D01*
X264201Y101227D01*
X262633Y99659D01*
X259498Y99659D01*
X257930Y101227D01*
X254846Y99659D02*
X248575Y99659D01*
X254846Y99659D02*
X248575Y105930D01*
X248575Y107497D01*
X250143Y109065D01*
X253278Y109065D01*
X254846Y107497D01*
D12*
X207000Y180000D02*
X202000Y185000D01*
X137000Y115010D02*
X137000Y115000D01*
X211770Y177650D02*
X211772Y177739D01*
X211778Y177828D01*
X211788Y177917D01*
X211802Y178005D01*
X211819Y178092D01*
X211841Y178178D01*
X211867Y178264D01*
X211896Y178348D01*
X211929Y178431D01*
X211965Y178512D01*
X212006Y178592D01*
X212049Y178669D01*
X212096Y178745D01*
X212147Y178818D01*
X212200Y178889D01*
X212257Y178958D01*
X212317Y179024D01*
X212380Y179088D01*
X212445Y179148D01*
X212513Y179206D01*
X212584Y179260D01*
X212657Y179311D01*
X212732Y179359D01*
X212809Y179404D01*
X212888Y179445D01*
X212969Y179482D01*
X213051Y179516D01*
X213135Y179547D01*
X213220Y179573D01*
X213306Y179596D01*
X213393Y179614D01*
X213481Y179629D01*
X213570Y179640D01*
X213659Y179647D01*
X213748Y179650D01*
X213837Y179649D01*
X213926Y179644D01*
X214014Y179635D01*
X214103Y179622D01*
X214190Y179605D01*
X214277Y179585D01*
X214363Y179560D01*
X214447Y179532D01*
X214530Y179500D01*
X214612Y179464D01*
X214692Y179425D01*
X214770Y179382D01*
X214846Y179336D01*
X214920Y179286D01*
X214992Y179233D01*
X215061Y179177D01*
X215128Y179118D01*
X215192Y179056D01*
X215253Y178992D01*
X215312Y178924D01*
X215367Y178854D01*
X215419Y178782D01*
X215468Y178707D01*
X215513Y178631D01*
X215555Y178552D01*
X215593Y178472D01*
X215628Y178390D01*
X215659Y178306D01*
X215687Y178221D01*
X215710Y178135D01*
X215730Y178048D01*
X215746Y177961D01*
X215758Y177872D01*
X215766Y177784D01*
X215770Y177695D01*
X215770Y177605D01*
X215766Y177516D01*
X215758Y177428D01*
X215746Y177339D01*
X215730Y177252D01*
X215710Y177165D01*
X215687Y177079D01*
X215659Y176994D01*
X215628Y176910D01*
X215593Y176828D01*
X215555Y176748D01*
X215513Y176669D01*
X215468Y176593D01*
X215419Y176518D01*
X215367Y176446D01*
X215312Y176376D01*
X215253Y176308D01*
X215192Y176244D01*
X215128Y176182D01*
X215061Y176123D01*
X214992Y176067D01*
X214920Y176014D01*
X214846Y175964D01*
X214770Y175918D01*
X214692Y175875D01*
X214612Y175836D01*
X214530Y175800D01*
X214447Y175768D01*
X214363Y175740D01*
X214277Y175715D01*
X214190Y175695D01*
X214103Y175678D01*
X214014Y175665D01*
X213926Y175656D01*
X213837Y175651D01*
X213748Y175650D01*
X213659Y175653D01*
X213570Y175660D01*
X213481Y175671D01*
X213393Y175686D01*
X213306Y175704D01*
X213220Y175727D01*
X213135Y175753D01*
X213051Y175784D01*
X212969Y175818D01*
X212888Y175855D01*
X212809Y175896D01*
X212732Y175941D01*
X212657Y175989D01*
X212584Y176040D01*
X212513Y176094D01*
X212445Y176152D01*
X212380Y176212D01*
X212317Y176276D01*
X212257Y176342D01*
X212200Y176411D01*
X212147Y176482D01*
X212096Y176555D01*
X212049Y176631D01*
X212006Y176708D01*
X211965Y176788D01*
X211929Y176869D01*
X211896Y176952D01*
X211867Y177036D01*
X211841Y177122D01*
X211819Y177208D01*
X211802Y177295D01*
X211788Y177383D01*
X211778Y177472D01*
X211772Y177561D01*
X211770Y177650D01*
X137040Y185010D02*
X137040Y185020D01*
X141740Y185020D01*
X141700Y115010D02*
X137000Y115010D01*
X137040Y180320D02*
X137040Y185010D01*
X136990Y119700D02*
X136990Y115000D01*
X202320Y115000D02*
X207020Y115000D01*
X207020Y114990D02*
X207020Y119690D01*
D13*
X160369Y194303D02*
X160369Y202141D01*
X160369Y194303D02*
X158802Y192735D01*
X155666Y192735D01*
X154099Y194303D01*
X154099Y202141D01*
X151014Y199006D02*
X147879Y202141D01*
X147879Y192735D01*
X151014Y192735D02*
X144744Y192735D01*
D14*
X218414Y179210D02*
X218414Y143650D01*
X238734Y143650D01*
X238734Y179210D01*
X218414Y179210D01*
D13*
X249862Y152413D02*
X256133Y161819D01*
X249862Y161819D02*
X256133Y152413D01*
X246778Y158684D02*
X243642Y161819D01*
X243642Y152413D01*
X240507Y152413D02*
X246778Y152413D01*
X232567Y260617D02*
X232567Y270023D01*
X227864Y270023D01*
X226296Y268455D01*
X226296Y265320D01*
X227864Y263752D01*
X232567Y263752D01*
X229432Y263752D02*
X226296Y260617D01*
X223212Y260617D02*
X216941Y260617D01*
X223212Y260617D02*
X216941Y266888D01*
X216941Y268455D01*
X218509Y270023D01*
X221644Y270023D01*
X223212Y268455D01*
D10*
X114139Y176774D02*
X94009Y176774D01*
D13*
X106482Y174221D02*
X108049Y175789D01*
X111185Y175789D01*
X112752Y174221D01*
X112752Y167951D01*
X111185Y166383D01*
X108049Y166383D01*
X106482Y167951D01*
X103397Y174221D02*
X101829Y175789D01*
X98694Y175789D01*
X97126Y174221D01*
X97126Y172654D01*
X98694Y171086D01*
X100262Y171086D01*
X98694Y171086D02*
X97126Y169518D01*
X97126Y167951D01*
X98694Y166383D01*
X101829Y166383D01*
X103397Y167951D01*
D10*
X104957Y118593D02*
X84827Y118593D01*
D13*
X96683Y126723D02*
X98250Y128291D01*
X101386Y128291D01*
X102953Y126723D01*
X102953Y120453D01*
X101386Y118885D01*
X98250Y118885D01*
X96683Y120453D01*
X88895Y118885D02*
X88895Y128291D01*
X93598Y123588D01*
X87328Y123588D01*
X235552Y107419D02*
X237120Y108987D01*
X240255Y108987D01*
X241823Y107419D01*
X241823Y101149D01*
X240255Y99581D01*
X237120Y99581D01*
X235552Y101149D01*
X232467Y108987D02*
X226197Y108987D01*
X232467Y108987D02*
X232467Y104284D01*
X229332Y105852D01*
X227764Y105852D01*
X226197Y104284D01*
X226197Y101149D01*
X227764Y99581D01*
X230900Y99581D01*
X232467Y101149D01*
X127038Y176043D02*
X125470Y174475D01*
X127038Y176043D02*
X130173Y176043D01*
X131741Y174475D01*
X131741Y168205D01*
X130173Y166637D01*
X127038Y166637D01*
X125470Y168205D01*
X119250Y174475D02*
X116115Y176043D01*
X119250Y174475D02*
X122386Y171340D01*
X122386Y168205D01*
X120818Y166637D01*
X117683Y166637D01*
X116115Y168205D01*
X116115Y169772D01*
X117683Y171340D01*
X122386Y171340D01*
X118824Y128291D02*
X117257Y126723D01*
X118824Y128291D02*
X121960Y128291D01*
X123527Y126723D01*
X123527Y120453D01*
X121960Y118885D01*
X118824Y118885D01*
X117257Y120453D01*
X114172Y128291D02*
X107902Y128291D01*
X107902Y126723D01*
X114172Y120453D01*
X114172Y118885D01*
X190677Y208002D02*
X189109Y209569D01*
X190677Y208002D02*
X190677Y204866D01*
X189109Y203299D01*
X182839Y203299D01*
X181271Y204866D01*
X181271Y208002D01*
X182839Y209569D01*
X189109Y212654D02*
X190677Y214221D01*
X190677Y217357D01*
X189109Y218925D01*
X187542Y218925D01*
X185974Y217357D01*
X184406Y218925D01*
X182839Y218925D01*
X181271Y217357D01*
X181271Y214221D01*
X182839Y212654D01*
X184406Y212654D01*
X185974Y214221D01*
X187542Y212654D01*
X189109Y212654D01*
X185974Y214221D02*
X185974Y217357D01*
X230033Y214353D02*
X231600Y215921D01*
X234736Y215921D01*
X236303Y214353D01*
X236303Y208083D01*
X234736Y206515D01*
X231600Y206515D01*
X230033Y208083D01*
X226948Y208083D02*
X225381Y206515D01*
X222245Y206515D01*
X220678Y208083D01*
X220678Y214353D01*
X222245Y215921D01*
X225381Y215921D01*
X226948Y214353D01*
X226948Y212786D01*
X225381Y211218D01*
X220678Y211218D01*
X300565Y150389D02*
X300565Y140983D01*
X300565Y150389D02*
X295862Y150389D01*
X294295Y148821D01*
X294295Y145686D01*
X295862Y144118D01*
X300565Y144118D01*
X297430Y144118D02*
X294295Y140983D01*
X291210Y148821D02*
X289643Y150389D01*
X286507Y150389D01*
X284940Y148821D01*
X284940Y147254D01*
X286507Y145686D01*
X288075Y145686D01*
X286507Y145686D02*
X284940Y144118D01*
X284940Y142551D01*
X286507Y140983D01*
X289643Y140983D01*
X291210Y142551D01*
X223689Y282715D02*
X223689Y292121D01*
X218986Y292121D01*
X217418Y290553D01*
X217418Y287418D01*
X218986Y285850D01*
X223689Y285850D01*
X220554Y285850D02*
X217418Y282715D01*
X209631Y282715D02*
X209631Y292121D01*
X214334Y287418D01*
X208063Y287418D01*
X140123Y291613D02*
X140123Y282207D01*
X140123Y291613D02*
X135420Y291613D01*
X133852Y290045D01*
X133852Y286910D01*
X135420Y285342D01*
X140123Y285342D01*
X136988Y285342D02*
X133852Y282207D01*
X130768Y291613D02*
X124497Y291613D01*
X130768Y291613D02*
X130768Y286910D01*
X127632Y288478D01*
X126065Y288478D01*
X124497Y286910D01*
X124497Y283775D01*
X126065Y282207D01*
X129200Y282207D01*
X130768Y283775D01*
M02*
