G04 EAGLE Gerber RS-274X export*
G75*
%MOMM*%
%FSLAX34Y34*%
%LPD*%
%INSoldermask Bottom*%
%IPPOS*%
%AMOC8*
5,1,8,0,0,1.08239X$1,22.5*%
G01*
%ADD10R,1.101600X1.201600*%
%ADD11R,1.601600X1.401600*%
%ADD12C,0.225016*%
%ADD13R,5.801588X5.801588*%
%ADD14R,1.501597X0.501600*%
%ADD15R,1.201600X1.101600*%
%ADD16R,2.601600X2.601600*%
%ADD17C,2.601600*%
%ADD18C,0.605878*%
%ADD19C,1.101597*%

G36*
X190482Y-498D02*
X190482Y-498D01*
X190576Y-486D01*
X190592Y-478D01*
X190610Y-475D01*
X190691Y-427D01*
X190775Y-384D01*
X190788Y-370D01*
X190804Y-361D01*
X190863Y-288D01*
X190927Y-218D01*
X190934Y-201D01*
X190945Y-187D01*
X190975Y-98D01*
X191011Y-10D01*
X191012Y10D01*
X191017Y26D01*
X191016Y76D01*
X191022Y177D01*
X190732Y3397D01*
X190725Y3421D01*
X190725Y3422D01*
X190725Y3423D01*
X190721Y3436D01*
X190716Y3492D01*
X190246Y5402D01*
X190231Y5435D01*
X190220Y5483D01*
X189380Y7613D01*
X189371Y7628D01*
X189364Y7649D01*
X188624Y9229D01*
X188605Y9256D01*
X188587Y9297D01*
X187657Y10777D01*
X187636Y10801D01*
X187614Y10838D01*
X186544Y12168D01*
X186537Y12174D01*
X186531Y12183D01*
X185321Y13593D01*
X185287Y13621D01*
X185245Y13668D01*
X183315Y15268D01*
X183286Y15285D01*
X183252Y15314D01*
X180552Y17044D01*
X180507Y17063D01*
X180436Y17103D01*
X178336Y17903D01*
X178316Y17906D01*
X178294Y17917D01*
X176444Y18477D01*
X176407Y18481D01*
X176360Y18496D01*
X173530Y18946D01*
X173488Y18946D01*
X173430Y18954D01*
X171170Y18954D01*
X171147Y18950D01*
X171117Y18952D01*
X169327Y18802D01*
X169298Y18794D01*
X169259Y18793D01*
X167349Y18423D01*
X167314Y18409D01*
X167263Y18399D01*
X165413Y17759D01*
X165401Y17753D01*
X165384Y17749D01*
X163514Y16999D01*
X163484Y16980D01*
X163440Y16964D01*
X161760Y16024D01*
X161735Y16003D01*
X161696Y15982D01*
X160096Y14812D01*
X160075Y14790D01*
X160043Y14769D01*
X158343Y13219D01*
X158320Y13189D01*
X158282Y13155D01*
X156762Y11325D01*
X156748Y11300D01*
X156723Y11272D01*
X155413Y9312D01*
X155400Y9283D01*
X155375Y9248D01*
X154515Y7558D01*
X154503Y7520D01*
X154479Y7472D01*
X153609Y4882D01*
X153603Y4845D01*
X153587Y4798D01*
X153217Y2838D01*
X153216Y2805D01*
X153207Y2764D01*
X153203Y2700D01*
X153186Y2620D01*
X153167Y2534D01*
X153107Y1664D01*
X153108Y1661D01*
X153107Y1659D01*
X153017Y189D01*
X153027Y105D01*
X153029Y20D01*
X153040Y-6D01*
X153043Y-34D01*
X153082Y-109D01*
X153113Y-188D01*
X153132Y-209D01*
X153145Y-234D01*
X153207Y-291D01*
X153265Y-354D01*
X153290Y-367D01*
X153310Y-386D01*
X153389Y-418D01*
X153464Y-456D01*
X153495Y-461D01*
X153518Y-470D01*
X153568Y-472D01*
X153649Y-484D01*
X190389Y-514D01*
X190482Y-498D01*
G37*
G36*
X51124Y59082D02*
X51124Y59082D01*
X51204Y59090D01*
X51238Y59105D01*
X51266Y59111D01*
X51306Y59136D01*
X51375Y59168D01*
X52055Y59608D01*
X52061Y59614D01*
X52071Y59619D01*
X53761Y60789D01*
X53789Y60816D01*
X53834Y60847D01*
X55254Y62177D01*
X55274Y62205D01*
X55310Y62237D01*
X57080Y64387D01*
X57094Y64413D01*
X57120Y64442D01*
X57960Y65722D01*
X57965Y65734D01*
X57967Y65736D01*
X57971Y65748D01*
X57974Y65754D01*
X58000Y65793D01*
X58720Y67273D01*
X58724Y67285D01*
X58732Y67299D01*
X59462Y68989D01*
X59472Y69030D01*
X59495Y69085D01*
X60005Y71115D01*
X60007Y71141D01*
X60017Y71172D01*
X60377Y73472D01*
X60376Y73515D01*
X60384Y73577D01*
X60354Y76247D01*
X60348Y76280D01*
X60349Y76325D01*
X60059Y78465D01*
X60049Y78495D01*
X60045Y78536D01*
X59495Y80706D01*
X59479Y80740D01*
X59467Y80790D01*
X58417Y83360D01*
X58401Y83385D01*
X58388Y83422D01*
X57548Y84972D01*
X57523Y85004D01*
X57495Y85053D01*
X56205Y86753D01*
X56181Y86776D01*
X56156Y86811D01*
X54406Y88621D01*
X54378Y88641D01*
X54347Y88675D01*
X52827Y89895D01*
X52800Y89909D01*
X52769Y89936D01*
X51109Y90986D01*
X51077Y90999D01*
X51039Y91024D01*
X48969Y91994D01*
X48952Y91999D01*
X48933Y92010D01*
X47563Y92550D01*
X47527Y92557D01*
X47481Y92576D01*
X45601Y93036D01*
X45576Y93038D01*
X45546Y93047D01*
X44176Y93257D01*
X44158Y93256D01*
X44135Y93262D01*
X42645Y93392D01*
X42619Y93389D01*
X42586Y93394D01*
X41126Y93384D01*
X41102Y93380D01*
X41072Y93382D01*
X39882Y93272D01*
X39867Y93268D01*
X39848Y93268D01*
X38478Y93068D01*
X38451Y93058D01*
X38413Y93054D01*
X37163Y92734D01*
X37151Y92729D01*
X37135Y92727D01*
X35755Y92307D01*
X35732Y92295D01*
X35698Y92286D01*
X34268Y91696D01*
X34267Y91695D01*
X34265Y91695D01*
X32785Y91075D01*
X32692Y91015D01*
X32600Y90956D01*
X32598Y90954D01*
X32597Y90953D01*
X32531Y90865D01*
X32464Y90777D01*
X32464Y90775D01*
X32462Y90773D01*
X32432Y90668D01*
X32400Y90562D01*
X32400Y90560D01*
X32399Y90558D01*
X32407Y90449D01*
X32414Y90338D01*
X32415Y90336D01*
X32415Y90334D01*
X32461Y90234D01*
X32506Y90133D01*
X32507Y90132D01*
X32508Y90130D01*
X32523Y90115D01*
X50482Y59380D01*
X50534Y59319D01*
X50580Y59253D01*
X50607Y59234D01*
X50628Y59209D01*
X50698Y59170D01*
X50764Y59124D01*
X50795Y59116D01*
X50824Y59100D01*
X50903Y59088D01*
X50981Y59068D01*
X51013Y59071D01*
X51046Y59066D01*
X51124Y59082D01*
G37*
G36*
X292960Y58970D02*
X292960Y58970D01*
X292977Y58968D01*
X293069Y58994D01*
X293163Y59014D01*
X293177Y59023D01*
X293193Y59028D01*
X293271Y59083D01*
X293352Y59135D01*
X293363Y59150D01*
X293376Y59159D01*
X293403Y59200D01*
X293469Y59282D01*
X311379Y90152D01*
X311408Y90232D01*
X311444Y90309D01*
X311446Y90337D01*
X311455Y90363D01*
X311454Y90448D01*
X311461Y90533D01*
X311454Y90559D01*
X311453Y90587D01*
X311423Y90667D01*
X311400Y90749D01*
X311383Y90771D01*
X311374Y90797D01*
X311317Y90861D01*
X311267Y90930D01*
X311242Y90947D01*
X311226Y90966D01*
X311182Y90989D01*
X311114Y91037D01*
X309514Y91837D01*
X309485Y91846D01*
X309451Y91865D01*
X307671Y92525D01*
X307642Y92530D01*
X307606Y92545D01*
X305556Y93065D01*
X305531Y93067D01*
X305500Y93076D01*
X303800Y93346D01*
X303765Y93346D01*
X303718Y93354D01*
X301978Y93404D01*
X301957Y93401D01*
X301929Y93404D01*
X300289Y93324D01*
X300264Y93318D01*
X300232Y93318D01*
X298312Y93048D01*
X298283Y93039D01*
X298244Y93035D01*
X296084Y92485D01*
X296047Y92468D01*
X295992Y92454D01*
X293332Y91324D01*
X293292Y91298D01*
X293224Y91265D01*
X291114Y89835D01*
X291095Y89817D01*
X291066Y89799D01*
X288936Y88039D01*
X288906Y88004D01*
X288854Y87958D01*
X287134Y85908D01*
X287116Y85876D01*
X287084Y85839D01*
X285584Y83469D01*
X285569Y83431D01*
X285538Y83382D01*
X284738Y81532D01*
X284729Y81495D01*
X284708Y81447D01*
X284038Y78987D01*
X284036Y78968D01*
X284029Y78947D01*
X283739Y77527D01*
X283738Y77499D01*
X283729Y77463D01*
X283579Y75953D01*
X283581Y75922D01*
X283576Y75883D01*
X283596Y74173D01*
X283600Y74152D01*
X283598Y74127D01*
X283728Y72587D01*
X283734Y72566D01*
X283734Y72538D01*
X284004Y70888D01*
X284017Y70851D01*
X284025Y70798D01*
X284605Y68968D01*
X284613Y68954D01*
X284617Y68935D01*
X285117Y67615D01*
X285130Y67593D01*
X285141Y67560D01*
X285721Y66380D01*
X285731Y66367D01*
X285738Y66348D01*
X286348Y65268D01*
X286364Y65248D01*
X286379Y65218D01*
X287199Y64038D01*
X287211Y64026D01*
X287222Y64007D01*
X288122Y62867D01*
X288147Y62845D01*
X288174Y62809D01*
X289224Y61769D01*
X289234Y61762D01*
X289244Y61750D01*
X290434Y60670D01*
X290453Y60658D01*
X290474Y60637D01*
X290829Y60365D01*
X290829Y60364D01*
X291640Y59742D01*
X291659Y59723D01*
X291939Y59513D01*
X291983Y59491D01*
X292551Y59084D01*
X292637Y59043D01*
X292721Y58998D01*
X292738Y58995D01*
X292753Y58988D01*
X292849Y58980D01*
X292944Y58966D01*
X292960Y58970D01*
G37*
G36*
X106522Y-499D02*
X106522Y-499D01*
X106606Y-492D01*
X106632Y-480D01*
X106661Y-475D01*
X106733Y-432D01*
X106809Y-396D01*
X106829Y-375D01*
X106854Y-361D01*
X106907Y-295D01*
X106966Y-235D01*
X106977Y-209D01*
X106995Y-187D01*
X107022Y-107D01*
X107056Y-30D01*
X107059Y2D01*
X107067Y26D01*
X107066Y75D01*
X107073Y157D01*
X106963Y2047D01*
X106959Y2065D01*
X106959Y2089D01*
X106629Y4719D01*
X106619Y4752D01*
X106614Y4798D01*
X106114Y6738D01*
X106104Y6760D01*
X106098Y6791D01*
X105608Y8181D01*
X105601Y8194D01*
X105596Y8213D01*
X105136Y9323D01*
X105130Y9332D01*
X105126Y9345D01*
X104566Y10565D01*
X104551Y10587D01*
X104538Y10620D01*
X103768Y11940D01*
X103753Y11957D01*
X103740Y11983D01*
X102700Y13473D01*
X102680Y13493D01*
X102660Y13525D01*
X100680Y15815D01*
X100652Y15838D01*
X100620Y15875D01*
X99340Y17005D01*
X99323Y17015D01*
X99307Y17033D01*
X97967Y18063D01*
X97948Y18073D01*
X97928Y18091D01*
X96478Y19041D01*
X96452Y19052D01*
X96422Y19073D01*
X94862Y19883D01*
X94845Y19888D01*
X94826Y19900D01*
X93216Y20610D01*
X93197Y20615D01*
X93175Y20627D01*
X91455Y21247D01*
X91421Y21252D01*
X91378Y21269D01*
X89488Y21689D01*
X89463Y21690D01*
X89432Y21699D01*
X86992Y22019D01*
X86960Y22017D01*
X86916Y22024D01*
X84956Y22044D01*
X84945Y22042D01*
X84931Y22044D01*
X83571Y22004D01*
X83544Y21998D01*
X83507Y21999D01*
X81917Y21789D01*
X81891Y21781D01*
X81857Y21778D01*
X79827Y21308D01*
X79811Y21301D01*
X79788Y21298D01*
X78048Y20778D01*
X78020Y20763D01*
X77979Y20753D01*
X75909Y19863D01*
X75896Y19854D01*
X75876Y19847D01*
X74416Y19117D01*
X74410Y19112D01*
X74402Y19110D01*
X74252Y18998D01*
X74222Y18968D01*
X74166Y18889D01*
X74107Y18811D01*
X74102Y18797D01*
X74093Y18784D01*
X74069Y18690D01*
X74040Y18597D01*
X74041Y18582D01*
X74038Y18567D01*
X74048Y18470D01*
X74053Y18373D01*
X74059Y18357D01*
X74061Y18344D01*
X74082Y18300D01*
X74123Y18199D01*
X84913Y-191D01*
X84920Y-199D01*
X84923Y-208D01*
X84992Y-284D01*
X85059Y-361D01*
X85068Y-366D01*
X85075Y-374D01*
X85166Y-421D01*
X85255Y-470D01*
X85265Y-472D01*
X85274Y-476D01*
X85460Y-504D01*
X106440Y-514D01*
X106522Y-499D01*
G37*
G36*
X258553Y-482D02*
X258553Y-482D01*
X258565Y-484D01*
X258663Y-462D01*
X258761Y-445D01*
X258772Y-438D01*
X258784Y-435D01*
X258868Y-381D01*
X258954Y-330D01*
X258962Y-321D01*
X258973Y-314D01*
X259089Y-167D01*
X269559Y17993D01*
X269583Y18060D01*
X269616Y18123D01*
X269621Y18165D01*
X269635Y18204D01*
X269635Y18275D01*
X269643Y18346D01*
X269633Y18387D01*
X269633Y18429D01*
X269608Y18495D01*
X269591Y18564D01*
X269568Y18599D01*
X269553Y18638D01*
X269506Y18692D01*
X269466Y18750D01*
X269428Y18780D01*
X269405Y18807D01*
X269367Y18827D01*
X269318Y18865D01*
X267588Y19825D01*
X267559Y19834D01*
X267525Y19855D01*
X265445Y20725D01*
X265412Y20732D01*
X265372Y20751D01*
X263312Y21331D01*
X263279Y21334D01*
X263237Y21347D01*
X261107Y21677D01*
X261091Y21676D01*
X261071Y21681D01*
X259521Y21831D01*
X259498Y21829D01*
X259470Y21834D01*
X257550Y21864D01*
X257520Y21859D01*
X257480Y21861D01*
X255700Y21691D01*
X255675Y21684D01*
X255641Y21683D01*
X253961Y21363D01*
X253946Y21357D01*
X253925Y21355D01*
X251975Y20865D01*
X251949Y20853D01*
X251913Y20846D01*
X249883Y20106D01*
X249857Y20091D01*
X249819Y20079D01*
X247609Y18989D01*
X247584Y18970D01*
X247546Y18953D01*
X245796Y17823D01*
X245776Y17804D01*
X245746Y17787D01*
X244386Y16707D01*
X244368Y16686D01*
X244339Y16666D01*
X242889Y15266D01*
X242875Y15246D01*
X242851Y15225D01*
X241881Y14105D01*
X241868Y14084D01*
X241846Y14061D01*
X240726Y12511D01*
X240717Y12494D01*
X240701Y12474D01*
X239981Y11314D01*
X239976Y11302D01*
X239966Y11289D01*
X239046Y9639D01*
X239038Y9617D01*
X239022Y9591D01*
X238312Y8021D01*
X238302Y7981D01*
X238278Y7927D01*
X237578Y5357D01*
X237577Y5339D01*
X237569Y5319D01*
X237249Y3779D01*
X237248Y3752D01*
X237239Y3719D01*
X237039Y1879D01*
X237041Y1864D01*
X237037Y1846D01*
X236957Y436D01*
X236959Y420D01*
X236956Y400D01*
X236956Y150D01*
X236967Y85D01*
X236969Y19D01*
X236987Y-24D01*
X236995Y-71D01*
X237029Y-128D01*
X237054Y-188D01*
X237085Y-223D01*
X237110Y-264D01*
X237161Y-306D01*
X237205Y-354D01*
X237247Y-376D01*
X237284Y-405D01*
X237346Y-426D01*
X237405Y-457D01*
X237459Y-465D01*
X237496Y-477D01*
X237536Y-476D01*
X237590Y-484D01*
X258540Y-484D01*
X258553Y-482D01*
G37*
G36*
X303011Y207306D02*
X303011Y207306D01*
X303031Y207310D01*
X303056Y207308D01*
X304846Y207468D01*
X304883Y207478D01*
X304934Y207482D01*
X307034Y207972D01*
X307068Y207987D01*
X307116Y207997D01*
X309316Y208837D01*
X309332Y208847D01*
X309354Y208853D01*
X310664Y209453D01*
X310741Y209507D01*
X310820Y209555D01*
X310832Y209570D01*
X310848Y209581D01*
X310902Y209658D01*
X310959Y209731D01*
X310965Y209750D01*
X310977Y209766D01*
X311000Y209856D01*
X311028Y209945D01*
X311028Y209964D01*
X311033Y209983D01*
X311023Y210076D01*
X311019Y210169D01*
X311011Y210189D01*
X311009Y210206D01*
X310987Y210251D01*
X310951Y210344D01*
X294001Y240134D01*
X293964Y240179D01*
X293935Y240229D01*
X293893Y240264D01*
X293858Y240306D01*
X293807Y240335D01*
X293762Y240372D01*
X293710Y240390D01*
X293663Y240417D01*
X293605Y240427D01*
X293550Y240446D01*
X293495Y240445D01*
X293442Y240454D01*
X293384Y240443D01*
X293326Y240442D01*
X293265Y240420D01*
X293221Y240412D01*
X293192Y240394D01*
X293149Y240378D01*
X293019Y240308D01*
X293001Y240294D01*
X292973Y240281D01*
X291473Y239301D01*
X291450Y239279D01*
X291413Y239256D01*
X289753Y237866D01*
X289732Y237841D01*
X289697Y237814D01*
X288337Y236364D01*
X288317Y236333D01*
X288282Y236296D01*
X287222Y234796D01*
X287213Y234777D01*
X287196Y234757D01*
X286306Y233277D01*
X286294Y233244D01*
X286269Y233204D01*
X285339Y231074D01*
X285330Y231039D01*
X285310Y230995D01*
X284610Y228555D01*
X284606Y228517D01*
X284592Y228467D01*
X284302Y226377D01*
X284303Y226339D01*
X284296Y226287D01*
X284306Y224197D01*
X284311Y224169D01*
X284310Y224131D01*
X284550Y221941D01*
X284559Y221909D01*
X284563Y221863D01*
X285043Y219843D01*
X285054Y219818D01*
X285061Y219782D01*
X285681Y217992D01*
X285699Y217960D01*
X285715Y217913D01*
X286605Y216163D01*
X286624Y216137D01*
X286642Y216099D01*
X287772Y214399D01*
X287797Y214372D01*
X287825Y214330D01*
X289635Y212280D01*
X289662Y212259D01*
X289692Y212223D01*
X290902Y211163D01*
X290919Y211153D01*
X290936Y211135D01*
X292106Y210245D01*
X292134Y210231D01*
X292167Y210204D01*
X293587Y209364D01*
X293614Y209354D01*
X293646Y209333D01*
X295046Y208693D01*
X295072Y208687D01*
X295101Y208671D01*
X297251Y207921D01*
X297284Y207916D01*
X297327Y207900D01*
X299377Y207460D01*
X299408Y207459D01*
X299449Y207449D01*
X301199Y207279D01*
X301230Y207281D01*
X301271Y207276D01*
X303011Y207306D01*
G37*
G36*
X43866Y207356D02*
X43866Y207356D01*
X43903Y207364D01*
X43955Y207366D01*
X45915Y207726D01*
X45942Y207736D01*
X45980Y207742D01*
X47840Y208292D01*
X47866Y208305D01*
X47903Y208314D01*
X49953Y209164D01*
X49980Y209182D01*
X50021Y209197D01*
X51781Y210187D01*
X51814Y210214D01*
X51868Y210246D01*
X53718Y211736D01*
X53731Y211751D01*
X53752Y211765D01*
X54882Y212815D01*
X54904Y212846D01*
X54943Y212881D01*
X56133Y214351D01*
X56147Y214377D01*
X56173Y214406D01*
X57423Y216346D01*
X57434Y216374D01*
X57457Y216405D01*
X58327Y218135D01*
X58336Y218166D01*
X58357Y218204D01*
X59087Y220224D01*
X59093Y220265D01*
X59113Y220321D01*
X59613Y222931D01*
X59613Y222960D01*
X59622Y222998D01*
X59792Y225048D01*
X59788Y225093D01*
X59791Y225161D01*
X59551Y227651D01*
X59544Y227678D01*
X59542Y227715D01*
X59122Y229805D01*
X59108Y229841D01*
X59097Y229895D01*
X58317Y232065D01*
X58298Y232098D01*
X58279Y232149D01*
X57339Y233909D01*
X57320Y233934D01*
X57302Y233971D01*
X56092Y235721D01*
X56079Y235734D01*
X56067Y235754D01*
X55227Y236814D01*
X55209Y236830D01*
X55191Y236856D01*
X54131Y237976D01*
X54106Y237994D01*
X54080Y238024D01*
X52830Y239084D01*
X52805Y239099D01*
X52777Y239124D01*
X51277Y240144D01*
X51181Y240187D01*
X51126Y240213D01*
X50894Y240363D01*
X50817Y240395D01*
X50743Y240434D01*
X50714Y240438D01*
X50687Y240449D01*
X50604Y240453D01*
X50521Y240464D01*
X50492Y240457D01*
X50463Y240458D01*
X50384Y240432D01*
X50302Y240414D01*
X50277Y240398D01*
X50250Y240389D01*
X50184Y240337D01*
X50114Y240291D01*
X50094Y240265D01*
X50074Y240249D01*
X50048Y240207D01*
X49999Y240143D01*
X33069Y210363D01*
X33039Y210280D01*
X33003Y210198D01*
X33002Y210174D01*
X32994Y210152D01*
X32995Y210063D01*
X32990Y209974D01*
X32997Y209952D01*
X32998Y209928D01*
X33030Y209845D01*
X33056Y209760D01*
X33071Y209741D01*
X33079Y209719D01*
X33138Y209652D01*
X33192Y209582D01*
X33214Y209567D01*
X33229Y209551D01*
X33273Y209527D01*
X33348Y209477D01*
X34148Y209097D01*
X34167Y209092D01*
X34189Y209079D01*
X36699Y208099D01*
X36732Y208093D01*
X36772Y208076D01*
X38602Y207606D01*
X38636Y207603D01*
X38681Y207591D01*
X40511Y207361D01*
X40534Y207362D01*
X40562Y207356D01*
X42132Y207286D01*
X42156Y207290D01*
X42186Y207286D01*
X43866Y207356D01*
G37*
G36*
X258838Y279301D02*
X258838Y279301D01*
X258878Y279298D01*
X261368Y279488D01*
X261399Y279496D01*
X261440Y279497D01*
X263510Y279897D01*
X263546Y279911D01*
X263597Y279921D01*
X266347Y280871D01*
X266379Y280888D01*
X266426Y280904D01*
X268726Y282064D01*
X268792Y282114D01*
X268863Y282157D01*
X268881Y282181D01*
X268905Y282199D01*
X268950Y282269D01*
X269001Y282334D01*
X269010Y282362D01*
X269026Y282387D01*
X269044Y282468D01*
X269069Y282548D01*
X269067Y282578D01*
X269074Y282607D01*
X269062Y282689D01*
X269058Y282772D01*
X269046Y282803D01*
X269042Y282829D01*
X269019Y282872D01*
X268990Y282946D01*
X259080Y300166D01*
X259072Y300176D01*
X259067Y300188D01*
X259000Y300261D01*
X258935Y300338D01*
X258924Y300344D01*
X258915Y300354D01*
X258827Y300399D01*
X258740Y300449D01*
X258727Y300451D01*
X258716Y300456D01*
X258531Y300484D01*
X238561Y300504D01*
X238468Y300488D01*
X238375Y300477D01*
X238359Y300468D01*
X238340Y300465D01*
X238259Y300417D01*
X238176Y300375D01*
X238163Y300361D01*
X238146Y300351D01*
X238087Y300278D01*
X238024Y300209D01*
X238017Y300192D01*
X238005Y300177D01*
X237975Y300088D01*
X237940Y300001D01*
X237938Y299980D01*
X237933Y299964D01*
X237934Y299914D01*
X237928Y299814D01*
X237980Y299231D01*
X237979Y299210D01*
X238019Y298790D01*
X238021Y298783D01*
X238199Y296968D01*
X238206Y296943D01*
X238207Y296909D01*
X238597Y294909D01*
X238608Y294882D01*
X238613Y294846D01*
X239323Y292506D01*
X239340Y292473D01*
X239355Y292423D01*
X240175Y290653D01*
X240182Y290643D01*
X240187Y290628D01*
X241107Y288858D01*
X241134Y288823D01*
X241163Y288769D01*
X242593Y286869D01*
X242605Y286858D01*
X242615Y286841D01*
X243525Y285761D01*
X243550Y285740D01*
X243577Y285706D01*
X245217Y284176D01*
X245233Y284166D01*
X245249Y284148D01*
X246599Y283048D01*
X246632Y283030D01*
X246673Y282997D01*
X248713Y281767D01*
X248737Y281757D01*
X248765Y281738D01*
X250305Y280998D01*
X250331Y280991D01*
X250361Y280975D01*
X252671Y280125D01*
X252701Y280120D01*
X252738Y280104D01*
X254558Y279654D01*
X254587Y279652D01*
X254623Y279642D01*
X256493Y279382D01*
X256521Y279383D01*
X256557Y279376D01*
X258807Y279296D01*
X258838Y279301D01*
G37*
G36*
X86587Y279321D02*
X86587Y279321D01*
X86631Y279320D01*
X88661Y279550D01*
X88683Y279556D01*
X88711Y279557D01*
X90411Y279887D01*
X90440Y279899D01*
X90482Y279906D01*
X93442Y280846D01*
X93482Y280867D01*
X93546Y280889D01*
X95836Y282099D01*
X95858Y282117D01*
X95891Y282132D01*
X98341Y283762D01*
X98373Y283792D01*
X98424Y283828D01*
X100734Y285998D01*
X100760Y286033D01*
X100806Y286077D01*
X102496Y288307D01*
X102509Y288334D01*
X102534Y288364D01*
X103854Y290564D01*
X103867Y290598D01*
X103894Y290642D01*
X104894Y292992D01*
X104902Y293030D01*
X104924Y293081D01*
X105614Y295751D01*
X105616Y295783D01*
X105628Y295824D01*
X105868Y297574D01*
X105868Y297592D01*
X105873Y297614D01*
X106033Y299834D01*
X106023Y299923D01*
X106021Y300011D01*
X106011Y300033D01*
X106009Y300058D01*
X105969Y300137D01*
X105936Y300219D01*
X105920Y300237D01*
X105909Y300258D01*
X105844Y300319D01*
X105784Y300384D01*
X105763Y300395D01*
X105745Y300412D01*
X105664Y300446D01*
X105585Y300487D01*
X105558Y300491D01*
X105539Y300499D01*
X105488Y300501D01*
X105399Y300514D01*
X85449Y300494D01*
X85435Y300492D01*
X85420Y300494D01*
X85324Y300472D01*
X85229Y300454D01*
X85216Y300447D01*
X85201Y300443D01*
X85119Y300390D01*
X85036Y300340D01*
X85026Y300328D01*
X85013Y300320D01*
X84898Y300172D01*
X75098Y282852D01*
X75079Y282798D01*
X75051Y282747D01*
X75042Y282693D01*
X75024Y282641D01*
X75025Y282583D01*
X75016Y282526D01*
X75027Y282472D01*
X75028Y282416D01*
X75049Y282363D01*
X75061Y282306D01*
X75090Y282259D01*
X75110Y282207D01*
X75149Y282164D01*
X75179Y282115D01*
X75230Y282073D01*
X75260Y282040D01*
X75289Y282025D01*
X75324Y281996D01*
X75524Y281876D01*
X75543Y281869D01*
X75563Y281854D01*
X76333Y281464D01*
X76357Y281457D01*
X76383Y281442D01*
X78343Y280652D01*
X78359Y280649D01*
X78376Y280639D01*
X80086Y280059D01*
X80112Y280056D01*
X80143Y280043D01*
X82373Y279513D01*
X82413Y279511D01*
X82468Y279498D01*
X84428Y279338D01*
X84449Y279340D01*
X84474Y279336D01*
X86554Y279316D01*
X86587Y279321D01*
G37*
G36*
X8670Y132513D02*
X8670Y132513D01*
X8762Y132526D01*
X8782Y132535D01*
X8799Y132539D01*
X8842Y132565D01*
X8930Y132608D01*
X10054Y133383D01*
X11437Y134289D01*
X11470Y134320D01*
X11523Y134357D01*
X13553Y136257D01*
X13580Y136293D01*
X13627Y136339D01*
X15047Y138229D01*
X15050Y138236D01*
X15057Y138242D01*
X16387Y140112D01*
X16407Y140155D01*
X16447Y140216D01*
X17477Y142466D01*
X17486Y142501D01*
X17507Y142547D01*
X18457Y145697D01*
X18461Y145731D01*
X18476Y145775D01*
X18856Y148045D01*
X18855Y148075D01*
X18863Y148113D01*
X18993Y150363D01*
X18988Y150402D01*
X18992Y150457D01*
X18722Y153437D01*
X18711Y153475D01*
X18707Y153528D01*
X18177Y155738D01*
X18159Y155778D01*
X18143Y155839D01*
X16723Y159169D01*
X16706Y159195D01*
X16691Y159235D01*
X15651Y161055D01*
X15624Y161087D01*
X15594Y161138D01*
X13534Y163698D01*
X13502Y163725D01*
X13463Y163772D01*
X11923Y165152D01*
X11907Y165162D01*
X11891Y165180D01*
X10151Y166540D01*
X10124Y166554D01*
X10095Y166579D01*
X8945Y167293D01*
X8922Y167319D01*
X8897Y167332D01*
X8877Y167351D01*
X8799Y167384D01*
X8724Y167424D01*
X8696Y167428D01*
X8670Y167439D01*
X8586Y167442D01*
X8502Y167454D01*
X8474Y167447D01*
X8446Y167449D01*
X8365Y167423D01*
X8283Y167404D01*
X8259Y167389D01*
X8232Y167380D01*
X8130Y167305D01*
X8095Y167282D01*
X8089Y167274D01*
X8082Y167268D01*
X8072Y167258D01*
X8057Y167237D01*
X8037Y167221D01*
X8007Y167170D01*
X7979Y167134D01*
X7951Y167086D01*
X7943Y167074D01*
X7942Y167070D01*
X-1601Y150334D01*
X-1604Y150326D01*
X-1610Y150319D01*
X-1642Y150220D01*
X-1676Y150123D01*
X-1676Y150114D01*
X-1679Y150105D01*
X-1674Y150001D01*
X-1672Y149898D01*
X-1669Y149890D01*
X-1669Y149881D01*
X-1601Y149706D01*
X8019Y132816D01*
X8078Y132745D01*
X8133Y132670D01*
X8150Y132659D01*
X8163Y132644D01*
X8243Y132598D01*
X8321Y132547D01*
X8340Y132542D01*
X8357Y132532D01*
X8449Y132517D01*
X8540Y132496D01*
X8559Y132499D01*
X8579Y132496D01*
X8670Y132513D01*
G37*
G36*
X335542Y132574D02*
X335542Y132574D01*
X335576Y132573D01*
X335651Y132599D01*
X335728Y132616D01*
X335756Y132635D01*
X335788Y132646D01*
X335849Y132696D01*
X335916Y132739D01*
X335939Y132769D01*
X335962Y132788D01*
X335986Y132829D01*
X336031Y132886D01*
X345601Y149706D01*
X345605Y149716D01*
X345611Y149724D01*
X345642Y149821D01*
X345676Y149918D01*
X345676Y149928D01*
X345679Y149937D01*
X345674Y150040D01*
X345672Y150142D01*
X345669Y150151D01*
X345668Y150161D01*
X345600Y150336D01*
X335940Y167146D01*
X335936Y167150D01*
X335935Y167154D01*
X335931Y167158D01*
X335927Y167167D01*
X335860Y167241D01*
X335795Y167318D01*
X335785Y167324D01*
X335776Y167333D01*
X335688Y167379D01*
X335600Y167428D01*
X335588Y167430D01*
X335577Y167436D01*
X335478Y167448D01*
X335379Y167464D01*
X335367Y167462D01*
X335354Y167463D01*
X335171Y167425D01*
X334981Y167355D01*
X334938Y167330D01*
X334844Y167285D01*
X333664Y166485D01*
X333658Y166479D01*
X333647Y166473D01*
X332407Y165573D01*
X332380Y165545D01*
X332337Y165514D01*
X330547Y163764D01*
X330530Y163740D01*
X330501Y163714D01*
X329011Y161914D01*
X328998Y161890D01*
X328974Y161864D01*
X327474Y159634D01*
X327456Y159594D01*
X327422Y159541D01*
X326452Y157391D01*
X326446Y157366D01*
X326431Y157338D01*
X325731Y155318D01*
X325724Y155278D01*
X325706Y155224D01*
X325316Y153084D01*
X325316Y153057D01*
X325308Y153023D01*
X325068Y150173D01*
X325071Y150143D01*
X325066Y150102D01*
X325136Y147612D01*
X325146Y147566D01*
X325151Y147491D01*
X325881Y144241D01*
X325895Y144209D01*
X325904Y144164D01*
X326854Y141544D01*
X326877Y141504D01*
X326904Y141438D01*
X328344Y138998D01*
X328365Y138973D01*
X328385Y138936D01*
X329965Y136856D01*
X329990Y136834D01*
X330016Y136797D01*
X331606Y135167D01*
X331633Y135148D01*
X331664Y135115D01*
X333214Y133875D01*
X333242Y133860D01*
X333274Y133832D01*
X335144Y132662D01*
X335217Y132633D01*
X335287Y132596D01*
X335320Y132591D01*
X335352Y132579D01*
X335431Y132577D01*
X335509Y132566D01*
X335542Y132574D01*
G37*
D10*
X254459Y172488D03*
X254459Y189488D03*
D11*
X255136Y119038D03*
X255136Y138038D03*
D12*
X203617Y176867D02*
X203617Y178133D01*
X209383Y178133D01*
X209383Y176867D01*
X203617Y176867D01*
X203617Y173133D02*
X203617Y171867D01*
X203617Y173133D02*
X209383Y173133D01*
X209383Y171867D01*
X203617Y171867D01*
X203617Y168133D02*
X203617Y166867D01*
X203617Y168133D02*
X209383Y168133D01*
X209383Y166867D01*
X203617Y166867D01*
X203617Y163133D02*
X203617Y161867D01*
X203617Y163133D02*
X209383Y163133D01*
X209383Y161867D01*
X203617Y161867D01*
X203617Y158133D02*
X203617Y156867D01*
X203617Y158133D02*
X209383Y158133D01*
X209383Y156867D01*
X203617Y156867D01*
X203617Y153133D02*
X203617Y151867D01*
X203617Y153133D02*
X209383Y153133D01*
X209383Y151867D01*
X203617Y151867D01*
X203617Y148133D02*
X203617Y146867D01*
X203617Y148133D02*
X209383Y148133D01*
X209383Y146867D01*
X203617Y146867D01*
X203617Y143133D02*
X203617Y141867D01*
X203617Y143133D02*
X209383Y143133D01*
X209383Y141867D01*
X203617Y141867D01*
X203617Y138133D02*
X203617Y136867D01*
X203617Y138133D02*
X209383Y138133D01*
X209383Y136867D01*
X203617Y136867D01*
X203617Y133133D02*
X203617Y131867D01*
X203617Y133133D02*
X209383Y133133D01*
X209383Y131867D01*
X203617Y131867D01*
X203617Y128133D02*
X203617Y126867D01*
X203617Y128133D02*
X209383Y128133D01*
X209383Y126867D01*
X203617Y126867D01*
X203617Y123133D02*
X203617Y121867D01*
X203617Y123133D02*
X209383Y123133D01*
X209383Y121867D01*
X203617Y121867D01*
X200133Y118383D02*
X198867Y118383D01*
X200133Y118383D02*
X200133Y112617D01*
X198867Y112617D01*
X198867Y118383D01*
X198867Y114754D02*
X200133Y114754D01*
X200133Y116891D02*
X198867Y116891D01*
X195133Y118383D02*
X193867Y118383D01*
X195133Y118383D02*
X195133Y112617D01*
X193867Y112617D01*
X193867Y118383D01*
X193867Y114754D02*
X195133Y114754D01*
X195133Y116891D02*
X193867Y116891D01*
X190133Y118383D02*
X188867Y118383D01*
X190133Y118383D02*
X190133Y112617D01*
X188867Y112617D01*
X188867Y118383D01*
X188867Y114754D02*
X190133Y114754D01*
X190133Y116891D02*
X188867Y116891D01*
X185133Y118383D02*
X183867Y118383D01*
X185133Y118383D02*
X185133Y112617D01*
X183867Y112617D01*
X183867Y118383D01*
X183867Y114754D02*
X185133Y114754D01*
X185133Y116891D02*
X183867Y116891D01*
X180133Y118383D02*
X178867Y118383D01*
X180133Y118383D02*
X180133Y112617D01*
X178867Y112617D01*
X178867Y118383D01*
X178867Y114754D02*
X180133Y114754D01*
X180133Y116891D02*
X178867Y116891D01*
X175133Y118383D02*
X173867Y118383D01*
X175133Y118383D02*
X175133Y112617D01*
X173867Y112617D01*
X173867Y118383D01*
X173867Y114754D02*
X175133Y114754D01*
X175133Y116891D02*
X173867Y116891D01*
X170133Y118383D02*
X168867Y118383D01*
X170133Y118383D02*
X170133Y112617D01*
X168867Y112617D01*
X168867Y118383D01*
X168867Y114754D02*
X170133Y114754D01*
X170133Y116891D02*
X168867Y116891D01*
X165133Y118383D02*
X163867Y118383D01*
X165133Y118383D02*
X165133Y112617D01*
X163867Y112617D01*
X163867Y118383D01*
X163867Y114754D02*
X165133Y114754D01*
X165133Y116891D02*
X163867Y116891D01*
X160133Y118383D02*
X158867Y118383D01*
X160133Y118383D02*
X160133Y112617D01*
X158867Y112617D01*
X158867Y118383D01*
X158867Y114754D02*
X160133Y114754D01*
X160133Y116891D02*
X158867Y116891D01*
X155133Y118383D02*
X153867Y118383D01*
X155133Y118383D02*
X155133Y112617D01*
X153867Y112617D01*
X153867Y118383D01*
X153867Y114754D02*
X155133Y114754D01*
X155133Y116891D02*
X153867Y116891D01*
X150133Y118383D02*
X148867Y118383D01*
X150133Y118383D02*
X150133Y112617D01*
X148867Y112617D01*
X148867Y118383D01*
X148867Y114754D02*
X150133Y114754D01*
X150133Y116891D02*
X148867Y116891D01*
X145133Y118383D02*
X143867Y118383D01*
X145133Y118383D02*
X145133Y112617D01*
X143867Y112617D01*
X143867Y118383D01*
X143867Y114754D02*
X145133Y114754D01*
X145133Y116891D02*
X143867Y116891D01*
X140383Y121867D02*
X140383Y123133D01*
X140383Y121867D02*
X134617Y121867D01*
X134617Y123133D01*
X140383Y123133D01*
X140383Y126867D02*
X140383Y128133D01*
X140383Y126867D02*
X134617Y126867D01*
X134617Y128133D01*
X140383Y128133D01*
X140383Y131867D02*
X140383Y133133D01*
X140383Y131867D02*
X134617Y131867D01*
X134617Y133133D01*
X140383Y133133D01*
X140383Y136867D02*
X140383Y138133D01*
X140383Y136867D02*
X134617Y136867D01*
X134617Y138133D01*
X140383Y138133D01*
X140383Y141867D02*
X140383Y143133D01*
X140383Y141867D02*
X134617Y141867D01*
X134617Y143133D01*
X140383Y143133D01*
X140383Y146867D02*
X140383Y148133D01*
X140383Y146867D02*
X134617Y146867D01*
X134617Y148133D01*
X140383Y148133D01*
X140383Y151867D02*
X140383Y153133D01*
X140383Y151867D02*
X134617Y151867D01*
X134617Y153133D01*
X140383Y153133D01*
X140383Y156867D02*
X140383Y158133D01*
X140383Y156867D02*
X134617Y156867D01*
X134617Y158133D01*
X140383Y158133D01*
X140383Y161867D02*
X140383Y163133D01*
X140383Y161867D02*
X134617Y161867D01*
X134617Y163133D01*
X140383Y163133D01*
X140383Y166867D02*
X140383Y168133D01*
X140383Y166867D02*
X134617Y166867D01*
X134617Y168133D01*
X140383Y168133D01*
X140383Y171867D02*
X140383Y173133D01*
X140383Y171867D02*
X134617Y171867D01*
X134617Y173133D01*
X140383Y173133D01*
X140383Y176867D02*
X140383Y178133D01*
X140383Y176867D02*
X134617Y176867D01*
X134617Y178133D01*
X140383Y178133D01*
X143867Y181617D02*
X145133Y181617D01*
X143867Y181617D02*
X143867Y187383D01*
X145133Y187383D01*
X145133Y181617D01*
X145133Y183754D02*
X143867Y183754D01*
X143867Y185891D02*
X145133Y185891D01*
X148867Y181617D02*
X150133Y181617D01*
X148867Y181617D02*
X148867Y187383D01*
X150133Y187383D01*
X150133Y181617D01*
X150133Y183754D02*
X148867Y183754D01*
X148867Y185891D02*
X150133Y185891D01*
X153867Y181617D02*
X155133Y181617D01*
X153867Y181617D02*
X153867Y187383D01*
X155133Y187383D01*
X155133Y181617D01*
X155133Y183754D02*
X153867Y183754D01*
X153867Y185891D02*
X155133Y185891D01*
X158867Y181617D02*
X160133Y181617D01*
X158867Y181617D02*
X158867Y187383D01*
X160133Y187383D01*
X160133Y181617D01*
X160133Y183754D02*
X158867Y183754D01*
X158867Y185891D02*
X160133Y185891D01*
X163867Y181617D02*
X165133Y181617D01*
X163867Y181617D02*
X163867Y187383D01*
X165133Y187383D01*
X165133Y181617D01*
X165133Y183754D02*
X163867Y183754D01*
X163867Y185891D02*
X165133Y185891D01*
X168867Y181617D02*
X170133Y181617D01*
X168867Y181617D02*
X168867Y187383D01*
X170133Y187383D01*
X170133Y181617D01*
X170133Y183754D02*
X168867Y183754D01*
X168867Y185891D02*
X170133Y185891D01*
X173867Y181617D02*
X175133Y181617D01*
X173867Y181617D02*
X173867Y187383D01*
X175133Y187383D01*
X175133Y181617D01*
X175133Y183754D02*
X173867Y183754D01*
X173867Y185891D02*
X175133Y185891D01*
X178867Y181617D02*
X180133Y181617D01*
X178867Y181617D02*
X178867Y187383D01*
X180133Y187383D01*
X180133Y181617D01*
X180133Y183754D02*
X178867Y183754D01*
X178867Y185891D02*
X180133Y185891D01*
X183867Y181617D02*
X185133Y181617D01*
X183867Y181617D02*
X183867Y187383D01*
X185133Y187383D01*
X185133Y181617D01*
X185133Y183754D02*
X183867Y183754D01*
X183867Y185891D02*
X185133Y185891D01*
X188867Y181617D02*
X190133Y181617D01*
X188867Y181617D02*
X188867Y187383D01*
X190133Y187383D01*
X190133Y181617D01*
X190133Y183754D02*
X188867Y183754D01*
X188867Y185891D02*
X190133Y185891D01*
X193867Y181617D02*
X195133Y181617D01*
X193867Y181617D02*
X193867Y187383D01*
X195133Y187383D01*
X195133Y181617D01*
X195133Y183754D02*
X193867Y183754D01*
X193867Y185891D02*
X195133Y185891D01*
X198867Y181617D02*
X200133Y181617D01*
X198867Y181617D02*
X198867Y187383D01*
X200133Y187383D01*
X200133Y181617D01*
X200133Y183754D02*
X198867Y183754D01*
X198867Y185891D02*
X200133Y185891D01*
D13*
X172000Y150000D03*
D14*
X228574Y173430D03*
X228574Y161430D03*
X228574Y149430D03*
D10*
X223772Y250584D03*
X240772Y250584D03*
D11*
X104182Y187429D03*
X104182Y206429D03*
X94784Y107938D03*
X94784Y88938D03*
D10*
X234484Y117524D03*
X234484Y134524D03*
X125010Y184680D03*
X125010Y201680D03*
X116628Y107700D03*
X116628Y90700D03*
X203750Y197380D03*
X203750Y214380D03*
D15*
X220650Y194958D03*
X237650Y194958D03*
X275378Y164088D03*
X275378Y147088D03*
D10*
X199804Y287414D03*
X182804Y287414D03*
X165768Y287414D03*
X148768Y287414D03*
D16*
X196384Y251346D03*
D17*
X145584Y251346D03*
D18*
X75625Y177879D02*
X64667Y177879D01*
X75625Y177879D02*
X75625Y172921D01*
X64667Y172921D01*
X64667Y177879D01*
X64667Y203279D02*
X75625Y203279D01*
X75625Y198321D01*
X64667Y198321D01*
X64667Y203279D01*
X250341Y246459D02*
X261299Y246459D01*
X261299Y241501D01*
X250341Y241501D01*
X250341Y246459D01*
X287171Y176609D02*
X298129Y176609D01*
X298129Y171651D01*
X287171Y171651D01*
X287171Y176609D01*
D19*
X335300Y149800D03*
X295300Y78800D03*
X254300Y7800D03*
X172300Y7800D03*
X90300Y7800D03*
X48300Y78800D03*
X8300Y149800D03*
X49300Y220800D03*
X90300Y291800D03*
X254300Y292800D03*
X295300Y220800D03*
M02*
