G04 EAGLE Gerber RS-274X export*
G75*
%MOMM*%
%FSLAX34Y34*%
%LPD*%
%INSoldermask Top*%
%IPPOS*%
%AMOC8*
5,1,8,0,0,1.08239X$1,22.5*%
G01*
%ADD10R,0.901600X0.901600*%
%ADD11R,1.101600X1.201600*%
%ADD12R,0.551600X1.101600*%
%ADD13R,2.601600X2.601600*%
%ADD14C,2.601600*%
%ADD15R,1.201600X1.101600*%
%ADD16C,0.605878*%
%ADD17C,1.101597*%

G36*
X190439Y-500D02*
X190439Y-500D01*
X190519Y-494D01*
X190548Y-480D01*
X190580Y-475D01*
X190650Y-434D01*
X190723Y-400D01*
X190746Y-377D01*
X190774Y-361D01*
X190824Y-298D01*
X190881Y-242D01*
X190895Y-212D01*
X190915Y-187D01*
X190941Y-111D01*
X190974Y-37D01*
X190978Y-1D01*
X190987Y26D01*
X190986Y74D01*
X190994Y149D01*
X190924Y1679D01*
X190916Y1713D01*
X190915Y1759D01*
X190445Y4449D01*
X190432Y4483D01*
X190425Y4532D01*
X189505Y7432D01*
X189486Y7467D01*
X189468Y7522D01*
X188388Y9702D01*
X188362Y9737D01*
X188332Y9794D01*
X186512Y12284D01*
X186481Y12314D01*
X186444Y12363D01*
X184454Y14313D01*
X184425Y14333D01*
X184392Y14366D01*
X182512Y15786D01*
X182487Y15799D01*
X182459Y15822D01*
X180679Y16902D01*
X180645Y16915D01*
X180602Y16942D01*
X178502Y17852D01*
X178468Y17860D01*
X178425Y17880D01*
X175745Y18650D01*
X175704Y18654D01*
X175646Y18670D01*
X173166Y18970D01*
X173133Y18968D01*
X173090Y18974D01*
X170330Y18974D01*
X170284Y18966D01*
X170211Y18963D01*
X167541Y18453D01*
X167514Y18443D01*
X167476Y18437D01*
X164996Y17687D01*
X164956Y17667D01*
X164892Y17645D01*
X162082Y16215D01*
X162047Y16189D01*
X161990Y16158D01*
X159130Y14018D01*
X159097Y13982D01*
X159036Y13932D01*
X156926Y11562D01*
X156907Y11530D01*
X156873Y11492D01*
X155463Y9382D01*
X155447Y9347D01*
X155417Y9301D01*
X154087Y6491D01*
X154074Y6443D01*
X154042Y6364D01*
X153282Y3104D01*
X153281Y3080D01*
X153272Y3050D01*
X153138Y2117D01*
X153138Y2116D01*
X152902Y470D01*
X152903Y454D01*
X152898Y435D01*
X152878Y205D01*
X152887Y113D01*
X152889Y20D01*
X152897Y1D01*
X152899Y-19D01*
X152939Y-102D01*
X152973Y-188D01*
X152987Y-203D01*
X152995Y-221D01*
X153062Y-285D01*
X153125Y-354D01*
X153142Y-363D01*
X153157Y-377D01*
X153242Y-414D01*
X153324Y-456D01*
X153346Y-460D01*
X153362Y-467D01*
X153413Y-470D01*
X153509Y-484D01*
X190359Y-514D01*
X190439Y-500D01*
G37*
G36*
X51152Y58988D02*
X51152Y58988D01*
X51211Y58989D01*
X51271Y59012D01*
X51314Y59021D01*
X51343Y59039D01*
X51386Y59055D01*
X51966Y59375D01*
X51998Y59400D01*
X52049Y59429D01*
X53919Y60879D01*
X53945Y60908D01*
X53987Y60940D01*
X55537Y62550D01*
X55549Y62568D01*
X55569Y62586D01*
X57079Y64416D01*
X57101Y64454D01*
X57140Y64504D01*
X58580Y67014D01*
X58593Y67050D01*
X58620Y67096D01*
X59660Y69716D01*
X59668Y69757D01*
X59689Y69814D01*
X60299Y72584D01*
X60301Y72632D01*
X60314Y72708D01*
X60374Y75818D01*
X60369Y75848D01*
X60371Y75889D01*
X60121Y78549D01*
X60109Y78595D01*
X60098Y78670D01*
X59288Y81410D01*
X59269Y81447D01*
X59252Y81505D01*
X57902Y84315D01*
X57882Y84343D01*
X57862Y84385D01*
X56522Y86455D01*
X56493Y86487D01*
X56456Y86540D01*
X54686Y88460D01*
X54652Y88486D01*
X54608Y88531D01*
X52568Y90111D01*
X52542Y90125D01*
X52512Y90150D01*
X50982Y91090D01*
X50954Y91101D01*
X50920Y91124D01*
X48670Y92184D01*
X48633Y92194D01*
X48586Y92216D01*
X46696Y92796D01*
X46674Y92799D01*
X46649Y92809D01*
X44639Y93259D01*
X44611Y93260D01*
X44577Y93270D01*
X42857Y93480D01*
X42815Y93477D01*
X42756Y93484D01*
X40686Y93404D01*
X40659Y93398D01*
X40624Y93398D01*
X38934Y93168D01*
X38912Y93161D01*
X38881Y93159D01*
X36831Y92699D01*
X36795Y92684D01*
X36741Y92671D01*
X34831Y91931D01*
X34811Y91919D01*
X34806Y91917D01*
X34803Y91917D01*
X34802Y91916D01*
X34782Y91910D01*
X33085Y91080D01*
X33056Y91076D01*
X32992Y91053D01*
X32926Y91039D01*
X32887Y91015D01*
X32844Y91000D01*
X32793Y90957D01*
X32735Y90921D01*
X32707Y90885D01*
X32673Y90856D01*
X32639Y90797D01*
X32598Y90744D01*
X32584Y90700D01*
X32562Y90661D01*
X32551Y90594D01*
X32531Y90530D01*
X32533Y90484D01*
X32526Y90439D01*
X32539Y90373D01*
X32542Y90306D01*
X32562Y90257D01*
X32569Y90219D01*
X32590Y90185D01*
X32612Y90131D01*
X50532Y59291D01*
X50570Y59246D01*
X50600Y59196D01*
X50642Y59162D01*
X50677Y59120D01*
X50728Y59092D01*
X50774Y59055D01*
X50825Y59037D01*
X50873Y59011D01*
X50931Y59002D01*
X50986Y58983D01*
X51041Y58984D01*
X51094Y58976D01*
X51152Y58988D01*
G37*
G36*
X292997Y59041D02*
X292997Y59041D01*
X293021Y59040D01*
X293106Y59065D01*
X293193Y59084D01*
X293213Y59097D01*
X293236Y59104D01*
X293307Y59157D01*
X293382Y59205D01*
X293398Y59226D01*
X293415Y59239D01*
X293442Y59281D01*
X293499Y59352D01*
X311379Y90162D01*
X311409Y90246D01*
X311446Y90329D01*
X311447Y90351D01*
X311455Y90373D01*
X311454Y90463D01*
X311460Y90553D01*
X311454Y90574D01*
X311453Y90597D01*
X311421Y90681D01*
X311395Y90767D01*
X311382Y90786D01*
X311374Y90807D01*
X311314Y90874D01*
X311260Y90946D01*
X311239Y90960D01*
X311226Y90976D01*
X311182Y91000D01*
X311105Y91052D01*
X309795Y91682D01*
X309778Y91686D01*
X309760Y91697D01*
X308170Y92347D01*
X308145Y92352D01*
X308115Y92367D01*
X306545Y92847D01*
X306518Y92850D01*
X306485Y92862D01*
X304745Y93212D01*
X304720Y93212D01*
X304690Y93220D01*
X302790Y93430D01*
X302759Y93428D01*
X302720Y93434D01*
X301060Y93434D01*
X301029Y93429D01*
X300987Y93430D01*
X298927Y93190D01*
X298899Y93182D01*
X298861Y93179D01*
X296991Y92759D01*
X296959Y92745D01*
X296913Y92736D01*
X294963Y92026D01*
X294942Y92014D01*
X294912Y92005D01*
X292962Y91095D01*
X292929Y91072D01*
X292878Y91048D01*
X290958Y89768D01*
X290933Y89743D01*
X290892Y89717D01*
X289132Y88177D01*
X289119Y88160D01*
X289097Y88144D01*
X287627Y86644D01*
X287600Y86605D01*
X287551Y86550D01*
X286131Y84400D01*
X286116Y84364D01*
X286086Y84321D01*
X285086Y82201D01*
X285079Y82174D01*
X285062Y82143D01*
X284222Y79783D01*
X284217Y79748D01*
X284200Y79703D01*
X283640Y77083D01*
X283638Y77040D01*
X283626Y76978D01*
X283516Y74528D01*
X283522Y74490D01*
X283519Y74437D01*
X283799Y71647D01*
X283808Y71617D01*
X283808Y71590D01*
X283816Y71570D01*
X283823Y71528D01*
X284573Y69028D01*
X284585Y69002D01*
X284594Y68966D01*
X285464Y66876D01*
X285485Y66845D01*
X285504Y66797D01*
X286804Y64597D01*
X286830Y64567D01*
X286858Y64520D01*
X288698Y62260D01*
X288733Y62230D01*
X288778Y62178D01*
X289384Y61659D01*
X289400Y61621D01*
X289417Y61603D01*
X289426Y61586D01*
X289477Y61535D01*
X289525Y61482D01*
X291155Y60132D01*
X291178Y60119D01*
X291202Y60096D01*
X292592Y59146D01*
X292673Y59110D01*
X292751Y59068D01*
X292775Y59064D01*
X292797Y59055D01*
X292885Y59049D01*
X292974Y59036D01*
X292997Y59041D01*
G37*
G36*
X106381Y-484D02*
X106381Y-484D01*
X106462Y-470D01*
X106544Y-463D01*
X106572Y-450D01*
X106601Y-444D01*
X106672Y-402D01*
X106747Y-367D01*
X106768Y-346D01*
X106794Y-330D01*
X106846Y-266D01*
X106904Y-207D01*
X106917Y-179D01*
X106936Y-156D01*
X106962Y-78D01*
X106996Y-2D01*
X106999Y32D01*
X107007Y57D01*
X107006Y106D01*
X107013Y184D01*
X106893Y2394D01*
X106888Y2417D01*
X106888Y2447D01*
X106578Y4697D01*
X106569Y4725D01*
X106565Y4765D01*
X106065Y6755D01*
X106054Y6779D01*
X106048Y6812D01*
X105378Y8702D01*
X105365Y8725D01*
X105355Y8758D01*
X104445Y10708D01*
X104431Y10728D01*
X104420Y10756D01*
X103470Y12406D01*
X103449Y12431D01*
X103429Y12469D01*
X102029Y14349D01*
X102008Y14368D01*
X101987Y14399D01*
X100607Y15899D01*
X100585Y15916D01*
X100561Y15944D01*
X99211Y17144D01*
X99200Y17151D01*
X99188Y17164D01*
X97998Y18124D01*
X97966Y18141D01*
X97928Y18173D01*
X96408Y19093D01*
X96392Y19099D01*
X96374Y19112D01*
X94804Y19932D01*
X94782Y19939D01*
X94758Y19954D01*
X92738Y20814D01*
X92710Y20820D01*
X92674Y20837D01*
X90634Y21457D01*
X90606Y21460D01*
X90570Y21473D01*
X88140Y21943D01*
X88104Y21943D01*
X88056Y21953D01*
X85606Y22093D01*
X85581Y22090D01*
X85548Y22094D01*
X83538Y22024D01*
X83510Y22018D01*
X83472Y22018D01*
X81622Y21758D01*
X81597Y21750D01*
X81564Y21747D01*
X79794Y21327D01*
X79775Y21319D01*
X79749Y21315D01*
X78099Y20795D01*
X78079Y20784D01*
X78050Y20777D01*
X76340Y20077D01*
X76313Y20060D01*
X76275Y20046D01*
X74445Y19042D01*
X74396Y19017D01*
X74326Y18965D01*
X74252Y18918D01*
X74237Y18898D01*
X74217Y18883D01*
X74169Y18810D01*
X74116Y18740D01*
X74109Y18716D01*
X74095Y18695D01*
X74076Y18609D01*
X74050Y18525D01*
X74052Y18500D01*
X74046Y18476D01*
X74058Y18389D01*
X74063Y18301D01*
X74074Y18275D01*
X74077Y18253D01*
X74101Y18209D01*
X74134Y18128D01*
X84944Y-192D01*
X84950Y-200D01*
X84954Y-209D01*
X85023Y-285D01*
X85090Y-362D01*
X85099Y-367D01*
X85106Y-374D01*
X85197Y-421D01*
X85287Y-471D01*
X85296Y-472D01*
X85305Y-477D01*
X85491Y-504D01*
X106381Y-484D01*
G37*
G36*
X258532Y-502D02*
X258532Y-502D01*
X258544Y-504D01*
X258642Y-482D01*
X258741Y-465D01*
X258751Y-458D01*
X258763Y-456D01*
X258848Y-401D01*
X258934Y-351D01*
X258942Y-341D01*
X258952Y-334D01*
X259069Y-188D01*
X269579Y17972D01*
X269605Y18043D01*
X269638Y18111D01*
X269642Y18148D01*
X269655Y18183D01*
X269655Y18259D01*
X269663Y18334D01*
X269654Y18370D01*
X269653Y18408D01*
X269626Y18478D01*
X269608Y18551D01*
X269587Y18582D01*
X269573Y18617D01*
X269524Y18674D01*
X269481Y18736D01*
X269447Y18762D01*
X269425Y18786D01*
X269385Y18808D01*
X269331Y18848D01*
X268031Y19548D01*
X268012Y19555D01*
X267991Y19568D01*
X265771Y20568D01*
X265732Y20578D01*
X265682Y20601D01*
X263122Y21321D01*
X263097Y21323D01*
X263066Y21334D01*
X261076Y21704D01*
X261043Y21704D01*
X261000Y21713D01*
X258640Y21863D01*
X258615Y21860D01*
X258583Y21864D01*
X256323Y21804D01*
X256282Y21796D01*
X256223Y21793D01*
X253763Y21333D01*
X253742Y21325D01*
X253714Y21322D01*
X250954Y20572D01*
X250915Y20554D01*
X250856Y20537D01*
X248436Y19427D01*
X248407Y19407D01*
X248365Y19389D01*
X246355Y18139D01*
X246331Y18117D01*
X246295Y18096D01*
X244225Y16446D01*
X244206Y16425D01*
X244176Y16403D01*
X242246Y14513D01*
X242222Y14479D01*
X242178Y14435D01*
X240368Y11965D01*
X240352Y11930D01*
X240320Y11888D01*
X238990Y9388D01*
X238979Y9353D01*
X238955Y9310D01*
X237815Y6230D01*
X237808Y6191D01*
X237789Y6138D01*
X237119Y2888D01*
X237118Y2856D01*
X237108Y2813D01*
X236918Y563D01*
X236920Y540D01*
X236916Y510D01*
X236916Y140D01*
X236927Y75D01*
X236929Y10D01*
X236947Y-34D01*
X236955Y-81D01*
X236989Y-137D01*
X237013Y-198D01*
X237045Y-233D01*
X237070Y-274D01*
X237120Y-315D01*
X237165Y-364D01*
X237207Y-386D01*
X237244Y-415D01*
X237306Y-436D01*
X237364Y-466D01*
X237419Y-475D01*
X237456Y-487D01*
X237495Y-486D01*
X237550Y-494D01*
X258520Y-504D01*
X258532Y-502D01*
G37*
G36*
X44372Y207407D02*
X44372Y207407D01*
X44413Y207417D01*
X44472Y207422D01*
X46822Y207962D01*
X46851Y207974D01*
X46891Y207982D01*
X49071Y208752D01*
X49104Y208770D01*
X49152Y208787D01*
X51122Y209807D01*
X51150Y209828D01*
X51193Y209850D01*
X53043Y211140D01*
X53069Y211166D01*
X53110Y211194D01*
X54780Y212734D01*
X54802Y212763D01*
X54838Y212795D01*
X56718Y215065D01*
X56741Y215105D01*
X56783Y215160D01*
X58213Y217710D01*
X58214Y217711D01*
X58214Y217712D01*
X58228Y217753D01*
X58260Y217813D01*
X59130Y220333D01*
X59135Y220369D01*
X59152Y220416D01*
X59592Y222626D01*
X59593Y222660D01*
X59603Y222705D01*
X59753Y224835D01*
X59749Y224871D01*
X59753Y224920D01*
X59623Y226970D01*
X59617Y226995D01*
X59617Y227027D01*
X59387Y228507D01*
X59377Y228535D01*
X59373Y228573D01*
X58833Y230603D01*
X58818Y230635D01*
X58806Y230682D01*
X58006Y232622D01*
X57992Y232644D01*
X57981Y232676D01*
X57211Y234136D01*
X57189Y234164D01*
X57167Y234207D01*
X55727Y236237D01*
X55706Y236258D01*
X55684Y236291D01*
X54484Y237641D01*
X54455Y237664D01*
X54422Y237703D01*
X52992Y238923D01*
X52973Y238933D01*
X52954Y238952D01*
X51764Y239822D01*
X51752Y239828D01*
X51739Y239840D01*
X50889Y240400D01*
X50810Y240434D01*
X50734Y240474D01*
X50707Y240478D01*
X50683Y240488D01*
X50597Y240492D01*
X50511Y240504D01*
X50485Y240498D01*
X50459Y240499D01*
X50376Y240473D01*
X50292Y240454D01*
X50270Y240439D01*
X50245Y240431D01*
X50177Y240378D01*
X50105Y240331D01*
X50086Y240308D01*
X50068Y240293D01*
X50042Y240251D01*
X49989Y240184D01*
X48629Y237794D01*
X45029Y231464D01*
X45028Y231462D01*
X45027Y231461D01*
X38969Y220685D01*
X35590Y214817D01*
X35589Y214814D01*
X35587Y214811D01*
X33107Y210401D01*
X33092Y210357D01*
X33068Y210318D01*
X33055Y210252D01*
X33034Y210189D01*
X33035Y210143D01*
X33026Y210097D01*
X33037Y210031D01*
X33038Y209965D01*
X33055Y209922D01*
X33063Y209876D01*
X33096Y209818D01*
X33121Y209756D01*
X33152Y209722D01*
X33175Y209681D01*
X33226Y209639D01*
X33271Y209589D01*
X33312Y209568D01*
X33347Y209538D01*
X33426Y209508D01*
X33470Y209485D01*
X33493Y209482D01*
X33522Y209471D01*
X33526Y209470D01*
X34388Y209003D01*
X34417Y208993D01*
X34453Y208972D01*
X36713Y208062D01*
X36755Y208053D01*
X36811Y208031D01*
X39221Y207491D01*
X39254Y207490D01*
X39297Y207479D01*
X41717Y207239D01*
X41760Y207242D01*
X41822Y207237D01*
X44372Y207407D01*
G37*
G36*
X302178Y207272D02*
X302178Y207272D01*
X302236Y207268D01*
X304506Y207468D01*
X304535Y207476D01*
X304576Y207478D01*
X306606Y207888D01*
X306638Y207901D01*
X306684Y207909D01*
X308484Y208519D01*
X308507Y208532D01*
X308541Y208542D01*
X310621Y209482D01*
X310699Y209536D01*
X310780Y209585D01*
X310791Y209599D01*
X310806Y209609D01*
X310861Y209687D01*
X310919Y209761D01*
X310925Y209778D01*
X310935Y209793D01*
X310959Y209884D01*
X310988Y209974D01*
X310988Y209992D01*
X310992Y210010D01*
X310983Y210104D01*
X310979Y210198D01*
X310972Y210217D01*
X310970Y210233D01*
X310948Y210278D01*
X310912Y210373D01*
X294022Y240143D01*
X293984Y240189D01*
X293954Y240240D01*
X293912Y240274D01*
X293878Y240315D01*
X293826Y240345D01*
X293780Y240383D01*
X293730Y240401D01*
X293684Y240427D01*
X293625Y240437D01*
X293568Y240457D01*
X293515Y240455D01*
X293462Y240464D01*
X293404Y240453D01*
X293344Y240452D01*
X293294Y240432D01*
X293242Y240422D01*
X293191Y240391D01*
X293136Y240369D01*
X293087Y240328D01*
X293050Y240305D01*
X293029Y240278D01*
X292993Y240248D01*
X292990Y240245D01*
X292209Y239787D01*
X292187Y239768D01*
X292152Y239750D01*
X291032Y238920D01*
X291018Y238904D01*
X290995Y238889D01*
X289415Y237519D01*
X289393Y237493D01*
X289357Y237463D01*
X288247Y236223D01*
X288234Y236201D01*
X288209Y236176D01*
X287089Y234656D01*
X287074Y234625D01*
X287045Y234587D01*
X285965Y232637D01*
X285954Y232603D01*
X285929Y232561D01*
X285159Y230591D01*
X285154Y230562D01*
X285138Y230526D01*
X284618Y228606D01*
X284615Y228572D01*
X284602Y228528D01*
X284232Y225898D01*
X284234Y225854D01*
X284226Y225790D01*
X284286Y223910D01*
X284291Y223885D01*
X284290Y223853D01*
X284540Y221803D01*
X284551Y221769D01*
X284556Y221720D01*
X285096Y219650D01*
X285109Y219623D01*
X285117Y219584D01*
X285787Y217824D01*
X285806Y217794D01*
X285822Y217748D01*
X287002Y215568D01*
X287025Y215540D01*
X287048Y215496D01*
X288718Y213206D01*
X288754Y213171D01*
X288815Y213101D01*
X291665Y210631D01*
X291699Y210610D01*
X291741Y210574D01*
X293941Y209184D01*
X293984Y209167D01*
X294044Y209131D01*
X296434Y208171D01*
X296466Y208165D01*
X296507Y208147D01*
X298947Y207497D01*
X298994Y207493D01*
X299067Y207477D01*
X302137Y207267D01*
X302178Y207272D01*
G37*
G36*
X86474Y279320D02*
X86474Y279320D01*
X86506Y279318D01*
X88206Y279468D01*
X88233Y279476D01*
X88271Y279477D01*
X89821Y279777D01*
X89837Y279784D01*
X89860Y279786D01*
X92160Y280386D01*
X92193Y280402D01*
X92242Y280414D01*
X93942Y281114D01*
X93959Y281125D01*
X93984Y281133D01*
X95684Y281983D01*
X95713Y282005D01*
X95758Y282026D01*
X97808Y283426D01*
X97824Y283442D01*
X97848Y283456D01*
X99398Y284706D01*
X99418Y284729D01*
X99448Y284752D01*
X100748Y286052D01*
X100769Y286081D01*
X100804Y286115D01*
X102254Y288015D01*
X102265Y288037D01*
X102286Y288060D01*
X103586Y290110D01*
X103599Y290144D01*
X103626Y290185D01*
X104476Y292035D01*
X104482Y292058D01*
X104497Y292085D01*
X105147Y293885D01*
X105152Y293918D01*
X105169Y293961D01*
X105619Y295961D01*
X105620Y295983D01*
X105628Y296010D01*
X105878Y297760D01*
X105877Y297783D01*
X105883Y297812D01*
X105982Y299436D01*
X106027Y299757D01*
X106037Y299787D01*
X106036Y299844D01*
X106044Y299901D01*
X106032Y299956D01*
X106031Y300011D01*
X106009Y300064D01*
X105997Y300121D01*
X105967Y300168D01*
X105946Y300219D01*
X105907Y300261D01*
X105876Y300310D01*
X105832Y300343D01*
X105795Y300384D01*
X105743Y300411D01*
X105697Y300445D01*
X105644Y300461D01*
X105595Y300487D01*
X105526Y300497D01*
X105482Y300510D01*
X105451Y300508D01*
X105410Y300514D01*
X85560Y300504D01*
X85546Y300502D01*
X85532Y300504D01*
X85436Y300482D01*
X85339Y300464D01*
X85327Y300457D01*
X85313Y300454D01*
X85231Y300401D01*
X85146Y300350D01*
X85137Y300340D01*
X85125Y300332D01*
X85009Y300185D01*
X75099Y282845D01*
X75080Y282789D01*
X75051Y282737D01*
X75042Y282684D01*
X75024Y282633D01*
X75025Y282574D01*
X75016Y282516D01*
X75027Y282463D01*
X75027Y282409D01*
X75049Y282354D01*
X75061Y282296D01*
X75089Y282250D01*
X75109Y282200D01*
X75148Y282155D01*
X75179Y282105D01*
X75228Y282065D01*
X75257Y282032D01*
X75288Y282016D01*
X75324Y281986D01*
X75374Y281956D01*
X75399Y281946D01*
X75429Y281927D01*
X77329Y281027D01*
X77348Y281022D01*
X77370Y281009D01*
X79170Y280309D01*
X79197Y280304D01*
X79230Y280289D01*
X81030Y279789D01*
X81056Y279787D01*
X81087Y279776D01*
X82737Y279476D01*
X82761Y279476D01*
X82793Y279468D01*
X84443Y279318D01*
X84468Y279321D01*
X84500Y279316D01*
X86450Y279316D01*
X86474Y279320D01*
G37*
G36*
X259525Y279340D02*
X259525Y279340D01*
X259557Y279338D01*
X261207Y279488D01*
X261231Y279495D01*
X261263Y279496D01*
X262913Y279796D01*
X262937Y279805D01*
X262970Y279809D01*
X264770Y280309D01*
X264795Y280321D01*
X264830Y280329D01*
X266630Y281029D01*
X266647Y281039D01*
X266672Y281047D01*
X268572Y281947D01*
X268594Y281963D01*
X268626Y281976D01*
X268676Y282006D01*
X268721Y282045D01*
X268771Y282076D01*
X268805Y282118D01*
X268845Y282154D01*
X268873Y282206D01*
X268910Y282252D01*
X268927Y282304D01*
X268952Y282351D01*
X268961Y282409D01*
X268979Y282466D01*
X268976Y282520D01*
X268984Y282573D01*
X268971Y282631D01*
X268969Y282690D01*
X268945Y282750D01*
X268936Y282792D01*
X268917Y282822D01*
X268901Y282865D01*
X258991Y300205D01*
X258982Y300215D01*
X258977Y300228D01*
X258910Y300301D01*
X258847Y300377D01*
X258835Y300384D01*
X258825Y300394D01*
X258738Y300439D01*
X258652Y300488D01*
X258638Y300490D01*
X258626Y300496D01*
X258440Y300524D01*
X238590Y300534D01*
X238536Y300525D01*
X238481Y300525D01*
X238426Y300505D01*
X238369Y300495D01*
X238322Y300467D01*
X238270Y300448D01*
X238226Y300410D01*
X238176Y300381D01*
X238141Y300338D01*
X238099Y300302D01*
X238071Y300251D01*
X238035Y300207D01*
X238017Y300154D01*
X237990Y300106D01*
X237981Y300049D01*
X237963Y299994D01*
X237964Y299939D01*
X237956Y299884D01*
X237968Y299816D01*
X237969Y299770D01*
X237976Y299753D01*
X238018Y299456D01*
X238117Y297832D01*
X238122Y297809D01*
X238122Y297780D01*
X238372Y296030D01*
X238379Y296009D01*
X238381Y295981D01*
X238831Y293981D01*
X238844Y293949D01*
X238853Y293905D01*
X239503Y292105D01*
X239515Y292084D01*
X239524Y292055D01*
X240374Y290205D01*
X240394Y290175D01*
X240414Y290130D01*
X241714Y288080D01*
X241731Y288062D01*
X241746Y288035D01*
X243196Y286135D01*
X243222Y286111D01*
X243252Y286072D01*
X244552Y284772D01*
X244576Y284755D01*
X244602Y284726D01*
X246152Y283476D01*
X246172Y283466D01*
X246192Y283446D01*
X248242Y282046D01*
X248276Y282031D01*
X248316Y282003D01*
X250016Y281153D01*
X250036Y281147D01*
X250059Y281134D01*
X251759Y280434D01*
X251794Y280426D01*
X251840Y280406D01*
X254140Y279806D01*
X254158Y279805D01*
X254179Y279797D01*
X255729Y279497D01*
X255758Y279497D01*
X255794Y279488D01*
X257494Y279338D01*
X257519Y279340D01*
X257550Y279336D01*
X259500Y279336D01*
X259525Y279340D01*
G37*
G36*
X335505Y132562D02*
X335505Y132562D01*
X335532Y132561D01*
X335613Y132587D01*
X335697Y132606D01*
X335720Y132621D01*
X335746Y132629D01*
X335813Y132681D01*
X335885Y132728D01*
X335904Y132752D01*
X335923Y132767D01*
X335949Y132809D01*
X336001Y132875D01*
X345591Y149655D01*
X345593Y149662D01*
X345597Y149667D01*
X345631Y149768D01*
X345666Y149867D01*
X345666Y149874D01*
X345668Y149880D01*
X345664Y149986D01*
X345663Y150091D01*
X345660Y150098D01*
X345660Y150104D01*
X345593Y150280D01*
X336231Y167008D01*
X336231Y167021D01*
X336209Y167075D01*
X336196Y167132D01*
X336167Y167178D01*
X336146Y167228D01*
X336107Y167271D01*
X336076Y167321D01*
X336032Y167354D01*
X335995Y167394D01*
X335943Y167421D01*
X335896Y167456D01*
X335844Y167472D01*
X335795Y167497D01*
X335726Y167507D01*
X335681Y167520D01*
X335650Y167518D01*
X335610Y167524D01*
X335570Y167524D01*
X335568Y167524D01*
X335566Y167524D01*
X335471Y167507D01*
X335458Y167506D01*
X335451Y167503D01*
X335349Y167485D01*
X335347Y167484D01*
X335345Y167483D01*
X335251Y167426D01*
X335156Y167370D01*
X335155Y167369D01*
X335153Y167368D01*
X335134Y167344D01*
X333914Y166614D01*
X333895Y166598D01*
X333867Y166583D01*
X332247Y165403D01*
X332234Y165389D01*
X332223Y165383D01*
X332217Y165375D01*
X332195Y165361D01*
X330945Y164231D01*
X330925Y164205D01*
X330892Y164177D01*
X329452Y162527D01*
X329444Y162514D01*
X329431Y162501D01*
X328531Y161351D01*
X328514Y161320D01*
X328485Y161284D01*
X327385Y159434D01*
X327376Y159411D01*
X327359Y159386D01*
X326659Y157936D01*
X326653Y157914D01*
X326639Y157889D01*
X325879Y155929D01*
X325873Y155898D01*
X325856Y155860D01*
X325426Y154210D01*
X325424Y154177D01*
X325411Y154135D01*
X325041Y151385D01*
X325043Y151351D01*
X325036Y151306D01*
X325016Y149346D01*
X325021Y149316D01*
X325019Y149276D01*
X325249Y147026D01*
X325257Y146998D01*
X325259Y146959D01*
X325709Y144819D01*
X325721Y144791D01*
X325728Y144751D01*
X326408Y142691D01*
X326424Y142660D01*
X326438Y142615D01*
X327458Y140495D01*
X327473Y140475D01*
X327485Y140446D01*
X328655Y138476D01*
X328682Y138445D01*
X328713Y138394D01*
X330363Y136414D01*
X330388Y136392D01*
X330416Y136357D01*
X332016Y134857D01*
X332040Y134842D01*
X332065Y134816D01*
X333545Y133686D01*
X333563Y133677D01*
X333581Y133660D01*
X335101Y132660D01*
X335180Y132627D01*
X335255Y132586D01*
X335282Y132583D01*
X335308Y132572D01*
X335393Y132568D01*
X335478Y132556D01*
X335505Y132562D01*
G37*
G36*
X8642Y132552D02*
X8642Y132552D01*
X8725Y132560D01*
X8755Y132574D01*
X8780Y132579D01*
X8822Y132605D01*
X8896Y132638D01*
X10326Y133568D01*
X10349Y133590D01*
X10386Y133612D01*
X12526Y135392D01*
X12543Y135413D01*
X12571Y135434D01*
X14121Y137004D01*
X14138Y137029D01*
X14167Y137056D01*
X15497Y138736D01*
X15518Y138775D01*
X15556Y138824D01*
X15766Y139206D01*
X16114Y139840D01*
X16114Y139841D01*
X16463Y140475D01*
X16716Y140934D01*
X16723Y140955D01*
X16737Y140977D01*
X17847Y143417D01*
X17858Y143458D01*
X17882Y143513D01*
X18632Y146253D01*
X18636Y146299D01*
X18652Y146371D01*
X18922Y149821D01*
X18919Y149852D01*
X18924Y149894D01*
X18824Y152564D01*
X18814Y152611D01*
X18807Y152687D01*
X18047Y155887D01*
X18032Y155921D01*
X18021Y155970D01*
X16971Y158670D01*
X16950Y158705D01*
X16928Y158760D01*
X15498Y161210D01*
X15471Y161241D01*
X15441Y161291D01*
X13211Y164021D01*
X13179Y164049D01*
X13141Y164095D01*
X11301Y165725D01*
X11270Y165744D01*
X11233Y165777D01*
X9038Y167250D01*
X8952Y167321D01*
X8946Y167324D01*
X8942Y167328D01*
X8849Y167378D01*
X8756Y167430D01*
X8750Y167431D01*
X8744Y167434D01*
X8639Y167448D01*
X8534Y167464D01*
X8528Y167463D01*
X8522Y167464D01*
X8419Y167440D01*
X8314Y167419D01*
X8309Y167416D01*
X8303Y167414D01*
X8215Y167357D01*
X8124Y167300D01*
X8120Y167295D01*
X8115Y167292D01*
X7999Y167145D01*
X-1611Y150315D01*
X-1614Y150306D01*
X-1620Y150298D01*
X-1652Y150200D01*
X-1686Y150103D01*
X-1686Y150094D01*
X-1689Y150084D01*
X-1684Y149981D01*
X-1683Y149879D01*
X-1679Y149870D01*
X-1679Y149860D01*
X-1611Y149686D01*
X7999Y132856D01*
X8053Y132791D01*
X8101Y132722D01*
X8125Y132706D01*
X8143Y132683D01*
X8216Y132642D01*
X8285Y132594D01*
X8313Y132587D01*
X8338Y132572D01*
X8421Y132559D01*
X8502Y132538D01*
X8531Y132541D01*
X8559Y132536D01*
X8642Y132552D01*
G37*
D10*
X45000Y127020D03*
X45000Y112020D03*
D11*
X284613Y138570D03*
X301613Y138570D03*
X63170Y127520D03*
X80170Y127520D03*
D12*
X122314Y177490D03*
X115814Y177490D03*
X109314Y177490D03*
X102814Y177490D03*
X102814Y152990D03*
X109314Y152990D03*
X115814Y152990D03*
X122314Y152990D03*
D13*
X196384Y251346D03*
D14*
X145584Y251346D03*
D15*
X96190Y200038D03*
X113190Y200038D03*
D16*
X75625Y172921D02*
X64667Y172921D01*
X64667Y177879D01*
X75625Y177879D01*
X75625Y172921D01*
X75625Y198321D02*
X64667Y198321D01*
X64667Y203279D01*
X75625Y203279D01*
X75625Y198321D01*
X250341Y241501D02*
X261299Y241501D01*
X250341Y241501D02*
X250341Y246459D01*
X261299Y246459D01*
X261299Y241501D01*
X287171Y171651D02*
X298129Y171651D01*
X287171Y171651D02*
X287171Y176609D01*
X298129Y176609D01*
X298129Y171651D01*
D17*
X295300Y220800D03*
X295300Y78800D03*
X335300Y149800D03*
X254300Y7800D03*
X172300Y7800D03*
X90300Y7800D03*
X48300Y78800D03*
X8300Y149800D03*
X49300Y220800D03*
X90300Y291800D03*
X254300Y292800D03*
M02*
